<?xml version="1.0" encoding="UTF-8"?>
<svg width="26px" height="30px" viewBox="0 0 26 30" version="1.1" xmlns="http://www.w3.org/2000/svg" xmlns:xlink="http://www.w3.org/1999/xlink">
    <!-- Generator: sketchtool 59.1 (101010) - https://sketch.com -->
    <title>AFBF538D-3839-408B-8150-58A800F675DB</title>
    <desc>Created with sketchtool.</desc>
    <g id="Dashaboard-/-Workspace" stroke="none" stroke-width="1" fill="none" fill-rule="evenodd">
        <g id="1.11-Profile-page-Notification-ON" transform="translate(-1267.000000, -33.000000)">
            <g id="Stage-2-top-bar-Stage-2-top-bar-profile-click">
                <g id="Group-29" transform="translate(1267.000000, 33.000000)">
                    <g id="notification" fill="#019DAC">
                        <path d="M17.3035166,25.5840992 C17.0506079,27.7888558 15.2205079,29.5 13.0000561,29.5 C10.7796042,29.5 8.94950939,27.7888558 8.69659557,25.5840992 L2.80988738,25.5840992 C1.25855343,25.5840992 0,24.2992138 0,22.7124386 C0,21.1276997 1.2565652,19.8407781 2.8059109,19.8407781 C2.94331841,19.8407781 3.05881963,19.7224865 3.05881963,19.579718 L3.05881963,13.3142767 C3.05881963,8.84769588 5.88864035,4.96244355 9.94117527,3.62424972 L9.94117527,3.13272063 C9.94117527,1.40319778 11.3132621,0 13,0 C14.6907144,0 16.0588247,1.40116151 16.0588247,3.13272063 L16.0588247,3.62424972 C20.1113597,4.96218249 22.9411804,8.84962773 22.9411804,13.3142767 L22.9411804,19.579718 C22.9411804,19.7265643 23.0527,19.8407781 23.1940891,19.8407781 C24.7414466,19.8407781 26,21.1276997 26,22.7124386 C26,24.2971776 24.7413956,25.5840992 23.1901126,25.5840992 L17.3035166,25.5840992 Z M15.7581983,25.5840992 L10.2421177,25.5840992 C10.4830818,26.9199957 11.626134,27.9336397 13.00026,27.9336397 C14.374386,27.9336397 15.5174178,26.9199957 15.7584023,25.5840992 L15.7581983,25.5840992 Z M10.8971141,4.97079747 C7.21097538,5.94162759 4.58828807,9.35984349 4.58828807,13.3142767 L4.58828807,19.579718 C4.58828807,20.5872532 3.7897309,21.4071384 2.80596188,21.4071384 C2.10100475,21.4071384 1.52946334,21.9924872 1.52946334,22.7124386 C1.52946334,23.43239 2.10100475,24.0177389 2.80993836,24.0177389 L23.1903777,24.0177389 C23.8973231,24.0177389 24.4708527,23.43239 24.4708527,22.7124386 C24.4708527,21.9924872 23.8973231,21.4071384 23.1943542,21.4071384 C22.2085969,21.4071384 21.412028,20.5913257 21.412028,19.579718 L21.412028,13.3142767 C21.412028,9.35963465 18.7893407,5.94141874 15.103202,4.97079747 L14.5296724,4.81987343 L14.5296724,3.13316443 C14.5296724,2.26634063 13.8466368,1.56680412 13.00026,1.56680412 C12.1579107,1.56680412 11.4708476,2.26842911 11.4708476,3.13316443 L11.4708476,4.81987343 L10.8971141,4.97079747 Z" id="Fill-1"></path>
                    </g>
                    <ellipse id="Oval" fill="#F76A6A" cx="20" cy="5.9" rx="4" ry="3.93333333"></ellipse>
                </g>
            </g>
        </g>
    </g>
</svg>