<?xml version="1.0" encoding="UTF-8"?>
<svg width="18px" height="18px" viewBox="0 0 18 18" version="1.1" xmlns="http://www.w3.org/2000/svg" xmlns:xlink="http://www.w3.org/1999/xlink">
    <!-- Generator: sketchtool 59.1 (101010) - https://sketch.com -->
    <title>AB527F35-498E-457A-B78A-5E4A0519A932</title>
    <desc>Created with sketchtool.</desc>
    <g id="Assets-and-UI-Elements" stroke="none" stroke-width="1" fill="none" fill-rule="evenodd">
        <g id="Assest-ans-UI-Element" transform="translate(-154.000000, -1006.000000)" fill="#019DAC" fill-rule="nonzero">
            <path d="M155.636364,1006 C154.74204,1006 154,1006.81624 154,1007.8 L154,1018.6 C154,1019.58376 154.74204,1020.4 155.636364,1020.4 L162.181818,1020.4 L162.181818,1018.6 L155.636364,1018.6 L155.636364,1007.8 L168.727273,1007.8 L168.727273,1013.2 L170.363636,1013.2 L170.363636,1007.8 C170.363636,1006.81624 169.621597,1006 168.727273,1006 L155.636364,1006 Z M164.227273,1012.3 L161.363636,1015.9 L159.318182,1013.65 L157.090554,1016.8 L165.454545,1016.8 L165.454545,1014.1 L164.227273,1012.3 Z M167.090909,1015 L167.090909,1018.6 L163.818182,1018.6 L163.818182,1020.4 L167.090909,1020.4 L167.090909,1024 L168.727273,1024 L168.727273,1020.4 L172,1020.4 L172,1018.6 L168.727273,1018.6 L168.727273,1015 L167.090909,1015 Z" id="Shape-3"></path>
        </g>
    </g>
</svg>