<?xml version="1.0" encoding="UTF-8"?>
<svg width="25px" height="21px" viewBox="0 0 25 21" version="1.1" xmlns="http://www.w3.org/2000/svg" xmlns:xlink="http://www.w3.org/1999/xlink">
    <!-- Generator: sketchtool 59.1 (101010) - https://sketch.com -->
    <title>E88CB5C6-20F0-4DD8-959D-5D22F2DFF294</title>
    <desc>Created with sketchtool.</desc>
    <g id="Dashaboard-/-Workspace" stroke="none" stroke-width="1" fill="none" fill-rule="evenodd">
        <g id="4.7-My-Lab-detail-3" transform="translate(-1124.000000, -613.000000)" fill="#8AB7D9" fill-rule="nonzero" stroke="#FBFBFB" stroke-width="0.2">
            <g id="Group-3" transform="translate(0.000000, 95.000000)">
                <g id="Group">
                    <g id="My-Lab-block-+-Copy-5-My-Lab-block-+" transform="translate(968.500000, 445.000000)">
                        <g id="Group-9" transform="translate(138.000000, 74.000000)">
                            <g id="Group-4" transform="translate(18.000000, -0.000000)">
                                <g id="Group-17" transform="translate(0.000000, -0.000000)">
                                    <g id="Group-13">
                                        <path d="M24.3418291,2.02398801 L24.3418291,19.0524738 C24.3418291,19.3493253 24.0449775,19.6461769 23.7481259,19.6461769 L0.593703148,19.6461769 C0.296851574,19.6461769 -1.33226763e-13,19.3493253 -1.33226763e-13,19.0524738 L-1.33226763e-13,2.02398801 C-1.33226763e-13,1.72713643 0.296851574,1.43028486 0.593703148,1.43028486 L3.67016492,1.43028486 C3.96701649,1.43028486 4.26386807,1.72713643 4.26386807,2.02398801 C4.26386807,2.4017991 3.96701649,2.61769115 3.67016492,2.61769115 L1.24137931,2.61769115 L1.24137931,18.4047976 L23.1544228,18.4047976 L23.1544228,2.61769115 L20.9145427,2.61769115 C20.6176912,2.61769115 20.3208396,2.32083958 20.3208396,2.02398801 C20.3208396,1.72713643 20.6176912,1.43028486 20.9145427,1.43028486 L23.8290855,1.43028486 C24.1529235,1.43028486 24.3418291,1.75412294 24.3418291,2.02398801 Z" id="Path"></path>
                                        <path d="M17.2443778,2.02398801 L17.2443778,2.02398801 C17.2443778,2.34782609 16.9745127,2.61769115 16.6506747,2.61769115 L7.93403298,2.61769115 C7.6101949,2.61769115 7.34032984,2.34782609 7.34032984,2.02398801 L7.34032984,2.02398801 C7.34032984,1.70014993 7.6101949,1.43028486 7.93403298,1.43028486 L16.6506747,1.43028486 C16.9745127,1.43028486 17.2443778,1.70014993 17.2443778,2.02398801 Z" id="Path"></path>
                                        <path d="M5.69415292,8.8817842e-15 L5.69415292,8.8817842e-15 C6.017991,8.8817842e-15 6.28785607,0.269865067 6.28785607,0.593703148 L6.28785607,3.48125937 C6.28785607,3.80509745 6.017991,4.07496252 5.69415292,4.07496252 L5.69415292,4.07496252 C5.37031484,4.07496252 5.10044978,3.80509745 5.10044978,3.48125937 L5.10044978,0.593703148 C5.10044978,0.269865067 5.37031484,8.8817842e-15 5.69415292,8.8817842e-15 Z" id="Path"></path>
                                        <path d="M18.7826087,8.8817842e-15 L18.7826087,8.8817842e-15 C19.1064468,8.8817842e-15 19.3763118,0.269865067 19.3763118,0.593703148 L19.3763118,3.48125937 C19.3763118,3.80509745 19.1064468,4.07496252 18.7826087,4.07496252 L18.7826087,4.07496252 C18.4587706,4.07496252 18.1889055,3.80509745 18.1889055,3.48125937 L18.1889055,0.593703148 C18.2158921,0.269865067 18.4587706,8.8817842e-15 18.7826087,8.8817842e-15 Z" id="Path"></path>
                                        <path d="M7.04040523,6.74370286 L7.04040523,9.57754745 L4.20656065,9.57754745 L4.20656065,6.74370286 L7.04040523,6.74370286 M7.50044494,5.93403298 L3.74652094,5.93403298 C3.56250506,5.93403298 3.41529235,6.08124569 3.41529235,6.26526157 L3.41529235,10.0375872 C3.41529235,10.221603 3.56250506,10.3688157 3.74652094,10.3688157 L7.51884652,10.3688157 C7.70286241,10.3688157 7.85007511,10.221603 7.85007511,10.0375872 L7.85007511,6.26526157 C7.83167352,6.08124569 7.68446082,5.93403298 7.50044494,5.93403298 L7.50044494,5.93403298 Z" id="Shape"></path>
                                    </g>
                                </g>
                            </g>
                        </g>
                    </g>
                </g>
            </g>
        </g>
    </g>
</svg>