<?xml version="1.0" encoding="UTF-8"?>
<svg width="26px" height="21px" viewBox="0 0 26 21" version="1.1" xmlns="http://www.w3.org/2000/svg" xmlns:xlink="http://www.w3.org/1999/xlink">
    <!-- Generator: sketchtool 59.1 (101010) - https://sketch.com -->
    <title>EC5DBE52-4770-43D0-B326-000B8728DA1D</title>
    <desc>Created with sketchtool.</desc>
    <g id="Dashaboard-/-Workspace" stroke="none" stroke-width="1" fill="none" fill-rule="evenodd">
        <g id="1.4-Action-on-Hover_Copy-URL" transform="translate(-631.000000, -768.000000)" fill="#8AB7D9" fill-rule="nonzero" stroke="#FBFBFB" stroke-width="0.2">
            <g id="My-Lab-Block" transform="translate(570.000000, 694.000000)">
                <g id="Group-2" transform="translate(44.000000, 75.000000)">
                    <g id="Group-3" transform="translate(18.000000, 0.000000)">
                        <g id="Group">
                            <g id="Group-15" transform="translate(0.000000, -0.000000)">
                                <g id="Group-7">
                                    <path d="M24.3418291,2.02398801 L24.3418291,19.0524738 C24.3418291,19.3493253 24.0449775,19.6461769 23.7481259,19.6461769 L0.593703148,19.6461769 C0.296851574,19.6461769 -1.33226763e-13,19.3493253 -1.33226763e-13,19.0524738 L-1.33226763e-13,2.02398801 C-1.33226763e-13,1.72713643 0.296851574,1.43028486 0.593703148,1.43028486 L3.67016492,1.43028486 C3.96701649,1.43028486 4.26386807,1.72713643 4.26386807,2.02398801 C4.26386807,2.4017991 3.96701649,2.61769115 3.67016492,2.61769115 L1.24137931,2.61769115 L1.24137931,18.4047976 L23.1544228,18.4047976 L23.1544228,2.61769115 L20.9145427,2.61769115 C20.6176912,2.61769115 20.3208396,2.32083958 20.3208396,2.02398801 C20.3208396,1.72713643 20.6176912,1.43028486 20.9145427,1.43028486 L23.8290855,1.43028486 C24.1529235,1.43028486 24.3418291,1.75412294 24.3418291,2.02398801 Z" id="Path"></path>
                                    <path d="M17.2443778,2.02398801 L17.2443778,2.02398801 C17.2443778,2.34782609 16.9745127,2.61769115 16.6506747,2.61769115 L7.93403298,2.61769115 C7.6101949,2.61769115 7.34032984,2.34782609 7.34032984,2.02398801 L7.34032984,2.02398801 C7.34032984,1.70014993 7.6101949,1.43028486 7.93403298,1.43028486 L16.6506747,1.43028486 C16.9745127,1.43028486 17.2443778,1.70014993 17.2443778,2.02398801 Z" id="Path"></path>
                                    <path d="M5.69415292,-5.32907052e-15 L5.69415292,-5.32907052e-15 C6.017991,-5.32907052e-15 6.28785607,0.269865067 6.28785607,0.593703148 L6.28785607,3.48125937 C6.28785607,3.80509745 6.017991,4.07496252 5.69415292,4.07496252 L5.69415292,4.07496252 C5.37031484,4.07496252 5.10044978,3.80509745 5.10044978,3.48125937 L5.10044978,0.593703148 C5.10044978,0.269865067 5.37031484,-5.32907052e-15 5.69415292,-5.32907052e-15 Z" id="Path"></path>
                                    <path d="M18.7826087,-5.32907052e-15 L18.7826087,-5.32907052e-15 C19.1064468,-5.32907052e-15 19.3763118,0.269865067 19.3763118,0.593703148 L19.3763118,3.48125937 C19.3763118,3.80509745 19.1064468,4.07496252 18.7826087,4.07496252 L18.7826087,4.07496252 C18.4587706,4.07496252 18.1889055,3.80509745 18.1889055,3.48125937 L18.1889055,0.593703148 C18.2158921,0.269865067 18.4587706,-5.32907052e-15 18.7826087,-5.32907052e-15 Z" id="Path"></path>
                                    <path d="M15.3041994,9.16865825 L12.796859,9.16865825 L12.796859,6.66131786 C12.796859,6.3144691 12.5158279,6.03448276 12.1700239,6.03448276 C11.8242199,6.03448276 11.5431888,6.31551383 11.5431888,6.66131786 L11.5431888,9.16865825 L9.03584841,9.16865825 C8.68899966,9.16865825 8.40901332,9.44968931 8.40901332,9.79549334 C8.40901332,10.1412974 8.69004438,10.4223284 9.03584841,10.4223284 L11.5431888,10.4223284 L11.5431888,12.9296688 C11.5431888,13.2765176 11.8242199,13.5565039 12.1700239,13.5565039 C12.5158279,13.5565039 12.796859,13.2754729 12.796859,12.9296688 L12.796859,10.4223284 L15.3041994,10.4223284 C15.6510481,10.4223284 15.9310345,10.1412974 15.9310345,9.79549334 C15.9310345,9.44968931 15.6510481,9.16865825 15.3041994,9.16865825 Z" id="Shape"></path>
                                </g>
                            </g>
                        </g>
                    </g>
                </g>
            </g>
        </g>
    </g>
</svg>