<?xml version="1.0" encoding="UTF-8"?>
<svg width="49px" height="49px" viewBox="0 0 49 49" version="1.1" xmlns="http://www.w3.org/2000/svg" xmlns:xlink="http://www.w3.org/1999/xlink">
    <!-- Generator: sketchtool 59.1 (101010) - https://sketch.com -->
    <title>F2E918D7-1B84-481C-869C-D35151424D20</title>
    <desc>Created with sketchtool.</desc>
    <g id="Assets-and-UI-Elements" stroke="none" stroke-width="1" fill="none" fill-rule="evenodd">
        <g id="Assest-ans-UI-Element" transform="translate(-36.000000, -191.000000)" fill="#8AB7D9">
            <g id="Group-11-1" transform="translate(37.000000, 192.000000)">
                <path d="M13.7142857,13.5 C12.7691429,13.5 12,14.1894146 12,15.0365854 C12,15.8837561 12.7691429,16.5731707 13.7142857,16.5731707 C14.4580625,16.5731707 15.0869366,16.1435678 15.3236607,15.5487805 L34.2857143,15.5487805 C34.6085886,15.5487805 34.8571429,15.7715699 34.8571429,16.0609756 L34.8571429,23.7439024 C34.8571429,24.033308 34.6085886,24.2560976 34.2857143,24.2560976 L23.6651783,24.2560976 L26.689732,21.5450647 L25.8816966,20.820789 L21.4776789,24.7682927 L25.8816966,28.7157964 L26.689732,27.9915207 L23.6651783,25.2804878 L34.2857143,25.2804878 C35.2256971,25.2804878 36,24.586448 36,23.7439024 L36,16.0609756 C36,15.2184301 35.2256971,14.5243902 34.2857143,14.5243902 L15.3236607,14.5243902 C15.0869366,13.9296029 14.4580625,13.5 13.7142857,13.5 Z M12.5714286,24.2560976 C12.2558373,24.2560976 12,24.4854151 12,24.7682927 C12,25.0511702 12.2558373,25.2804878 12.5714286,25.2804878 C12.8870199,25.2804878 13.1428571,25.0511702 13.1428571,24.7682927 C13.1428571,24.4854151 12.8870199,24.2560976 12.5714286,24.2560976 Z M14.8571429,24.2560976 C14.5415516,24.2560976 14.2857143,24.4854151 14.2857143,24.7682927 C14.2857143,25.0511702 14.5415516,25.2804878 14.8571429,25.2804878 C15.1727341,25.2804878 15.4285714,25.0511702 15.4285714,24.7682927 C15.4285714,24.4854151 15.1727341,24.2560976 14.8571429,24.2560976 Z M17.1428571,24.2560976 C16.8272659,24.2560976 16.5714286,24.4854151 16.5714286,24.7682927 C16.5714286,25.0511702 16.8272659,25.2804878 17.1428571,25.2804878 C17.4584484,25.2804878 17.7142857,25.0511702 17.7142857,24.7682927 C17.7142857,24.4854151 17.4584484,24.2560976 17.1428571,24.2560976 Z M19.4285714,24.2560976 C19.1129801,24.2560976 18.8571429,24.4854151 18.8571429,24.7682927 C18.8571429,25.0511702 19.1129801,25.2804878 19.4285714,25.2804878 C19.7441627,25.2804878 20,25.0511702 20,24.7682927 C20,24.4854151 19.7441627,24.2560976 19.4285714,24.2560976 Z M12.5714286,26.304878 C12.2558373,26.304878 12,26.5341956 12,26.8170732 C12,27.0999507 12.2558373,27.3292683 12.5714286,27.3292683 C12.8870199,27.3292683 13.1428571,27.0999507 13.1428571,26.8170732 C13.1428571,26.5341956 12.8870199,26.304878 12.5714286,26.304878 Z M12.5714286,28.3536585 C12.2558373,28.3536585 12,28.5829761 12,28.8658537 C12,29.1487312 12.2558373,29.3780488 12.5714286,29.3780488 C12.8870199,29.3780488 13.1428571,29.1487312 13.1428571,28.8658537 C13.1428571,28.5829761 12.8870199,28.3536585 12.5714286,28.3536585 Z M12.5714286,30.402439 C12.2558373,30.402439 12,30.6317566 12,30.9146341 C12,31.1975117 12.2558373,31.4268293 12.5714286,31.4268293 C12.8870199,31.4268293 13.1428571,31.1975117 13.1428571,30.9146341 C13.1428571,30.6317566 12.8870199,30.402439 12.5714286,30.402439 Z M34.2857143,31.4268293 C33.3405714,31.4268293 32.5714286,32.1162439 32.5714286,32.9634146 C32.5714286,33.8105854 33.3405714,34.5 34.2857143,34.5 C35.2308571,34.5 36,33.8105854 36,32.9634146 C36,32.1162439 35.2308571,31.4268293 34.2857143,31.4268293 Z M12.5714286,32.4512195 C12.2558373,32.4512195 12,32.6805371 12,32.9634146 C12,33.2462922 12.2558373,33.4756098 12.5714286,33.4756098 C12.8870199,33.4756098 13.1428571,33.2462922 13.1428571,32.9634146 C13.1428571,32.6805371 12.8870199,32.4512195 12.5714286,32.4512195 Z M14.8571429,32.4512195 C14.5415516,32.4512195 14.2857143,32.6805371 14.2857143,32.9634146 C14.2857143,33.2462922 14.5415516,33.4756098 14.8571429,33.4756098 C15.1727341,33.4756098 15.4285714,33.2462922 15.4285714,32.9634146 C15.4285714,32.6805371 15.1727341,32.4512195 14.8571429,32.4512195 Z M17.1428571,32.4512195 C16.8272659,32.4512195 16.5714286,32.6805371 16.5714286,32.9634146 C16.5714286,33.2462922 16.8272659,33.4756098 17.1428571,33.4756098 C17.4584484,33.4756098 17.7142857,33.2462922 17.7142857,32.9634146 C17.7142857,32.6805371 17.4584484,32.4512195 17.1428571,32.4512195 Z M19.4285714,32.4512195 C19.1129801,32.4512195 18.8571429,32.6805371 18.8571429,32.9634146 C18.8571429,33.2462922 19.1129801,33.4756098 19.4285714,33.4756098 C19.7441627,33.4756098 20,33.2462922 20,32.9634146 C20,32.6805371 19.7441627,32.4512195 19.4285714,32.4512195 Z M21.7142857,32.4512195 C21.3986944,32.4512195 21.1428571,32.6805371 21.1428571,32.9634146 C21.1428571,33.2462922 21.3986944,33.4756098 21.7142857,33.4756098 C22.029877,33.4756098 22.2857143,33.2462922 22.2857143,32.9634146 C22.2857143,32.6805371 22.029877,32.4512195 21.7142857,32.4512195 Z M24,32.4512195 C23.6844087,32.4512195 23.4285714,32.6805371 23.4285714,32.9634146 C23.4285714,33.2462922 23.6844087,33.4756098 24,33.4756098 C24.3155913,33.4756098 24.5714286,33.2462922 24.5714286,32.9634146 C24.5714286,32.6805371 24.3155913,32.4512195 24,32.4512195 Z M26.2857143,32.4512195 C25.970123,32.4512195 25.7142857,32.6805371 25.7142857,32.9634146 C25.7142857,33.2462922 25.970123,33.4756098 26.2857143,33.4756098 C26.6013056,33.4756098 26.8571429,33.2462922 26.8571429,32.9634146 C26.8571429,32.6805371 26.6013056,32.4512195 26.2857143,32.4512195 Z M28.5714286,32.4512195 C28.2558373,32.4512195 28,32.6805371 28,32.9634146 C28,33.2462922 28.2558373,33.4756098 28.5714286,33.4756098 C28.8870199,33.4756098 29.1428571,33.2462922 29.1428571,32.9634146 C29.1428571,32.6805371 28.8870199,32.4512195 28.5714286,32.4512195 Z M30.8571429,32.4512195 C30.5415516,32.4512195 30.2857143,32.6805371 30.2857143,32.9634146 C30.2857143,33.2462922 30.5415516,33.4756098 30.8571429,33.4756098 C31.1727341,33.4756098 31.4285714,33.2462922 31.4285714,32.9634146 C31.4285714,32.6805371 31.1727341,32.4512195 30.8571429,32.4512195 Z" id="Shape" stroke="#8AB7D9" stroke-width="0.858" fill-rule="nonzero"></path>
                <g id="Group-17">
                    <path d="M23.63904,0.31104 C30.0806784,0.31104 35.9126784,2.92327834 40.1341133,7.14396672 C44.3555482,11.3646551 46.96704,17.1967795 46.96704,23.63904 C46.96704,30.0813005 44.3548017,35.9126784 40.1341133,40.1341133 C35.9134249,44.3555482 30.0813005,46.96704 23.63904,46.96704 C17.1967795,46.96704 11.3654016,44.3548017 7.14396672,40.1341133 C2.92253184,35.9134249 0.31104,30.0813005 0.31104,23.63904 C0.31104,17.1967795 2.92327834,11.3654016 7.14396672,7.14396672 C11.3646551,2.92253184 17.1967795,0.31104 23.63904,0.31104 Z M39.1033267,8.17475328 C35.1448451,4.21627162 29.6775706,1.76919552 23.63904,1.76919552 C17.6005094,1.76919552 12.1330483,4.21620941 8.17475328,8.17475328 C4.21645824,12.1332972 1.76919552,17.6005094 1.76919552,23.63904 C1.76919552,29.6775706 4.21620941,35.1450317 8.17475328,39.1033267 C12.1332972,43.0616218 17.6005094,45.5088845 23.63904,45.5088845 C29.6775706,45.5088845 35.1450317,43.0618706 39.1033267,39.1033267 C43.0616218,35.1447828 45.5088845,29.6775706 45.5088845,23.63904 C45.5088845,17.6005094 43.0618706,12.1330483 39.1033267,8.17475328 Z" id="Fill-1" stroke="#8AB7D9" stroke-width="0.864"></path>
                    <path d="M24.3681178,1.04011776 C24.3681178,0.636736205 24.0424962,0.311102208 23.6391022,0.311102208 C23.2357082,0.311102208 22.9100867,0.636723763 22.9100867,1.04011776 L22.9100867,3.32433331 C22.9100867,3.72771487 23.2357082,4.05334886 23.6391022,4.05334886 C24.0424962,4.05334886 24.3681178,3.72772731 24.3681178,3.32433331 L24.3681178,1.04011776 Z" id="Fill-3"></path>
                    <path d="M35.5680461,4.43232 C35.7697369,4.08483233 35.6506645,3.64016333 35.3031769,3.43842278 C34.9556892,3.23673201 34.5110202,3.35580434 34.3092796,3.70329201 L33.167203,5.68131978 C32.9655122,6.02880745 33.0845845,6.47347645 33.4320722,6.675217 C33.7795599,6.87690778 34.2242289,6.75783544 34.4259694,6.41034778 L35.5680461,4.43232 Z" id="Fill-4"></path>
                    <path d="M43.5748378,12.9691238 C43.9223254,12.7674331 44.0413978,12.3227205 43.839707,11.9752266 C43.6380162,11.627739 43.1933037,11.5086666 42.8458098,11.7103574 L40.867782,12.8524341 C40.5202943,13.0541249 40.401222,13.4988374 40.6029128,13.8463313 C40.8046035,14.193819 41.2493161,14.3128913 41.59681,14.1112005 L43.5748378,12.9691238 Z" id="Fill-5"></path>
                    <path d="M46.2379622,24.3681178 C46.6413438,24.3681178 46.9669778,24.0424962 46.9669778,23.6391022 C46.9669778,23.2357082 46.6413562,22.9100867 46.2379622,22.9100867 L43.9537467,22.9100867 C43.5503651,22.9100867 43.2247311,23.2357082 43.2247311,23.6391022 C43.2247311,24.0424962 43.5503527,24.3681178 43.9537467,24.3681178 L46.2379622,24.3681178 Z" id="Fill-6"></path>
                    <path d="M42.84576,35.5680461 C43.1932477,35.7697369 43.6379167,35.6506645 43.8396572,35.3031769 C44.041348,34.9556892 43.9222757,34.5110202 43.574788,34.3092796 L41.5967602,33.167203 C41.2492726,32.9655122 40.8046035,33.0845845 40.602863,33.4320722 C40.4011722,33.7795599 40.5202446,34.2242289 40.8677322,34.4259694 L42.84576,35.5680461 Z" id="Fill-7"></path>
                    <path d="M34.3089562,43.5748378 C34.5106469,43.9223254 34.9553595,44.0413978 35.3028534,43.839707 C35.650341,43.6380162 35.7694134,43.1933037 35.5677226,42.8458098 L34.4256459,40.867782 C34.2239551,40.5202943 33.7792426,40.401222 33.4317487,40.6029128 C33.084261,40.8046035 32.9651887,41.2493161 33.1668795,41.59681 L34.3089562,43.5748378 Z" id="Fill-8"></path>
                    <path d="M22.9099622,46.2379622 C22.9099622,46.6413438 23.2355838,46.9669778 23.6389778,46.9669778 C24.0423718,46.9669778 24.3679933,46.6413562 24.3679933,46.2379622 L24.3679933,43.9537467 C24.3679933,43.5503651 24.0423718,43.2247311 23.6389778,43.2247311 C23.2355838,43.2247311 22.9099622,43.5503527 22.9099622,43.9537467 L22.9099622,46.2379622 Z" id="Fill-9"></path>
                    <path d="M11.7100339,42.84576 C11.5083431,43.1932477 11.6274155,43.6379167 11.9749031,43.8396572 C12.3223908,44.041348 12.7670598,43.9222757 12.9688004,43.574788 L14.110877,41.5967602 C14.3125678,41.2492726 14.1934955,40.8046035 13.8460078,40.602863 C13.4985201,40.4011722 13.0538511,40.5202446 12.8521106,40.8677322 L11.7100339,42.84576 Z" id="Fill-10"></path>
                    <path d="M3.70324224,34.3089562 C3.35575457,34.5106469 3.23668224,34.9553595 3.43837302,35.3028534 C3.6400638,35.650341 4.08477635,35.7694134 4.43227023,35.5677226 L6.41029801,34.4256459 C6.75778568,34.2239551 6.87685801,33.7792426 6.67516723,33.4317487 C6.47347645,33.084261 6.0287639,32.9651887 5.68127002,33.1668795 L3.70324224,34.3089562 Z" id="Fill-11"></path>
                    <path d="M1.04011776,22.9099622 C0.636736205,22.9099622 0.311102208,23.2355838 0.311102208,23.6389778 C0.311102208,24.0423718 0.636723763,24.3679933 1.04011776,24.3679933 L3.32433331,24.3679933 C3.72771487,24.3679933 4.05334886,24.0423718 4.05334886,23.6389778 C4.05334886,23.2355838 3.72772731,22.9099622 3.32433331,22.9099622 L1.04011776,22.9099622 Z" id="Fill-12"></path>
                    <path d="M4.43232,11.7100339 C4.08483233,11.5083431 3.64016333,11.6274155 3.43842278,11.9749031 C3.23673201,12.3223908 3.35580434,12.7670598 3.70329201,12.9688004 L5.68131978,14.110877 C6.02880745,14.3125678 6.47347645,14.1934955 6.675217,13.8460078 C6.87690778,13.4985201 6.75783544,13.0538511 6.41034778,12.8521106 L4.43232,11.7100339 Z" id="Fill-13"></path>
                    <path d="M12.9691238,3.70324224 C12.7674331,3.35575457 12.3227205,3.23668224 11.9752266,3.43837302 C11.627739,3.6400638 11.5086666,4.08477635 11.7103574,4.43227023 L12.8524341,6.41029801 C13.0541249,6.75778568 13.4988374,6.87685801 13.8463313,6.67516723 C14.193819,6.47347645 14.3128913,6.0287639 14.1112005,5.68127002 L12.9691238,3.70324224 Z" id="Fill-14"></path>
                </g>
            </g>
        </g>
    </g>
</svg>