<?xml version="1.0" encoding="UTF-8"?>
<svg width="55px" height="60px" viewBox="0 0 55 60" version="1.1" xmlns="http://www.w3.org/2000/svg" xmlns:xlink="http://www.w3.org/1999/xlink">
    <!-- Generator: sketchtool 59.1 (101010) - https://sketch.com -->
    <title>3B801F98-22A2-41F3-B4B6-A022EBFB4E20</title>
    <desc>Created with sketchtool.</desc>
    <g id="Assets-and-UI-Elements" stroke="none" stroke-width="1" fill="none" fill-rule="evenodd">
        <g id="Assest-ans-UI-Element" transform="translate(-603.000000, -185.000000)" fill="#8AB7D9" stroke="#FFFFFF" stroke-width="0.8">
            <path d="M653.789754,203.753925 L652.101031,205.433281 C655.642176,210.078926 657.359436,215.829551 656.937195,221.624125 C656.517376,227.418938 653.984238,232.868265 649.805117,236.969491 C645.628303,241.070954 640.087614,243.54915 634.200887,243.946178 C633.641129,243.981213 633.088511,243.99995 632.538213,243.99995 C625.610151,244.013913 618.999651,241.124676 614.364954,236.053959 C613.826544,235.43737 613.885843,234.512426 614.497777,233.968187 C615.109705,233.423972 616.051339,233.461343 616.618213,234.049937 C621.696343,239.587819 629.366818,242.07301 636.793385,240.591929 C644.219344,239.108755 650.298551,233.877134 652.789253,226.82989 C655.277344,219.780851 653.804418,211.963469 648.913667,206.263967 C648.401349,205.668371 648.439299,204.787788 648.999051,204.236613 L651.646044,201.629982 C652.030281,201.211895 652.013681,200.569607 651.610463,200.172519 C651.204876,199.773117 650.552612,199.75677 650.128064,200.135148 L647.376755,202.844504 L647.379129,202.844504 C646.843094,203.370034 645.996371,203.428422 645.393915,202.979972 C642.346114,200.730726 638.745768,199.322293 634.959926,198.901886 C634.191463,198.820137 633.607952,198.182513 633.607952,197.421044 L633.607952,192.600205 C633.600835,192.200804 633.757376,191.813086 634.041997,191.528111 C634.328992,191.243159 634.717984,191.081998 635.125956,191.081998 L636.51588,191.081998 C637.108839,191.081998 637.590306,190.607855 637.590306,190.023955 C637.590306,189.440037 637.108821,188.965912 636.51588,188.965912 L628.548912,188.965912 C627.955953,188.965912 627.474486,189.440055 627.474486,190.023955 C627.474486,190.607873 627.955971,191.081998 628.548912,191.081998 L629.938836,191.081998 C630.342048,191.081998 630.728671,191.238489 631.013262,191.518771 C631.297853,191.799052 631.456798,192.179786 631.456798,192.576814 L631.456798,197.421032 C631.456798,198.180109 630.875697,198.817745 630.10956,198.901874 C625.202233,199.455429 620.638578,201.657989 617.187905,205.140713 C616.599688,205.731638 615.636711,205.740978 615.036623,205.161736 C614.436548,204.58015 614.427063,203.631863 615.015275,203.040926 C618.632318,199.401962 623.324091,196.979674 628.420862,196.122835 L628.420862,194.072102 C626.279113,193.880578 624.65202,192.096111 624.685234,189.977633 C624.718441,187.861487 626.402434,186.126104 628.548979,186 L636.515946,186 C638.662492,186.126128 640.346478,187.861546 640.379692,189.977633 C640.412899,192.096111 638.783445,193.880524 636.644064,194.072102 L636.644064,196.099456 C640.035778,196.664688 643.270958,197.930627 646.133869,199.813161 L647.955445,198.01936 C649.558797,196.435793 652.163104,196.435793 653.768824,198.014691 C655.374543,199.595926 655.376912,202.15819 653.771198,203.741757 L653.789754,203.753925 Z M604,212.232623 C604,212.627354 604.158914,213.008083 604.443536,213.288334 C604.730531,213.568615 605.114786,213.727444 605.517962,213.727444 L616.058212,213.727444 C616.897837,213.727444 617.576192,213.057101 617.576192,212.232611 C617.576192,211.405788 616.897837,210.737777 616.058212,210.737777 L605.524641,210.737777 C604.687384,210.737777 604.009029,211.403456 604.006661,212.225615 L604,212.232623 Z M621.257616,219.477783 C621.257616,219.083051 621.096334,218.702323 620.811706,218.422071 C620.527079,218.14182 620.140455,217.982961 619.739648,217.982961 L609.203651,217.982961 C608.364026,217.982961 607.685671,218.653304 607.685671,219.477795 C607.685671,220.304617 608.364026,220.972629 609.203651,220.972629 L619.739648,220.972629 C620.140492,220.972629 620.527115,220.816137 620.811706,220.535856 C621.096297,220.255575 621.257616,219.874841 621.257616,219.477813 L621.257616,219.477783 Z M605.525267,228.227344 L616.058837,228.227344 C616.898463,228.227344 617.576818,227.557001 617.576818,226.73251 C617.576818,225.905688 616.898463,225.237676 616.058837,225.237676 L605.525267,225.237676 C604.685642,225.237676 604.007287,225.905688 604.007287,226.73251 C604.007287,227.557001 604.685642,228.227344 605.525267,228.227344 Z M640.953713,213.70892 L637.06149,217.541794 C638.245029,219.751337 637.607016,222.481741 635.564883,223.962404 C633.522714,225.445578 630.688402,225.235344 628.895485,223.467243 C627.100018,221.701486 626.88653,218.910332 628.392657,216.899541 C629.896429,214.888512 632.669111,214.260203 634.912686,215.425755 L638.804909,211.592882 C639.397868,211.008964 640.360839,211.008964 640.953822,211.592882 C641.546782,212.1768 641.546782,213.125086 640.953822,213.709028 L640.953713,213.70892 Z M634.615848,219.891553 C634.615848,219.062398 634.108266,218.314982 633.330295,217.9973 C632.549932,217.679647 631.655781,217.854824 631.060429,218.44108 C630.462721,219.027336 630.284862,219.910202 630.607409,220.676335 C630.929955,221.442467 631.688939,221.942279 632.530993,221.942279 C633.681319,221.939942 634.611112,221.022 634.615848,219.891547 L634.615848,219.891553 Z M632.530987,237.680374 C638.569695,237.689414 644.214577,234.727778 647.572957,229.78795 C650.933887,224.848003 651.567127,218.583872 649.259312,213.087667 C646.953864,207.591821 642.010652,203.595473 636.090529,202.434884 C630.168039,201.271724 624.048696,203.100563 619.779528,207.304754 C619.186569,207.891009 619.186569,208.836958 619.779528,209.423232 C620.374862,210.00715 621.335458,210.00715 621.93081,209.423232 C624.748546,206.641466 628.574099,205.076554 632.566387,205.074222 C636.555821,205.071884 640.383985,206.632138 643.206214,209.40924 C646.028685,212.188674 647.61546,215.956014 647.61546,219.886829 C647.61546,223.815432 646.028685,227.582831 643.206214,230.362624 C640.383742,233.139726 636.555639,234.699974 632.566387,234.697642 C628.574584,234.695304 624.748788,233.130399 621.93081,230.350965 C621.335476,229.764709 620.37488,229.764709 619.779528,230.350965 C619.186569,230.934883 619.186569,231.883169 619.779528,232.467111 C623.159402,235.802444 627.746496,237.677982 632.530562,237.680374 L632.530987,237.680374 Z" id="Fill-1-2"></path>
        </g>
    </g>
</svg>