<?xml version="1.0" encoding="UTF-8"?>
<svg width="63px" height="59px" viewBox="0 0 63 59" version="1.1" xmlns="http://www.w3.org/2000/svg" xmlns:xlink="http://www.w3.org/1999/xlink">
    <!-- Generator: sketchtool 59.1 (101010) - https://sketch.com -->
    <title>C4D56E97-09BD-47A1-A2E8-80DDB00803E8</title>
    <desc>Created with sketchtool.</desc>
    <g id="Assets-and-UI-Elements" stroke="none" stroke-width="1" fill="none" fill-rule="evenodd">
        <g id="Assest-ans-UI-Element" transform="translate(-724.000000, -185.000000)" fill="#8AB7D9">
            <g id="Group-2-4" transform="translate(720.000000, 186.000000)">
                <path d="M63.201868,17.6314846 L61.5195179,19.2992589 C65.0472994,23.9128643 66.7580798,29.6238303 66.3374318,35.3784414 C65.9191973,41.13329 63.3956177,46.5450352 59.232267,50.6179768 C55.0712149,54.6911548 49.5514346,57.152259 43.6869213,57.5465493 C43.1292754,57.581343 42.5787431,57.59995 42.0305215,57.59995 C35.1286034,57.6138173 28.5430484,54.7445056 23.9258405,49.708759 C23.3894629,49.0964223 23.4485375,48.1778579 24.0581626,47.6373721 C24.6677816,47.0969102 25.6058618,47.1340233 26.1705972,47.7185578 C31.229564,53.2182481 38.8710944,55.6862999 46.269636,54.2154329 C53.6675728,52.7424877 59.7238396,47.5469468 62.2051427,40.5483041 C64.6838447,33.5478801 63.2164764,25.7844104 58.3441819,20.1242151 C57.8337968,19.5327271 57.8716031,18.6582174 58.429243,18.1108435 L61.0662476,15.5221889 C61.4490349,15.1069852 61.4324969,14.4691266 61.0308004,14.0747775 C60.6267448,13.6781303 59.9769422,13.6618956 59.5539956,14.0376643 L56.8130691,16.7283354 L56.8154343,16.7283354 C56.2814218,17.2502408 55.4378937,17.3082264 54.8377111,16.862869 C51.8014115,14.6291346 48.2146522,13.2304155 44.4430957,12.8129078 C43.6775333,12.7317221 43.0962236,12.0984952 43.0962236,11.3422784 L43.0962236,6.55468666 C43.0891342,6.15803951 43.2450837,5.7729954 43.5286309,5.48998564 C43.8145433,5.20699963 44.202067,5.04695006 44.6084998,5.04695006 L45.9931782,5.04695006 C46.5839002,5.04695006 47.0635502,4.57607668 47.0635502,3.99620357 C47.0635502,3.41631264 46.583882,2.94545708 45.9931782,2.94545708 L38.0562748,2.94545708 C37.4655529,2.94545708 36.9859029,3.41633046 36.9859029,3.99620357 C36.9859029,4.5760945 37.4655711,5.04695006 38.0562748,5.04695006 L39.4409533,5.04695006 C39.8426437,5.04695006 40.2278082,5.20236197 40.5113252,5.48071033 C40.7948422,5.75905868 40.9531871,6.13716709 40.9531871,6.53145682 L40.9531871,11.3422665 C40.9531871,12.0961081 40.3742789,12.7293469 39.6110332,12.8128959 C34.722225,13.3626332 30.1757905,15.550003 26.7381393,19.0087077 C26.1521416,19.5955581 25.1927992,19.6048334 24.5949758,19.0295861 C23.9971644,18.452011 23.9877158,17.5102642 24.5737074,16.923402 C28.1771015,13.3095347 32.85117,10.9039517 37.9287073,10.0530223 L37.9287073,8.01643269 C35.7950407,7.82622946 34.174088,6.05406935 34.2071761,3.95020112 C34.2402581,1.84864876 35.9178961,0.125234493 38.0563414,0 L45.9932448,0 C48.1316901,0.125258245 49.809322,1.84870814 49.84241,3.95020112 C49.8754921,6.05406935 48.2521863,7.82617602 46.1208788,8.01643269 L46.1208788,10.0298043 C49.4997942,10.5911387 52.7227662,11.8483469 55.5748734,13.7178978 L57.3895758,11.9364683 C58.9868769,10.3638223 61.5813569,10.3638223 63.1810171,11.9318306 C64.7806772,13.5021607 64.7830364,16.0467546 63.1833822,17.6194005 L63.201868,17.6314846 Z" id="Path" stroke="#FFFFFF" stroke-width="0.8"></path>
                <path d="M42.0233232,51.3239573 C48.0392431,51.3329357 53.6628244,48.3917244 57.0085307,43.4859645 C60.3567776,38.5800858 60.9876286,32.3591559 58.6885217,26.900856 C56.3917738,21.4429123 51.4672159,17.474125 45.5694331,16.3215401 C39.6692912,15.1664018 33.5730405,16.9826286 29.3199829,21.1578242 C28.729261,21.740037 28.729261,22.6794619 29.3199829,23.2616925 C29.91307,23.8415834 30.8700412,23.8415834 31.4631465,23.2616925 C34.2702491,20.499111 38.0813661,18.9449919 42.0585889,18.942676 C46.0329686,18.9403543 49.8466867,20.4898476 52.6582656,23.2477973 C55.4700865,26.0080629 57.0508737,29.7494211 57.0508737,33.6531269 C57.0508737,37.5546357 55.4700865,41.2960532 52.6582656,44.0566751 C49.8464447,46.8146249 46.0327871,48.3641122 42.0585889,48.3617964 C38.08185,48.3594746 34.2704911,46.8053614 31.4631465,44.0450958 C30.8700594,43.4628831 29.9130882,43.4628831 29.3199829,44.0450958 C28.729261,44.6249868 28.729261,45.5667335 29.3199829,46.1466482 C32.6871028,49.4589788 37.2568863,51.3215821 42.0228997,51.3239573 L42.0233232,51.3239573 Z" id="Path" stroke="#FFFFFF" stroke-width="0.8"></path>
                <g id="Group" transform="translate(20.711557, 34.921956) rotate(-151.000000) translate(-20.711557, -34.921956) translate(5.711557, 20.421956)">
                    <path d="M11.0278493,6.73106176 C11.3950424,6.88226314 11.7838562,6.94706176 12.1726424,6.94706176 C13.9222355,6.94706176 15.3261733,5.52147558 15.3261733,3.79353088 C15.3261733,2.04393779 13.9005871,0.64 12.1726424,0.64 C10.4230493,0.64 9.01911149,2.06558618 9.01911149,3.79353088 C9.01911149,4.63593779 9.36471149,5.45672397 9.96951149,6.03993088 L8.06871149,8.97753088 L8.45749767,9.21513226 C8.63029767,9.32313088 8.75991149,9.45273364 8.84628384,9.62553917 L8.99748523,9.90633226 L11.0278493,6.73106176 Z M10.2934631,3.79346176 C10.2934631,2.75666176 11.13587,1.91425485 12.17267,1.91425485 C13.20947,1.91425485 14.0518769,2.75666176 14.0518769,3.79346176 C14.0518769,4.83026176 13.20947,5.67266867 12.17267,5.67266867 C11.13587,5.67266867 10.2934631,4.83026176 10.2934631,3.79346176 Z" id="Fill-1" transform="translate(11.697442, 5.273166) rotate(-71.000000) translate(-11.697442, -5.273166) "></path>
                    <path d="M29.521002,7.94677682 C29.434602,7.10436991 29.0241951,6.34839064 28.3762089,5.82999064 C27.7281951,5.28999755 26.9074089,5.05239064 26.065002,5.13879064 C25.2225951,5.22519064 24.4666158,5.63559755 23.9482158,6.28358373 L21.3346227,4.79319064 L21.2266241,4.83639064 C20.9890227,5.00919064 20.773031,5.26839064 20.6218241,5.57077682 L20.5354241,5.76517543 L23.343355,7.38518235 C23.2353564,7.77396852 23.1921536,8.16278235 23.2353564,8.57318926 C23.3217564,9.41559617 23.7321633,10.1715754 24.3801495,10.6899754 C24.9417357,11.1435685 25.6329357,11.4027685 26.3673495,11.4027685 C26.4753481,11.4027685 26.5833495,11.4027685 26.6913564,11.3811671 C27.5337633,11.2947671 28.2897426,10.8843602 28.8081426,10.2363741 C29.3697287,9.60998096 29.6073357,8.78916714 29.5209357,7.94678788 L29.521002,7.94677682 Z M26.583402,10.1499906 C26.0865951,10.214792 25.5897882,10.0635906 25.201002,9.73958373 C24.8122158,9.41557682 24.5746089,8.96198373 24.509802,8.46517682 C24.466602,7.96836991 24.596202,7.47156299 24.9202089,7.08277682 C25.2442158,6.69399064 25.6978089,6.45638373 26.1946158,6.39157682 L26.3890145,6.39157682 C27.3610075,6.39157682 28.1602006,7.12596299 28.2682214,8.07639064 C28.37622,9.11319064 27.6202075,10.0419976 26.5834075,10.1499906 L26.583402,10.1499906 Z" id="Fill-2" transform="translate(25.036820, 8.097980) rotate(-71.000000) translate(-25.036820, -8.097980) "></path>
                    <path d="M26.1313638,20.6062648 C25.9801624,20.4550634 25.8937624,20.2822579 25.8505707,20.0878648 C25.8289721,19.9582648 25.7425721,19.8718648 25.6129693,19.8286648 C25.5049707,19.7854648 25.3753679,19.8286648 25.2889624,19.8934662 L23.1721762,21.9022593 C22.8265762,21.6862593 22.4593831,21.5350662 22.0705693,21.4702593 C21.2497555,21.3190579 20.4073762,21.4918579 19.6945555,21.9670662 C19.0033555,22.44228 18.5281417,23.1550731 18.3553417,23.9758593 C18.0313348,25.6822662 19.1545348,27.3455967 20.8609417,27.669355 C21.0553403,27.712555 21.2497279,27.7341564 21.4657417,27.7341564 C22.9777555,27.7341564 24.2736726,26.6541703 24.5761417,25.1637501 C24.7273431,24.3429362 24.5545431,23.500557 24.0793348,22.809357 L26.2609279,20.7573501 L26.1313638,20.6062648 Z M21.4873292,26.4383331 C21.3793306,26.4383331 21.2497279,26.4167331 21.1417292,26.3951331 C20.1265223,26.2007353 19.4569154,25.207127 19.6513361,24.1919201 C19.7377361,23.6951132 20.0185292,23.2631132 20.4505292,22.9823201 C20.7745361,22.7663201 21.1201361,22.6583132 21.5089223,22.6583132 C21.6385223,22.6583132 21.7465237,22.6799118 21.8761154,22.7015132 C22.8913223,22.8959118 23.5609292,23.8895201 23.3665085,24.904727 C23.1505085,25.7903201 22.3728947,26.4383331 21.4873016,26.4383331 L21.4873292,26.4383331 Z" id="Fill-3" transform="translate(22.280294, 23.772716) rotate(-71.000000) translate(-22.280294, -23.772716) "></path>
                    <path d="M6.65174611,20.4371876 L11.4901461,24.9515531 C11.5333461,24.9947531 11.5981447,25.0163544 11.6629461,25.0163544 C11.7061461,25.0163544 11.7493461,25.0163544 11.7925461,24.9947531 C11.9005447,24.9515531 11.9437475,24.8435517 11.9221461,24.7355531 L11.9221461,24.7139544 C11.8789461,24.4331614 11.9221461,24.1739614 12.0733475,23.9579475 L12.1597475,23.8283475 L7.42945117,19.4436512 C7.60225117,19.0764581 7.71024426,18.6876443 7.75345808,18.2556443 C7.81825947,17.4132374 7.53745808,16.5924512 6.97585808,15.9660581 C6.41425808,15.339665 5.658265,14.9508512 4.81585808,14.8860719 C3.97345117,14.8212927 3.15266527,15.1020719 2.52627191,15.6636719 C1.89987882,16.2252719 1.511065,16.981265 1.44628573,17.8236719 C1.33828725,19.5516719 2.63429264,21.0637411 4.38388573,21.1934102 C5.22629264,21.2582116 6.02548573,20.9774102 6.65187882,20.4374033 L6.65174611,20.4371876 Z M3.17418067,19.2923945 C2.85017376,18.9036084 2.67737376,18.4283945 2.72058758,17.9315876 C2.76380141,17.4347807 2.97978758,16.9811876 3.36860141,16.6355876 C3.73579449,16.3115807 4.25419449,16.1387807 4.72940832,16.1819945 C5.22621523,16.2251945 5.67980832,16.4411945 6.02540832,16.8300084 C6.37100832,17.2188222 6.52221523,17.6940084 6.47900141,18.1908153 C6.41420002,19.2276153 5.50700832,20.0052153 4.47020832,19.9404084 C3.97340141,19.8972084 3.51980832,19.6596153 3.17420832,19.2923945 L3.17418067,19.2923945 Z" id="Fill-4" transform="translate(6.799874, 19.946632) rotate(-71.000000) translate(-6.799874, -19.946632) "></path>
                    <path d="M22.2104757,15.1401898 C22.2752771,15.1185912 22.3616771,15.0969898 22.4048743,15.0105898 C22.4264729,14.9673898 22.4264729,14.9241898 22.4264729,14.8809898 C22.4480743,14.5137967 22.4480743,14.1249829 22.4480743,13.7793829 C22.4480743,13.6497829 22.3832729,13.5633829 22.2752743,13.5201829 C21.6920674,13.3041829 21.2600674,12.936976 20.9576812,12.353769 C20.6552951,11.7705621 20.5688951,11.230569 20.6984812,10.690576 C20.7416812,10.5393746 20.6768799,10.431376 20.5688812,10.366569 L20.2448743,10.1721704 L20.1800729,10.1289704 L19.6616729,9.80496352 C19.5320729,9.71856352 19.4024729,9.76176352 19.3592591,9.7833649 C19.3376577,9.80496352 19.2944577,9.8265649 19.2728591,9.84816628 L19.2512577,9.8697649 C19.1432591,9.9561649 19.0352577,10.0425649 18.9056577,10.1073663 C18.8624577,10.1289677 18.7976591,10.1505663 18.7544564,10.1721677 C18.3008633,10.323369 17.8688633,10.409769 17.5016702,10.3881677 C16.9832702,10.366569 16.5080564,10.1505663 16.076084,9.78336767 C15.946484,9.65376767 15.816884,9.67536905 15.7088909,9.74016767 C15.4064799,9.91296767 15.1040909,10.0857677 14.780084,10.2585677 C14.650484,10.323369 14.607284,10.4313677 14.6288826,10.5825746 C14.8016826,11.5545677 14.434484,12.3537608 13.5488964,13.0665815 C13.5056964,13.1097815 13.4624964,13.1313829 13.4192964,13.1529815 C13.2896964,13.2177829 13.1600964,13.2609801 13.0305103,13.3041829 L12.9873103,13.3257843 C12.9441103,13.3473829 12.9225089,13.3473829 12.9009103,13.3689843 C12.7929116,13.4337856 12.7497089,13.5201856 12.7497089,13.6497773 L12.7497089,14.2545773 L12.7497089,14.2977773 L12.7497089,14.7081843 C12.7497089,14.8593856 12.8145103,14.9457856 12.9657089,15.0105981 C13.4841089,15.1833981 13.8945158,15.5505912 14.2401158,16.112205 C14.5641227,16.6737912 14.6721158,17.2569981 14.5425296,17.8617981 C14.520931,17.9913981 14.564131,18.0777981 14.6721296,18.1642119 C15.0177296,18.3802119 15.3201434,18.5529981 15.6225296,18.7257981 C15.6657296,18.7473967 15.7089296,18.7689981 15.773731,18.7689981 C15.816931,18.7689981 15.860131,18.7689981 15.903331,18.7473967 C15.9249324,18.7257981 15.9681324,18.7041967 15.989731,18.6825953 C16.0977296,18.5745967 16.205731,18.4881967 16.335331,18.4233953 C16.7457379,18.2073953 17.285731,18.0993884 17.8473448,18.1641953 C18.4089586,18.2290022 18.9057379,18.4233953 19.1865586,18.7257815 C19.2297586,18.7689815 19.2945573,18.8337801 19.4025586,18.8337801 C19.46736,18.8337801 19.5321586,18.8121815 19.6185586,18.7689787 C19.7913586,18.6825787 19.9425656,18.5961787 20.0505586,18.5313773 C20.1585517,18.466576 20.3097586,18.380176 20.4825586,18.293776 C20.6985586,18.1857773 20.6769573,18.034576 20.6553586,17.9049898 C20.54736,17.4945829 20.63376,16.9761829 20.8713586,16.4577829 C21.10896,15.960976 21.4977517,15.5505967 21.9081586,15.3129898 C21.92976,15.2265898 22.05936,15.1833898 22.2105725,15.1401898 L22.2104757,15.1401898 Z M18.5601103,16.047376 C18.2145103,16.2417746 17.8041034,16.328169 17.4153172,16.306576 C16.7241172,16.263376 16.1193172,15.896169 15.7737172,15.3129621 C15.4713034,14.8161552 15.384931,14.232976 15.5361158,13.6929552 C15.6873006,13.1529345 16.0329227,12.6993414 16.5513227,12.4185483 C16.8969227,12.2241497 17.2857089,12.1377552 17.6745227,12.1593483 C17.8257241,12.1593483 17.9985296,12.2025483 18.1497365,12.2457483 C18.6897296,12.4185483 19.1433504,12.7857414 19.4025227,13.3041414 C19.9209227,14.2761345 19.5537241,15.5073552 18.5601158,16.0473483 L18.5601103,16.047376 Z" id="Fill-5" stroke="#FFFFFF" stroke-width="0.5" transform="translate(17.598892, 14.261210) rotate(-71.000000) translate(-17.598892, -14.261210) "></path>
                    <path d="M18.6172652,13.6985971 C19.3981,15.1090875 17.2813138,16.280865 16.500479,14.8704023 C15.7196442,13.4588337 17.8353521,12.2870285 18.6172652,13.6985971" id="Fill-6" transform="translate(17.558841, 14.284142) rotate(-71.000000) translate(-17.558841, -14.284142) "></path>
                </g>
            </g>
        </g>
    </g>
</svg>