<?xml version="1.0" encoding="UTF-8"?>
<svg width="107px" height="107px" viewBox="0 0 107 107" version="1.1" xmlns="http://www.w3.org/2000/svg" xmlns:xlink="http://www.w3.org/1999/xlink">
    <!-- Generator: sketchtool 59.1 (101010) - https://sketch.com -->
    <title>F6C31935-1973-4D53-A799-215E872B1D61</title>
    <desc>Created with sketchtool.</desc>
    <g id="Assets-and-UI-Elements" stroke="none" stroke-width="1" fill="none" fill-rule="evenodd">
        <g id="Assest-ans-UI-Element" transform="translate(-309.000000, -661.000000)">
            <g id="Group-2-2" transform="translate(309.000000, 661.000000)">
                <circle id="Oval" fill="#F0F0F0" cx="53.4" cy="53.4" r="53.4"></circle>
                <g id="Group" transform="translate(74.436000, 65.058000)" fill="#FFFFFF" fill-rule="nonzero">
                    <path d="M1.764,8.736 C0.8358,8.736 0.126,8.0262 0.126,7.098 L0.126,1.638 C0.126,0.7098 0.8358,0 1.764,0 C2.6922,0 3.402,0.7098 3.402,1.638 L3.402,7.098 C3.402,8.0262 2.6922,8.736 1.764,8.736 Z" id="Path"></path>
                    <path d="M1.764,14.196 C1.6548,14.196 1.5456,14.196 1.4364,14.1414 C1.3272,14.1414 1.218,14.0868 1.1088,14.0322 C0.9996,13.9776 0.945,13.923 0.8358,13.8684 C0.7266,13.8138 0.672,13.7592 0.6174,13.65 C0.5628,13.5954 0.4536,13.4862 0.399,13.4316 C0.3444,13.3224 0.2898,13.2678 0.2352,13.1586 C0.1806,13.0494 0.1806,12.9402 0.126,12.831 C0.126,12.7218 0.0714,12.6126 0.0714,12.5034 C0.0714,12.3942 0.0714,12.285 0.126,12.1758 C0.126,12.0666 0.1806,11.9574 0.2352,11.8482 C0.2898,11.739 0.3444,11.6844 0.399,11.5752 C0.4536,11.466 0.5082,11.4114 0.6174,11.3568 C0.9996,10.9746 1.5456,10.8108 2.0916,10.92 C2.2008,10.92 2.31,10.9746 2.4192,11.0292 C2.5284,11.0838 2.6376,11.1384 2.6922,11.193 C2.8014,11.2476 2.856,11.3022 2.9106,11.4114 C3.2382,11.739 3.402,12.1212 3.402,12.558 C3.402,12.9948 3.2382,13.4316 2.9106,13.7046 C2.856,13.7592 2.7468,13.8684 2.6922,13.923 C2.583,13.9776 2.5284,14.0322 2.4192,14.0868 C2.31,14.1414 2.2008,14.1414 2.0916,14.196 C1.9824,14.196 1.8732,14.196 1.764,14.196 Z" id="Path"></path>
                </g>
                <g id="Group" transform="translate(55.326000, 56.322000)" fill-rule="nonzero">
                    <path d="M28.245,20.9664 L16.6698,1.6926 C16.1784,0.8736 15.3048,0.3822 14.322,0.3822 C13.3392,0.3822 12.4656,0.8736 11.9742,1.6926 L0.399,20.9664 C-0.0924,21.84 -0.147,22.8228 0.3444,23.6964 C0.8358,24.57 1.7094,25.0614 2.7468,25.0614 L25.8426,25.0614 C26.8254,25.0614 27.7536,24.57 28.245,23.6964 C28.7364,22.8774 28.7364,21.84 28.245,20.9664 Z" id="Path" fill="#012947"></path>
                    <path d="M14.322,15.834 C13.3938,15.834 12.684,15.1242 12.684,14.196 L12.684,8.736 C12.684,7.8078 13.3938,7.098 14.322,7.098 C15.2502,7.098 15.96,7.8078 15.96,8.736 L15.96,14.196 C15.96,15.1242 15.2502,15.834 14.322,15.834 Z" id="Path" fill="#FFFFFF"></path>
                    <path d="M14.322,21.294 C13.8852,21.294 13.4484,21.1302 13.1754,20.8026 C13.1208,20.748 13.0116,20.6388 12.957,20.5296 C12.9024,20.4204 12.8478,20.3658 12.7932,20.2566 C12.7386,20.1474 12.7386,20.0382 12.684,19.929 C12.684,19.8198 12.6294,19.7106 12.6294,19.6014 C12.6294,19.1646 12.7932,18.7278 13.1208,18.4548 C13.7214,17.8542 14.8134,17.8542 15.414,18.4548 C15.7416,18.7824 15.9054,19.1646 15.9054,19.6014 C15.9054,19.7106 15.9054,19.8198 15.8508,19.929 C15.8508,20.0382 15.7962,20.1474 15.7416,20.2566 C15.687,20.3658 15.6324,20.475 15.5778,20.5296 C15.5232,20.6388 15.4686,20.6934 15.3594,20.8026 C15.1956,21.1302 14.7588,21.294 14.322,21.294 Z" id="Path" fill="#FFFFFF"></path>
                </g>
                <path d="M51.63,69.426 L34.158,69.426 C27.2238,69.426 21.6,63.8022 21.6,56.868 C21.6,49.9338 27.2238,44.31 34.158,44.31 L35.25,44.31 L35.25,43.218 C35.25,33.2808 43.3308,25.2 53.268,25.2 C63.2052,25.2 71.286,33.2808 71.286,43.218 L71.286,44.31 L72.378,44.31 C79.3122,44.31 84.936,49.9338 84.936,56.868 C84.936,58.0146 84.7722,59.1066 84.4992,60.1986 C84.2808,61.0722 83.3526,61.5636 82.479,61.3452 C81.6054,61.1268 81.114,60.1986 81.3324,59.325 C81.5508,58.506 81.66,57.687 81.66,56.868 C81.66,51.7356 77.5104,47.586 72.378,47.586 L69.648,47.586 C68.7198,47.586 68.01,46.8762 68.01,45.948 L68.01,43.218 C68.01,35.0826 61.4034,28.476 53.268,28.476 C45.1326,28.476 38.526,35.0826 38.526,43.218 L38.526,45.948 C38.526,46.8762 37.8162,47.586 36.888,47.586 L34.158,47.586 C29.0256,47.586 24.876,51.7356 24.876,56.868 C24.876,62.0004 29.0256,66.15 34.158,66.15 L51.63,66.15 C52.5582,66.15 53.268,66.8598 53.268,67.788 C53.268,68.7162 52.5582,69.426 51.63,69.426 Z" id="Path" fill="#8AB7D9" fill-rule="nonzero"></path>
            </g>
        </g>
    </g>
</svg>