<?xml version="1.0" encoding="UTF-8"?>
<svg width="49px" height="50px" viewBox="0 0 49 50" version="1.1" xmlns="http://www.w3.org/2000/svg" xmlns:xlink="http://www.w3.org/1999/xlink">
    <!-- Generator: sketchtool 59.1 (101010) - https://sketch.com -->
    <title>EC19D8A1-5400-4B5A-AA4B-AB082C75C599</title>
    <desc>Created with sketchtool.</desc>
    <g id="Assets-and-UI-Elements" stroke="none" stroke-width="1" fill="none" fill-rule="evenodd">
        <g id="Assest-ans-UI-Element" transform="translate(-146.000000, -190.000000)" fill="#8AB7D9" stroke="#8AB7D9" stroke-width="0.75">
            <g id="Group-11-2" transform="translate(147.000000, 191.000000)">
                <path d="M16.0985155,37.0087654 L0.7875,37.0087654 C0.35240688,37.0087654 -4.609646e-13,36.6563585 -4.609646e-13,36.2212654 C-4.609646e-13,35.7861722 0.35240688,35.4337654 0.7875,35.4337654 L15.3107635,35.4337654 L15.3107635,21.4951414 C15.3107635,21.0600482 15.6631704,20.7076414 16.0982635,20.7076414 C16.5333566,20.7076414 16.8857635,21.0600482 16.8857635,21.4951414 L16.8857635,36.2215174 C16.8857635,36.6566105 16.5333566,37.0090174 16.0982635,37.0090174 L16.0985155,37.0087654 Z" id="Fill-1"></path>
                <path d="M44.9545315,37.0087654 L28.6022515,37.0087654 C28.1671584,37.0087654 27.8147515,36.6563585 27.8147515,36.2212654 L27.8147515,21.4948894 C27.8147515,21.0597962 28.1671584,20.7073894 28.6022515,20.7073894 C29.0373446,20.7073894 29.3897515,21.0597962 29.3897515,21.4948894 L29.3897515,35.4335134 L44.9547835,35.4335134 C45.3898766,35.4335134 45.7422835,35.7859202 45.7422835,36.2210134 C45.7422835,36.6561065 45.3898766,37.0085134 44.9547835,37.0085134 L44.9545315,37.0087654 Z" id="Fill-2"></path>
                <path d="M22.3491235,48.1300273 C21.9140304,48.1300273 21.5616235,47.7776205 21.5616235,47.3425273 L21.5616235,21.6879214 C21.5616235,21.2528282 21.9140304,20.9004214 22.3491235,20.9004214 C22.7842166,20.9004214 23.1366235,21.2528282 23.1366235,21.6879214 L23.1366235,47.3425273 C23.1366235,47.7776205 22.7842166,48.1300273 22.3491235,48.1300273 Z" id="Fill-3"></path>
                <path d="M3.2938915,39.3871414 C3.09504838,39.3871414 2.89423462,39.3123276 2.7426163,39.1607345 L0.236375496,36.6958721 C0.086747976,36.5482152 0.002096136,36.3474014 0.000125495999,36.1387001 C0.000125495999,35.9280432 0.082811736,35.7272294 0.230468616,35.5775969 L2.51817502,33.2859593 C2.82530254,32.9768662 3.32341582,32.9788318 3.63246862,33.2859593 C3.93959614,33.5930868 3.94156174,34.0912001 3.63246862,34.4002529 L1.90389982,36.1307873 L3.84510622,38.0404937 C4.15616998,38.3456506 4.16010622,38.8437689 3.85494934,39.1547873 C3.70138558,39.308351 3.49860622,39.3871414 3.29384614,39.3871414 L3.2938915,39.3871414 Z" id="Fill-4"></path>
                <path d="M43.5624835,39.3871817 C43.3577335,39.3871817 43.1549541,39.3083914 43.0013803,39.1508914 C42.6962234,38.8398276 42.7001597,38.3417194 43.0112234,38.0365978 L44.9524298,36.1268914 L43.223861,34.396357 C42.9167335,34.0892294 42.9167335,33.5891506 43.223861,33.2820634 C43.5309885,32.9749409 44.0310674,32.9749409 44.3381546,33.2820634 L46.625861,35.573701 C46.7735179,35.7213578 46.8562041,35.9241372 46.8562041,36.1348042 C46.8562041,36.3434904 46.7695766,36.5462748 46.6199541,36.6919762 L44.1137133,39.1568386 C43.9601496,39.3123679 43.7613065,39.3871817 43.5624381,39.3871817 L43.5624835,39.3871817 Z" id="Fill-5"></path>
                <path d="M22.2488275,48.6244932 C22.0480137,48.6244932 21.8491706,48.5496391 21.6955867,48.398046 L19.3901899,46.1221836 C19.0810968,45.8170267 19.0771605,45.3189084 19.3823124,45.00789 C19.6874693,44.6987969 20.1855876,44.6948606 20.496606,45.0000145 L22.2448812,46.7266177 L24.1821564,44.7972553 C24.4912495,44.4901262 24.9893628,44.4920969 25.29645,44.7992239 C25.6035372,45.1063494 25.6035775,45.6064303 25.2944844,45.9135175 L22.8040188,48.3961207 C22.6524257,48.5477138 22.4496463,48.6244932 22.2488124,48.6244932 L22.2488275,48.6244932 Z" id="Fill-6"></path>
                <path d="M32.0138275,22.2823894 L13.5649075,22.2823894 C9.9699763,22.2823894 7.0441555,19.4355958 7.0441555,15.9370294 C7.0441555,13.6257358 8.3573275,11.4994606 10.4264491,10.3930294 C10.7178216,7.35128856 13.3579147,4.95335736 16.5354331,4.95335736 C17.0256537,4.95335736 17.5375363,5.018328 18.0493987,5.1462936 C18.5888299,3.9079656 19.4708299,2.7660528 20.5891051,1.8722592 C22.1306395,0.6634656 24.0658987,5.39124301e-13 26.0423851,5.39124301e-13 C30.5547475,5.39124301e-13 34.2480091,3.2818968 34.6930411,7.571592 C35.9943691,8.03424888 37.1717131,8.8473168 38.0517475,9.9006264 C39.1877131,11.2295232 39.8118163,12.9344544 39.8118163,14.70042 C39.8118163,18.880092 36.3133507,22.282092 32.0134243,22.282092 L32.0138275,22.2823894 Z M16.5354835,6.52835736 C14.0469835,6.52835736 12.0014491,8.49118536 11.9758459,10.9048918 C11.9719097,11.2139849 11.7888165,11.4915982 11.5072821,11.6175982 C9.75311014,12.3933046 8.61911014,14.0883574 8.61911014,15.9370294 C8.61911014,18.5673046 10.8378693,20.7072886 13.5646101,20.7072886 L32.0120181,20.7072886 C35.4435525,20.7072886 38.2354101,18.0120478 38.2354101,14.6965846 C38.2354101,13.3046878 37.7432239,11.9619814 36.8494101,10.9165846 L36.8435083,10.9106777 C36.0461803,9.95584968 34.9417147,9.24904008 33.7348363,8.91831528 C33.4021157,8.82775152 33.1678363,8.5324428 33.1560427,8.18791848 C33.0221702,4.47878088 29.8957675,1.57291848 26.0410747,1.57291848 C24.4148683,1.57291848 22.8261091,2.11628088 21.5661091,3.10462488 C20.4773683,3.97483128 19.6623499,5.13045288 19.2764371,6.35109048 C19.2114665,6.55584048 19.0657802,6.72711984 18.872844,6.82161984 C18.6799077,6.91611984 18.4554665,6.9279336 18.252672,6.85311984 C17.6778096,6.64049736 17.0832408,6.52827672 16.5359472,6.52827672 L16.5354835,6.52835736 Z" id="Fill-7"></path>
            </g>
        </g>
    </g>
</svg>