<?xml version="1.0" encoding="UTF-8"?>
<svg width="107px" height="107px" viewBox="0 0 107 107" version="1.1" xmlns="http://www.w3.org/2000/svg" xmlns:xlink="http://www.w3.org/1999/xlink">
    <!-- Generator: sketchtool 59.1 (101010) - https://sketch.com -->
    <title>BD5171FC-6C0A-4FB1-9E6C-1535D6D2D25B</title>
    <desc>Created with sketchtool.</desc>
    <g id="Assets-and-UI-Elements" stroke="none" stroke-width="1" fill="none" fill-rule="evenodd">
        <g id="Assest-ans-UI-Element" transform="translate(-37.000000, -661.000000)">
            <g id="Group-2-3" transform="translate(37.000000, 661.000000)">
                <circle id="Oval" fill="#F0F0F0" cx="53.4" cy="53.4" r="53.4"></circle>
                <g id="Group" transform="translate(74.436000, 65.058000)" fill="#FFFFFF" fill-rule="nonzero">
                    <path d="M1.764,8.736 C0.8358,8.736 0.126,8.0262 0.126,7.098 L0.126,1.638 C0.126,0.7098 0.8358,0 1.764,0 C2.6922,0 3.402,0.7098 3.402,1.638 L3.402,7.098 C3.402,8.0262 2.6922,8.736 1.764,8.736 Z" id="Path"></path>
                    <path d="M1.764,14.196 C1.6548,14.196 1.5456,14.196 1.4364,14.1414 C1.3272,14.1414 1.218,14.0868 1.1088,14.0322 C0.9996,13.9776 0.945,13.923 0.8358,13.8684 C0.7266,13.8138 0.672,13.7592 0.6174,13.65 C0.5628,13.5954 0.4536,13.4862 0.399,13.4316 C0.3444,13.3224 0.2898,13.2678 0.2352,13.1586 C0.1806,13.0494 0.1806,12.9402 0.126,12.831 C0.126,12.7218 0.0714,12.6126 0.0714,12.5034 C0.0714,12.3942 0.0714,12.285 0.126,12.1758 C0.126,12.0666 0.1806,11.9574 0.2352,11.8482 C0.2898,11.739 0.3444,11.6844 0.399,11.5752 C0.4536,11.466 0.5082,11.4114 0.6174,11.3568 C0.9996,10.9746 1.5456,10.8108 2.0916,10.92 C2.2008,10.92 2.31,10.9746 2.4192,11.0292 C2.5284,11.0838 2.6376,11.1384 2.6922,11.193 C2.8014,11.2476 2.856,11.3022 2.9106,11.4114 C3.2382,11.739 3.402,12.1212 3.402,12.558 C3.402,12.9948 3.2382,13.4316 2.9106,13.7046 C2.856,13.7592 2.7468,13.8684 2.6922,13.923 C2.583,13.9776 2.5284,14.0322 2.4192,14.0868 C2.31,14.1414 2.2008,14.1414 2.0916,14.196 C1.9824,14.196 1.8732,14.196 1.764,14.196 Z" id="Path"></path>
                </g>
                <g id="icons8-server" transform="translate(36.600000, 17.400000)" fill="#8AB7D9" fill-rule="nonzero" stroke="#8AB7D9" stroke-width="0.6">
                    <path d="M4.4643744,0 C2.0038944,0 0,2.00867075 0,4.47732606 L0,54.2772254 C0,56.7458807 2.0038944,58.7545515 4.4643744,58.7545515 L14.354999,58.7545515 L14.354999,60.8333097 C14.355,61.8853928 15.2552736,62.75172 16.424999,62.9083056 L16.424999,66.7422511 C15.0785299,66.9455861 14.0381242,68.1393621 14.0381242,69.5904319 L1.59749952,69.5904319 C1.33253952,69.5904319 1.11749952,69.7458666 1.11749952,69.9365781 C1.11749952,70.1282528 1.33253952,70.2827243 1.59749952,70.2827243 L14.1281242,70.2827243 C14.4296064,71.5406929 15.5208,72.48 16.8262493,72.48 C18.1325146,72.48 19.2214166,71.5406929 19.5224995,70.2827243 L32.9774995,70.2827243 C33.2424595,70.2827243 33.4574995,70.1272896 33.4574995,69.9365781 C33.4574995,69.7449034 33.2424595,69.5904319 32.9774995,69.5904319 L19.6124995,69.5904319 C19.6124995,68.0872294 18.4961261,66.862276 17.0793744,66.7272012 L17.0793744,62.9158301 C18.2943398,62.7944596 19.244999,61.9132386 19.244999,60.8333097 L19.244999,58.7545515 L29.1374995,58.7545515 C31.5979795,58.7545515 33.6,56.7449619 33.6,54.2753443 L33.6,4.47732606 C33.6,2.00867075 31.5979795,0 29.1374995,0 L4.4643744,0 Z M4.4643744,1.92637874 L29.1374995,1.92637874 C30.5400595,1.92637874 31.68,3.07010543 31.68,4.47732606 L31.68,54.2753443 C31.68,55.682564 30.5400595,56.8262916 29.1374995,56.8262916 L4.4643744,56.8262916 C3.0618144,56.8262916 1.92,55.682564 1.92,54.2753443 L1.92,4.47732606 C1.92,3.07010543 3.0618144,1.92637874 4.4643744,1.92637874 Z M4.32,5.77913621 C4.05503904,5.77913621 3.84,5.99489063 3.84,6.2607309 L3.84,10.1134884 C3.84,10.3793286 4.05503904,10.5950831 4.32,10.5950831 L28.32,10.5950831 C28.58496,10.5950831 28.8,10.3793286 28.8,10.1134884 L28.8,6.2607309 C28.8,5.99489063 28.58496,5.77913621 28.32,5.77913621 L10.08,5.77913621 C9.81503904,5.77913621 9.6,5.99489063 9.6,6.2607309 C9.6,6.52657116 9.81503904,6.74232558 10.08,6.74232558 L27.84,6.74232558 L27.84,9.63189369 L4.8,9.63189369 L4.8,6.74232558 L6.24,6.74232558 C6.50496,6.74232558 6.72,6.52657116 6.72,6.2607309 C6.72,5.99489063 6.50496,5.77913621 6.24,5.77913621 L4.32,5.77913621 Z M4.32,13.4846512 C4.05503904,13.4846512 3.84,13.7004056 3.84,13.9662458 L3.84,17.8190033 C3.84,18.0848436 4.05503904,18.300598 4.32,18.300598 L28.32,18.300598 C28.58496,18.300598 28.8,18.0848436 28.8,17.8190033 L28.8,13.9662458 C28.8,13.7004056 28.58496,13.4846512 28.32,13.4846512 L8.16,13.4846512 C7.89503904,13.4846512 7.68,13.7004056 7.68,13.9662458 C7.68,14.2320861 7.89503904,14.4478405 8.16,14.4478405 L27.84,14.4478405 L27.84,17.3374086 L4.8,17.3374086 L4.8,14.4478405 L6.24,14.4478405 C6.50496,14.4478405 6.72,14.2320861 6.72,13.9662458 C6.72,13.7004056 6.50496,13.4846512 6.24,13.4846512 L4.32,13.4846512 Z M4.32,21.1901661 C4.05503904,21.1901661 3.84,21.4059205 3.84,21.6717608 L3.84,25.5245183 C3.84,25.7903585 4.05503904,26.006113 4.32,26.006113 L19.68,26.006113 C19.94496,26.006113 20.16,25.7903585 20.16,25.5245183 C20.159999,25.258678 19.94496,25.0429236 19.68,25.0429236 L4.8,25.0429236 L4.8,22.1533555 L27.84,22.1533555 L27.84,25.0429236 L26.4,25.0429236 C26.135039,25.0429236 25.92,25.258678 25.92,25.5245183 C25.92,25.7903585 26.135039,26.006113 26.4,26.006113 L28.32,26.006113 C28.58496,26.006113 28.8,25.7903585 28.8,25.5245183 L28.8,21.6717608 C28.8,21.4059205 28.58496,21.1901661 28.32,21.1901661 L4.32,21.1901661 Z M21.6,25.0429236 C21.335039,25.0429236 21.12,25.258678 21.12,25.5245183 C21.12,25.7903585 21.335039,26.006113 21.6,26.006113 L24.48,26.006113 C24.74496,26.006113 24.96,25.7903585 24.96,25.5245183 C24.96,25.258678 24.74496,25.0429236 24.48,25.0429236 L21.6,25.0429236 Z M16.8,40.6947508 C14.41824,40.6947508 12.48,42.6394302 12.48,45.029103 C12.48,47.4187758 14.418239,49.3634551 16.8,49.3634551 C19.182719,49.3634551 21.12,47.4187758 21.12,45.029103 C21.12,42.6394302 19.18176,40.6947508 16.8,40.6947508 Z M16.8,41.6579402 C18.6528,41.6579402 20.16,43.1701475 20.16,45.029103 C20.16,46.8880585 18.652799,48.4002658 16.8,48.4002658 C14.947199,48.4002658 13.44,46.8880585 13.44,45.029103 C13.44,43.1701475 14.9472,41.6579402 16.8,41.6579402 Z M16.8,50.3266445 C15.741119,50.3266445 14.88,51.1906254 14.88,52.2530233 C14.88,53.3154211 15.741119,54.179402 16.8,54.179402 C17.85888,54.179402 18.72,53.3154211 18.72,52.2530233 C18.72,51.1906254 17.85888,50.3266445 16.8,50.3266445 Z M16.8,51.2898339 C17.328959,51.2898339 17.76,51.7223059 17.76,52.2530233 C17.76,52.7837406 17.32896,53.2162126 16.8,53.2162126 C16.27104,53.2162126 15.84,52.7837406 15.84,52.2530233 C15.84,51.7223059 16.271039,51.2898339 16.8,51.2898339 Z M15.314999,58.8467316 L18.284999,58.8467316 L18.284999,60.8333097 C18.284999,61.4536036 17.605439,61.9770971 16.8,61.9770971 C15.99456,61.9770971 15.314999,61.4536036 15.314999,60.8333097 L15.314999,58.8467316 Z M16.8262493,67.6640532 C17.8342493,67.6640532 18.6524995,68.528034 18.6524995,69.5904319 C18.6524995,70.6528298 17.8332893,71.5168106 16.8262493,71.5168106 C15.8182493,71.5168106 14.9981242,70.6528298 14.9981242,69.5904319 C14.9981242,68.528034 15.8182493,67.6640532 16.8262493,67.6640532 Z" id="Shape"></path>
                </g>
                <g id="Group" transform="translate(55.326000, 56.322000)" fill-rule="nonzero">
                    <path d="M28.245,20.9664 L16.6698,1.6926 C16.1784,0.8736 15.3048,0.3822 14.322,0.3822 C13.3392,0.3822 12.4656,0.8736 11.9742,1.6926 L0.399,20.9664 C-0.0924,21.84 -0.147,22.8228 0.3444,23.6964 C0.8358,24.57 1.7094,25.0614 2.7468,25.0614 L25.8426,25.0614 C26.8254,25.0614 27.7536,24.57 28.245,23.6964 C28.7364,22.8774 28.7364,21.84 28.245,20.9664 Z" id="Path" fill="#012947"></path>
                    <path d="M14.322,15.834 C13.3938,15.834 12.684,15.1242 12.684,14.196 L12.684,8.736 C12.684,7.8078 13.3938,7.098 14.322,7.098 C15.2502,7.098 15.96,7.8078 15.96,8.736 L15.96,14.196 C15.96,15.1242 15.2502,15.834 14.322,15.834 Z" id="Path" fill="#FFFFFF"></path>
                    <path d="M14.322,21.294 C13.8852,21.294 13.4484,21.1302 13.1754,20.8026 C13.1208,20.748 13.0116,20.6388 12.957,20.5296 C12.9024,20.4204 12.8478,20.3658 12.7932,20.2566 C12.7386,20.1474 12.7386,20.0382 12.684,19.929 C12.684,19.8198 12.6294,19.7106 12.6294,19.6014 C12.6294,19.1646 12.7932,18.7278 13.1208,18.4548 C13.7214,17.8542 14.8134,17.8542 15.414,18.4548 C15.7416,18.7824 15.9054,19.1646 15.9054,19.6014 C15.9054,19.7106 15.9054,19.8198 15.8508,19.929 C15.8508,20.0382 15.7962,20.1474 15.7416,20.2566 C15.687,20.3658 15.6324,20.475 15.5778,20.5296 C15.5232,20.6388 15.4686,20.6934 15.3594,20.8026 C15.1956,21.1302 14.7588,21.294 14.322,21.294 Z" id="Path" fill="#FFFFFF"></path>
                </g>
            </g>
        </g>
    </g>
</svg>