<?xml version="1.0" encoding="UTF-8"?>
<svg width="62px" height="62px" viewBox="0 0 62 62" version="1.1" xmlns="http://www.w3.org/2000/svg" xmlns:xlink="http://www.w3.org/1999/xlink">
    <!-- Generator: sketchtool 59.1 (101010) - https://sketch.com -->
    <title>C93ABB0E-FAF8-407B-AF38-14C93D485685</title>
    <desc>Created with sketchtool.</desc>
    <g id="Assets-and-UI-Elements" stroke="none" stroke-width="1" fill="none" fill-rule="evenodd">
        <g id="Assest-ans-UI-Element" transform="translate(-25.000000, -63.000000)" fill="#8AB7D9" fill-rule="nonzero" stroke="#FBFBFB" stroke-width="2">
            <path d="M64.3020638,64 C65.2307692,64 65.9906191,64.7598499 65.9906191,65.6885553 L65.9906191,65.6885553 L65.9906191,71.9080675 L70.7326454,71.9080675 C74.7570356,71.9080675 78.0919325,75.2288931 78.0919325,79.2673546 L78.0919325,79.2673546 L78.0919325,84.0093809 L84.3114447,84.0093809 C85.2401501,84.0093809 86,84.7692308 86,85.6979362 C86,86.6266417 85.2401501,87.3864916 84.3114447,87.3864916 L84.3114447,87.3864916 L78.0919325,87.3864916 L78.0919325,100.613508 L84.3114447,100.613508 C85.2401501,100.613508 86,101.373358 86,102.302064 C86,103.230769 85.2401501,103.990619 84.3114447,103.990619 L84.3114447,103.990619 L78.0919325,103.990619 L78.0919325,108.732645 C78.0919325,112.757036 74.7711069,116.091932 70.7326454,116.091932 L70.7326454,116.091932 L65.9906191,116.091932 L65.9906191,122.311445 C65.9906191,123.24015 65.2307692,124 64.3020638,124 C63.3733583,124 62.6135084,123.24015 62.6135084,122.311445 L62.6135084,122.311445 L62.6135084,116.091932 L49.3864916,116.091932 L49.3864916,122.311445 C49.3864916,123.24015 48.6266417,124 47.6979362,124 C46.7692308,124 46.0093809,123.24015 46.0093809,122.311445 L46.0093809,122.311445 L46.0093809,116.091932 L41.2673546,116.091932 C37.2429644,116.091932 33.9080675,112.771107 33.9080675,108.732645 L33.9080675,108.732645 L33.9080675,103.990619 L27.6885553,103.990619 C26.7598499,103.990619 26,103.230769 26,102.302064 C26,101.373358 26.7598499,100.613508 27.6885553,100.613508 L27.6885553,100.613508 L33.9080675,100.613508 L33.9080675,87.3864916 L27.6885553,87.3864916 C26.7598499,87.3864916 26,86.6266417 26,85.6979362 C26,84.7692308 26.7598499,84.0093809 27.6885553,84.0093809 L27.6885553,84.0093809 L33.9080675,84.0093809 L33.9080675,79.2673546 C33.9080675,75.2429644 37.2429644,71.9080675 41.2673546,71.9080675 L41.2673546,71.9080675 L46.0093809,71.9080675 L46.0093809,65.6885553 C46.0093809,64.7598499 46.7692308,64 47.6979362,64 C48.6266417,64 49.3864916,64.7598499 49.3864916,65.6885553 L49.3864916,65.6885553 L49.3864916,71.9080675 L62.6135084,71.9080675 L62.6135084,65.6885553 C62.6135084,64.7598499 63.3733583,64 64.3020638,64 Z M70.6341463,75.2851782 L41.2251407,75.2851782 C39.0440901,75.2851782 37.2851782,77.0440901 37.2851782,79.2251407 L37.2851782,79.2251407 L37.2851782,108.634146 C37.2851782,110.815197 39.0440901,112.574109 41.2251407,112.574109 L41.2251407,112.574109 L70.6341463,112.574109 C72.815197,112.574109 74.5741088,110.815197 74.5741088,108.634146 L74.5741088,108.634146 L74.5741088,79.2251407 C74.5741088,77.0440901 72.815197,75.2851782 70.6341463,75.2851782 L70.6341463,75.2851782 Z M64.3082707,82.5714286 C65.2387218,82.5714286 66,83.3327068 66,84.2631579 L66,84.2631579 L66,102.308271 C66,103.238722 65.2387218,104 64.3082707,104 L64.3082707,104 L46.2631579,104 C45.3327068,104 44.5714286,103.238722 44.5714286,102.308271 L44.5714286,102.308271 L44.5714286,84.2631579 C44.5714286,83.3327068 45.3327068,82.5714286 46.2631579,82.5714286 L46.2631579,82.5714286 Z M62.6165414,85.9548872 L47.9548872,85.9548872 L47.9548872,100.616541 L62.6165414,100.616541 L62.6165414,85.9548872 Z" id="Combined-Shape-1"></path>
        </g>
    </g>
</svg>