<?xml version="1.0" encoding="UTF-8"?>
<svg width="36px" height="48px" viewBox="0 0 36 48" version="1.1" xmlns="http://www.w3.org/2000/svg" xmlns:xlink="http://www.w3.org/1999/xlink">
    <!-- Generator: sketchtool 59.1 (101010) - https://sketch.com -->
    <title>4E634603-4709-4FF6-820D-635D1F0C7567</title>
    <desc>Created with sketchtool.</desc>
    <g id="Assets-and-UI-Elements" stroke="none" stroke-width="1" fill="none" fill-rule="evenodd">
        <g id="Assest-ans-UI-Element" transform="translate(-605.000000, -316.000000)" fill="#019DAC" fill-rule="nonzero">
            <path d="M619.003162,316 C617.359008,316 616.005534,317.413439 616.005534,319.130435 L616.005534,321.217391 L608.166034,321.217391 C608.10993,321.207598 608.053128,321.202825 607.996247,321.203125 C607.94784,321.204221 607.899574,321.208989 607.85183,321.217391 L606.013441,321.217391 C605.65309,321.212069 605.31791,321.409783 605.136247,321.734824 C604.954584,322.059865 604.954584,322.461874 605.136247,322.786915 C605.31791,323.111956 605.65309,323.30967 606.013441,323.304348 L607.01265,323.304348 L607.01265,360.869565 C607.01265,362.586562 608.366124,364 610.010278,364 L635.989722,364 C637.633876,364 638.98735,362.586562 638.98735,360.869565 L638.98735,323.304348 L639.986559,323.304348 C640.34691,323.30967 640.68209,323.111956 640.863753,322.786915 C641.045416,322.461874 641.045416,322.059865 640.863753,321.734824 C640.68209,321.409783 640.34691,321.212069 639.986559,321.217391 L638.155977,321.217391 C638.048071,321.198766 637.937969,321.198766 637.830063,321.217391 L629.994466,321.217391 L629.994466,319.130435 C629.994466,317.413439 628.640992,316 626.996838,316 L619.003162,316 Z M619.003162,318.086957 L626.996838,318.086957 C627.550944,318.086957 627.996047,318.551779 627.996047,319.130435 L627.996047,321.217391 L618.003953,321.217391 L618.003953,319.130435 C618.003953,318.551779 618.449056,318.086957 619.003162,318.086957 Z M609.011069,323.304348 L616.836908,323.304348 C616.944814,323.322973 617.054916,323.322973 617.162822,323.304348 L628.82742,323.304348 C628.935326,323.322973 629.045428,323.322973 629.153334,323.304348 L636.988931,323.304348 L636.988931,360.869565 C636.988931,361.448221 636.543828,361.913043 635.989722,361.913043 L610.010278,361.913043 C609.456172,361.913043 609.011069,361.448221 609.011069,360.869565 L609.011069,323.304348 Z M616.989131,328.507345 C616.438051,328.516469 615.997988,328.989706 616.005534,329.565217 L616.005534,355.652174 C616.000438,356.02849 616.189764,356.37852 616.501015,356.568231 C616.812266,356.757942 617.197221,356.757942 617.508472,356.568231 C617.819724,356.37852 618.009049,356.02849 618.003953,355.652174 L618.003953,329.565217 C618.007652,329.283165 617.901857,329.011562 617.710676,328.812294 C617.519494,328.613026 617.25921,328.503067 616.989131,328.507345 Z M622.984387,328.507345 C622.433307,328.516469 621.993244,328.989706 622.000791,329.565217 L622.000791,355.652174 C621.995694,356.02849 622.18502,356.37852 622.496271,356.568231 C622.807523,356.757942 623.192477,356.757942 623.503729,356.568231 C623.81498,356.37852 624.004306,356.02849 623.999209,355.652174 L623.999209,329.565217 C624.002908,329.283165 623.897113,329.011562 623.705932,328.812294 C623.51475,328.613026 623.254466,328.503067 622.984387,328.507345 Z M628.979644,328.507345 C628.428563,328.516469 627.9885,328.989706 627.996047,329.565217 L627.996047,355.652174 C627.990951,356.02849 628.180276,356.37852 628.491528,356.568231 C628.802779,356.757942 629.187734,356.757942 629.498985,356.568231 C629.810236,356.37852 629.999562,356.02849 629.994466,355.652174 L629.994466,329.565217 C629.998164,329.283165 629.89237,329.011562 629.701188,328.812294 C629.510006,328.613026 629.249723,328.503067 628.979644,328.507345 Z" id="Shape-4"></path>
        </g>
    </g>
</svg>