<?xml version="1.0" encoding="UTF-8"?>
<svg width="36px" height="48px" viewBox="0 0 36 48" version="1.1" xmlns="http://www.w3.org/2000/svg" xmlns:xlink="http://www.w3.org/1999/xlink">
    <!-- Generator: sketchtool 59.1 (101010) - https://sketch.com -->
    <title>E783DA3F-F5CA-4F85-B418-50C07BB2081F</title>
    <desc>Created with sketchtool.</desc>
    <g id="Assets-and-UI-Elements" stroke="none" stroke-width="1" fill="none" fill-rule="evenodd">
        <g id="Assest-ans-UI-Element" transform="translate(-680.000000, -316.000000)" fill-rule="nonzero">
            <g id="Group-2-6" transform="translate(680.000000, 316.000000)">
                <g id="Group">
                    <path d="M14.0031625,0 C12.3590084,0 11.0055344,1.41343878 11.0055344,3.13043478 L11.0055344,5.2173913 L3.16603437,5.2173913 C3.10993043,5.20759815 3.05312825,5.20282537 2.99624671,5.20312497 C2.94784035,5.20422055 2.89957424,5.20898855 2.85182978,5.2173913 L1.0134406,5.2173913 C0.653089816,5.21206926 0.317909579,5.40978292 0.136246962,5.73482384 C-0.0454156541,6.05986477 -0.0454156541,6.46187436 0.136246962,6.78691529 C0.317909579,7.11195621 0.653089816,7.30966987 1.0134406,7.30434783 L2.01264998,7.30434783 L2.01264998,44.8695652 C2.01264998,46.5865617 3.36612405,48 5.01027811,48 L30.9897219,48 C32.633876,48 33.98735,46.5865617 33.98735,44.8695652 L33.98735,7.30434783 L34.9865594,7.30434783 C35.3469102,7.30966987 35.6820904,7.11195621 35.863753,6.78691529 C36.0454157,6.46187436 36.0454157,6.05986477 35.863753,5.73482384 C35.6820904,5.40978292 35.3469102,5.21206926 34.9865594,5.2173913 L33.1559768,5.2173913 C33.0480708,5.19876621 32.9379688,5.19876621 32.8300627,5.2173913 L24.9944656,5.2173913 L24.9944656,3.13043478 C24.9944656,1.41343878 23.6409916,0 21.9968375,0 L14.0031625,0 Z" id="Path-1" fill="#019DAC"></path>
                    <path d="M14.0031625,2.08695652 L21.9968375,2.08695652 C22.5509441,2.08695652 22.9960469,2.55177861 22.9960469,3.13043478 L22.9960469,5.2173913 L13.0039531,5.2173913 L13.0039531,3.13043478 C13.0039531,2.55177861 13.4490559,2.08695652 14.0031625,2.08695652 Z" id="Path-2" fill="#FFFFFF"></path>
                    <path d="M4.01106873,7.30434783 L11.8369075,7.30434783 C11.9448136,7.32297292 12.0549156,7.32297292 12.1628217,7.30434783 L23.8274201,7.30434783 C23.9353261,7.32297292 24.0454281,7.32297292 24.1533342,7.30434783 L31.9889313,7.30434783 L31.9889313,44.8695652 C31.9889313,45.4482209 31.5438285,45.9130435 30.9897219,45.9130435 L5.01027811,45.9130435 C4.45617155,45.9130435 4.01106873,45.4482209 4.01106873,44.8695652 L4.01106873,7.30434783 Z" id="Path-3" stroke="#FFFFFF" stroke-width="0.5" fill="#019DAC"></path>
                    <path d="M11.9891311,12.5073452 C11.4380509,12.5164686 10.9979876,12.9897059 11.0055344,13.5652174 L11.0055344,39.6521739 C11.0004381,40.0284897 11.1897639,40.3785197 11.5010152,40.5682307 C11.8122664,40.7579416 12.197221,40.7579416 12.5084723,40.5682307 C12.8197236,40.3785197 13.0090494,40.0284897 13.0039531,39.6521739 L13.0039531,13.5652174 C13.0076517,13.2831649 12.9018572,13.0115618 12.7106755,12.8122939 C12.5194938,12.613026 12.2592101,12.5030674 11.9891311,12.5073452 Z" id="Path-4" fill="#FFFFFF"></path>
                    <path d="M17.9843874,12.5073452 C17.4333072,12.5164686 16.9932439,12.9897059 17.0007906,13.5652174 L17.0007906,39.6521739 C16.9956944,40.0284897 17.1850201,40.3785197 17.4962714,40.5682307 C17.8075227,40.7579416 18.1924773,40.7579416 18.5037286,40.5682307 C18.8149799,40.3785197 19.0043056,40.0284897 18.9992094,39.6521739 L18.9992094,13.5652174 C19.0029079,13.2831649 18.8971135,13.0115618 18.7059318,12.8122939 C18.51475,12.613026 18.2544664,12.5030674 17.9843874,12.5073452 Z" id="Path-5" fill="#FFFFFF"></path>
                    <path d="M23.9796436,12.5073452 C23.4285635,12.5164686 22.9885001,12.9897059 22.9960469,13.5652174 L22.9960469,39.6521739 C22.9909506,40.0284897 23.1802764,40.3785197 23.4915277,40.5682307 C23.802779,40.7579416 24.1877336,40.7579416 24.4989848,40.5682307 C24.8102361,40.3785197 24.9995619,40.0284897 24.9944656,39.6521739 L24.9944656,13.5652174 C24.9981642,13.2831649 24.8923697,13.0115618 24.701188,12.8122939 C24.5100063,12.613026 24.2497226,12.5030674 23.9796436,12.5073452 Z" id="Path-6" fill="#FFFFFF"></path>
                </g>
            </g>
        </g>
    </g>
</svg>