<?xml version="1.0" encoding="UTF-8"?>
<svg width="46px" height="56px" viewBox="0 0 46 56" version="1.1" xmlns="http://www.w3.org/2000/svg" xmlns:xlink="http://www.w3.org/1999/xlink">
    <!-- Generator: sketchtool 59.1 (101010) - https://sketch.com -->
    <title>A0B2EB12-8996-4473-9D3B-6CB713C4DFF3</title>
    <desc>Created with sketchtool.</desc>
    <g id="Assets-and-UI-Elements" stroke="none" stroke-width="1" fill="none" fill-rule="evenodd" fill-opacity="0.8">
        <g id="Assest-ans-UI-Element" transform="translate(-256.000000, -66.000000)" fill="#FAFAFA" fill-rule="nonzero" stroke="#8AB7D9" stroke-width="1.33">
            <path d="M301,107 L301,112.838057 C301,117.315789 291.137931,121 279,121 C266.862069,121 257,117.315789 257,112.838057 L257,112.838057 L257,107 C257,110.57085 266.862069,113.404858 279,113.404858 C291.137931,113.404858 301,110.57085 301,107 L301,107 Z M301,95 L301,100.838057 C301,105.315789 291.137931,109 279,109 C266.862069,109 257,105.42915 257,100.951417 L257,100.951417 L257,95 C257,98.5708502 266.862069,101.404858 279,101.404858 C291.137931,101.404858 301,98.5708502 301,95 L301,95 Z M301,83 L301,88.8380567 C301,93.3157895 291.137931,97 279,97 C266.862069,97 257,93.3157895 257,88.8380567 L257,88.8380567 L257,83 C257,86.5708502 266.862069,89.4048583 279,89.4048583 C291.137931,89.4048583 301,86.51417 301,83 L301,83 Z M279,67 C291.137931,67 301,70.4615385 301,74.6686391 L301,74.6686391 L301,77.3313609 C301,81.5384615 291.137931,85 279,85 C266.862069,85 257,81.5384615 257,77.3313609 L257,77.3313609 L257,74.6686391 C257,70.4615385 266.862069,67 279,67 Z" id="Combined-Shape-3"></path>
        </g>
    </g>
</svg>