<?xml version="1.0" encoding="UTF-8"?>
<svg width="42px" height="30px" viewBox="0 0 42 30" version="1.1" xmlns="http://www.w3.org/2000/svg" xmlns:xlink="http://www.w3.org/1999/xlink">
    <!-- Generator: sketchtool 59.1 (101010) - https://sketch.com -->
    <title>22EA9AE2-1A54-42A9-9730-1433E4E4E6DF</title>
    <desc>Created with sketchtool.</desc>
    <g id="Assets-and-UI-Elements" stroke="none" stroke-width="1" fill="none" fill-rule="evenodd">
        <g id="Assest-ans-UI-Element" transform="translate(-144.000000, -1046.000000)">
            <g id="Group-3" transform="translate(144.000000, 1046.000000)">
                <path d="M21.1036258,2.00086503 C16.4494892,2.05351373 11.7426057,3.71199975 7.19396289,6.92566503 C3.62661889,9.41439975 1.24701055,12.1625418 0.368412987,13.2496266 C-0.148713303,13.8712919 -0.0961939565,14.7521572 0.368412987,15.3758961 C6.3660437,22.4774577 12.9330305,26.1570609 19.9664651,26.2602225 L20.2775476,26.2602225 C24.9316842,26.2602225 29.688729,24.7050225 34.3428656,21.5946225 C38.0657612,19.1058877 40.6512892,16.4106225 41.6353805,15.3209457 C42.1525068,14.6992804 42.1525068,13.7657457 41.6353805,13.1440804 C35.2219803,5.68015719 28.3436835,1.94767719 21.1039154,2.00055399 L21.1036258,2.00086503 Z M20.2774132,24.1868298 L20.01885,24.1868298 C13.7104264,24.0835542 7.71072719,20.7645604 2.2307399,14.284353 C4.14369347,12.0548183 11.4862662,4.17555303 21.1585964,4.12267623 L21.3141376,4.12267623 C27.7254693,4.12267623 33.9309848,7.54494567 39.8277759,14.284353 C37.7552372,16.4632401 29.9982394,24.1868298 20.2778165,24.1868298 L20.2774132,24.1868298 Z" id="Fill-1" fill="#019DAC"></path>
                <path d="M20.6850516,18.848 C17.829254,18.848 15.5137887,16.5268316 15.5137887,13.664 C15.5137887,10.8011684 17.829254,8.48 20.6850516,8.48 C23.5408492,8.48 25.8563145,10.8011684 25.8563145,13.664 C25.8563145,16.5268316 23.5408492,18.848 20.6850516,18.848 Z" id="Fill-2" stroke="#019DAC" stroke-width="1.944"></path>
                <path d="M5.72233898,0 C5.33852367,0 4.99160187,0.23253192 4.84766522,0.588668314 C4.70189099,0.944804709 4.78861671,1.35445297 5.06356075,1.6220123 L33.1612035,29.7195209 C33.338349,29.8985126 33.5782324,29.998153 33.8310497,30 C34.0820059,30 34.3237505,29.9003549 34.500896,29.7232103 C34.6780416,29.5442185 34.7776871,29.3043363 34.7776871,29.0515249 C34.7776871,28.8005699 34.6761992,28.5606687 34.4972067,28.3835241 L6.39956398,0.286015443 C6.22241845,0.103334398 5.97699867,0 5.72234843,0 L5.72233898,0 Z" id="Fill-1" fill="#019DAC"></path>
            </g>
        </g>
    </g>
</svg>