<?xml version="1.0" encoding="UTF-8"?>
<svg width="42px" height="25px" viewBox="0 0 42 25" version="1.1" xmlns="http://www.w3.org/2000/svg" xmlns:xlink="http://www.w3.org/1999/xlink">
    <!-- Generator: sketchtool 59.1 (101010) - https://sketch.com -->
    <title>C3B3D5AE-FCA2-4170-86BC-12D6E520E141</title>
    <desc>Created with sketchtool.</desc>
    <g id="Assets-and-UI-Elements" stroke="none" stroke-width="1" fill="none" fill-rule="evenodd">
        <g id="Assest-ans-UI-Element" transform="translate(-144.000000, -1104.000000)">
            <g id="Group-4" transform="translate(144.000000, 1104.000000)">
                <path d="M21.1036258,0.000865026489 C16.4494892,0.0535137305 11.7426057,1.71199975 7.19396289,4.92566503 C3.62661889,7.41439975 1.24701055,10.1625418 0.368412987,11.2496266 C-0.148713303,11.8712919 -0.0961939565,12.7521572 0.368412987,13.3758961 C6.3660437,20.4774577 12.9330305,24.1570609 19.9664651,24.2602225 L20.2775476,24.2602225 C24.9316842,24.2602225 29.688729,22.7050225 34.3428656,19.5946225 C38.0657612,17.1058877 40.6512892,14.4106225 41.6353805,13.3209457 C42.1525068,12.6992804 42.1525068,11.7657457 41.6353805,11.1440804 C35.2219803,3.68015719 28.3436835,-0.0523228135 21.1039154,0.000553986489 L21.1036258,0.000865026489 Z M20.2774132,22.1868298 L20.01885,22.1868298 C13.7104264,22.0835542 7.71072719,18.7645604 2.2307399,12.284353 C4.14369347,10.0548183 11.4862662,2.17555303 21.1585964,2.12267623 L21.3141376,2.12267623 C27.7254693,2.12267623 33.9309848,5.54494567 39.8277759,12.284353 C37.7552372,14.4632401 29.9982394,22.1868298 20.2778165,22.1868298 L20.2774132,22.1868298 Z" id="Fill-1" fill="#019DAC"></path>
                <path d="M20.6850516,16.848 C17.829254,16.848 15.5137887,14.5268316 15.5137887,11.664 C15.5137887,8.8011684 17.829254,6.48 20.6850516,6.48 C23.5408492,6.48 25.8563145,8.8011684 25.8563145,11.664 C25.8563145,14.5268316 23.5408492,16.848 20.6850516,16.848 Z" id="Fill-2" stroke="#019DAC" stroke-width="1.944"></path>
            </g>
        </g>
    </g>
</svg>