<?xml version="1.0" encoding="UTF-8"?>
<svg width="107px" height="107px" viewBox="0 0 107 107" version="1.1" xmlns="http://www.w3.org/2000/svg" xmlns:xlink="http://www.w3.org/1999/xlink">
    <!-- Generator: sketchtool 59.1 (101010) - https://sketch.com -->
    <title>62F5DCA2-9FB6-4B0A-9F16-71722C6A2D17</title>
    <desc>Created with sketchtool.</desc>
    <g id="Assets-and-UI-Elements" stroke="none" stroke-width="1" fill="none" fill-rule="evenodd">
        <g id="Assest-ans-UI-Element" transform="translate(-170.000000, -661.000000)">
            <g id="Group-3" transform="translate(170.000000, 661.000000)">
                <circle id="Oval" fill="#F0F0F0" cx="53.4" cy="53.4" r="53.4"></circle>
                <g id="Group-2" transform="translate(30.600000, 21.000000)" fill="#8AB7D9">
                    <path d="M23.595,20.0448019 L23.595,6.82782672 L24.8337375,6.82782672 C26.4337616,6.82782672 27.6835416,5.32737348 27.6835416,3.41391336 C27.6835416,1.50045324 26.4337616,1.04805054e-13 24.8337375,1.04805054e-13 L9.7990035,1.04805054e-13 C8.19897936,1.04805054e-13 6.9491994,1.50045324 6.9491994,3.41391336 C6.9491994,5.32737348 8.19897936,6.82782672 9.7990035,6.82782672 L11.037741,6.82782672 L11.037741,20.0448019 C4.39791924,22.6218478 8.8817842e-13,28.9851362 8.8817842e-13,36.1781191 C8.8817842e-13,45.7265437 7.7679459,53.4949596 17.3168424,53.4949596 C26.8657389,53.4949596 34.6336848,45.7270156 34.6336848,36.1781191 C34.6336848,28.9890058 30.235388,22.6223197 23.5959438,20.0448019 L23.595,20.0448019 Z M9.8655414,4.18801812 C9.79549256,4.14746303 9.58903631,3.89308062 9.58903631,3.41749036 C9.58903631,2.93821928 9.79549256,2.66908528 9.79918282,2.6469626 L24.766907,2.63221101 C24.8369559,2.6727661 25.0434121,2.93820985 25.0434121,3.41748092 C25.0434121,3.85619692 24.8664496,4.11795985 24.7853394,4.18801812 L9.8655414,4.18801812 Z M17.3163705,50.8545461 C9.22404054,50.8545461 2.6431119,44.269694 2.6431119,36.1809505 C2.6431119,29.8139813 6.70956858,24.2060161 12.7672545,22.2344179 L13.6778705,21.9394804 L13.6778705,19.1007188 L16.4355597,19.1007188 C16.9222019,19.1007188 17.316682,18.7062387 17.316682,18.2195965 C17.316682,17.7329544 16.9222019,17.3384743 16.4355597,17.3384743 L13.6778705,17.3384743 L13.6778705,14.8425952 L16.4355597,14.8425952 C16.9222019,14.8425952 17.316682,14.4481151 17.316682,13.961473 C17.316682,13.4711405 16.9222019,13.0803507 16.4355597,13.0803507 L13.6778705,13.0803507 L13.6778705,10.5844716 L16.4355597,10.5844716 C16.9222019,10.5844716 17.316682,10.1936818 17.316682,9.70334937 C17.316682,9.21670721 16.9222019,8.82222713 16.4355597,8.82222713 L13.6778705,8.82222713 L13.6778705,6.82769459 L20.9517371,6.82769459 L20.9517371,21.9322698 L21.8660433,22.2272073 C27.9233517,24.2033357 31.9901859,29.8070538 31.9901859,36.1737399 C31.9901859,44.2660698 25.4093517,50.8545461 17.3169273,50.8545461 L17.3163705,50.8545461 Z" id="Fill-1"></path>
                    <path d="M30.6149844,35.1012433 C25.5936853,36.26627 20.277543,37.3943942 14.666652,34.6367144 C11.2084744,32.9371194 7.69876536,31.9970002 4.8379188,31.4734743 C4.28122781,32.9371194 3.96416764,34.5187394 3.96416764,36.177751 C3.96416764,43.5401461 9.9551269,49.5306344 17.31705,49.5306344 C24.6789732,49.5306344 30.6699324,43.5396742 30.6699324,36.177751 C30.6699324,35.8127647 30.6441195,35.4551589 30.6146258,35.1012528 L30.6149844,35.1012433 Z" id="Fill-2"></path>
                    <path d="M13.081068,29.7187519 C14.3935163,29.7187519 15.4626529,28.6532961 15.4626529,27.3408478 C15.4626529,26.0283995 14.3935163,24.9629437 13.081068,24.9629437 C11.7723005,24.9629437 10.7031639,26.0283995 10.7031639,27.3408478 C10.7031639,28.6569769 11.7723005,29.7187519 13.081068,29.7187519 Z M13.081068,26.7251127 C13.4239317,26.7251127 13.7004367,27.0016178 13.7004367,27.3407912 C13.7004367,27.679974 13.4239317,27.9564697 13.081068,27.9564697 C12.7418852,27.9564697 12.4653895,27.6799646 12.4653895,27.3407912 C12.4653895,27.0016178 12.7418946,26.7251127 13.081068,26.7251127 Z" id="Fill-3"></path>
                    <path d="M22.1944008,32.7153169 C24.0230133,32.7153169 25.5087433,31.229587 25.5087433,29.4009745 C25.5087433,27.572362 24.0230133,26.0829512 22.1944008,26.0829512 C20.3657883,26.0829512 18.8800583,27.5686811 18.8800583,29.4009745 C18.8800583,31.229587 20.3657883,32.7153169 22.1944008,32.7153169 Z M22.1944008,27.8488954 C23.0497195,27.8488954 23.7464799,28.545684 23.7464799,29.4009745 C23.7464799,30.2562649 23.0496912,30.9530536 22.1944008,30.9530536 C21.3353918,30.9530536 20.6386409,30.2599457 20.6386409,29.4009745 C20.6386409,28.5456557 21.3354295,27.8488954 22.1944008,27.8488954 Z" id="Fill-4"></path>
                </g>
                <path d="M78.0884619,80.699308 C78.0884619,81.1482125 78.5026092,81.5098686 79.013231,81.5098686 C79.5238528,81.5098686 79.938,81.1467522 79.938,80.699308 C79.938,80.2518637 79.5238528,79.8887473 79.013231,79.8887473 C78.5026092,79.8887473 78.0884619,80.2518637 78.0884619,80.699308 Z M78.5409158,80.9980933 C79.1422753,81.2411225 79.6826709,80.73648 79.6826709,80.73648 C79.1862462,81.5113215 78.5409158,80.9980933 78.5409158,80.9980933 Z M52.3907468,86.9038263 C52.3907468,87.2555059 52.7907333,87.54 53.2828735,87.54 C53.7764661,87.54 54.1750002,87.2555133 54.1750002,86.9038263 C54.1750002,86.5521393 53.7750137,86.2690798 53.2828735,86.2690798 C52.7907333,86.2690798 52.3907468,86.5521393 52.3907468,86.9038263 Z M52.8772227,87.045356 C53.4360637,87.1125453 53.9353206,86.9038263 53.9353206,86.9038263 C53.3835963,87.5099535 52.8772227,87.045356 52.8772227,87.045356 Z M55.3196238,81.7160331 C55.3196238,82.1291819 55.8118003,82.4608647 56.4202402,82.4608647 C57.0286801,82.4608647 57.5208566,82.1277692 57.5208566,81.7160331 C57.5208566,81.3028843 57.0286801,80.9711969 56.4202402,80.9711969 C55.811764,80.9697706 55.3196238,81.302866 55.3196238,81.7160331 Z M55.8983261,81.8275419 C56.4770284,81.9390508 57.2117167,81.7160331 57.2117167,81.7160331 C56.5451089,82.2749862 55.8983261,81.8275419 55.8983261,81.8275419 Z M53.5679764,80.7996655 C53.5679764,81.0770048 53.8388787,81.3000261 54.1764526,81.3000261 C54.5125995,81.3000261 54.7849287,81.0770084 54.7849287,80.7996655 C54.7849287,80.5237536 54.5140265,80.299305 54.1764526,80.299305 C53.8403056,80.299305 53.5679764,80.5237499 53.5679764,80.7996655 Z M53.9197256,80.8396958 C54.2530368,80.9955205 54.4657856,80.8396958 54.4657856,80.8396958 C54.2062301,81.2214074 53.9197256,80.8396958 53.9197256,80.8396958 Z M47.994,75.4829249 C47.994,75.7960052 48.3727091,76.0490511 48.8421558,76.0490511 C49.3116388,76.0490511 49.6903116,75.7960125 49.6903116,75.4829249 C49.6903116,75.1698372 49.3116025,74.9167987 48.8421558,74.9167987 C48.3740888,74.9167987 47.994,75.1698372 47.994,75.4829249 Z M48.4195121,75.6401805 C48.6308448,75.7145173 49.3981646,75.5658438 49.3981646,75.5658438 C48.9272655,75.9661468 48.4195121,75.6401805 48.4195121,75.6401805 Z M66.848083,86.5063339 C66.848083,86.7264896 67.0792735,86.9037458 67.3643691,86.9037458 C67.6494648,86.9037458 67.8806552,86.726475 67.8806552,86.5063339 C67.8806552,86.2861782 67.6494648,86.1074947 67.3643691,86.1074947 C67.0778647,86.1074947 66.848083,86.2861928 66.848083,86.5063339 Z M67.0494887,86.6364269 C67.4565556,86.7851041 67.6962352,86.5106231 67.6962352,86.5106231 L67.6962352,86.5964002 C67.4196578,87.0395589 67.0494887,86.6364305 67.0494887,86.6364305 L67.0494887,86.6364269 Z M48.945889,74.1874332 C50.6223752,74.5605443 50.2039434,75.3554047 50.2039434,75.3554047 C49.7103508,76.0015695 49.8833987,76.9465527 49.8833987,76.9465527 C50.253575,78.5620014 53.1129555,77.9157999 53.1129555,77.9157999 C55.1837279,77.7413911 55.9482264,78.8107177 55.9482264,78.8107177 C56.4914542,79.8042657 57.477187,80.4761952 57.477187,80.4761952 C58.6359714,81.4197144 58.4827812,82.3403969 58.4827812,82.3403969 C58.5267485,82.936533 57.0828649,82.8622035 57.0828649,82.8622035 C54.370974,82.5648491 53.9766881,82.7135263 53.9766881,82.7135263 C53.4348763,82.7878631 52.7186333,82.6892256 52.7186333,82.6892256 C49.2422806,81.9686947 50.3882836,83.6570456 50.3882836,83.6570456 C50.4861489,84.6520574 51.7683386,84.7749883 51.7683386,84.7749883 C53.8150015,84.8250244 55.4051075,85.7700002 55.4051075,85.7700002 C59.990646,87.0866672 62.8271514,86.2417781 62.8271514,86.2417781 C64.6511275,85.5455845 67.3643982,85.2982589 67.3643982,85.2982589 C67.9232391,85.2353552 68.7515336,85.279671 68.7515336,85.279671 C71.8208198,85.5584412 73.4307508,84.5348394 73.4307508,84.5348394 C75.3540337,83.4726712 77.5921933,83.8829654 77.5921933,83.8829654 C80.1437774,84.2003349 79.6459365,82.5906357 79.6459365,82.5906357 C78.5850065,80.8751295 76.3411826,81.8701048 76.3411826,81.8701048 C74.6405865,82.3418827 74.7143313,80.752162 74.7143313,80.752162 C74.6902181,79.3611656 76.0220576,79.7328494 76.0220576,79.7328494 C76.7369209,80.1059606 77.378003,80.0302038 77.378003,80.0302038 C79.9678937,79.6084912 79.0800152,78.067372 79.0800152,78.067372 C78.1183919,76.4519233 75.7270421,77.4712359 75.7270421,77.4712359 C73.4832182,78.3661537 71.9798921,77.5956087 71.9798921,77.5956087 C70.7459469,76.6020607 69.9332293,76.7006909 69.9332293,76.7006909 C67.6894054,76.526282 67.6156606,76.0302253 67.6156606,76.0302253 C66.9901552,75.3997608 67.8298291,74.8122251 68.4936265,74.4776877 C69.3588115,74.2446643 69.6382138,73.8972885 69.7119949,73.6256621 L69.7134146,73.6228038 C69.721922,73.591352 69.7275972,73.562762 69.7318526,73.5341684 C69.7332687,73.5241627 69.7346884,73.5155842 69.7361081,73.5055785 C69.7361081,73.5027166 69.7361081,73.4998583 69.7375242,73.4970001 C69.7644732,73.2954285 69.7687287,72.9065731 69.4623665,72.6735571 L69.4623665,72.6749881 C69.2737273,72.4391064 69.0354383,72.351902 69.0354383,72.351902 C67.6539672,71.5556143 64.1151253,71.9573447 64.1151253,71.9573447 C62.3138427,72.6778756 56.9664926,70.665015 56.9664926,70.665015 C55.0673193,70.0431509 53.3922489,70.1189076 53.3922489,70.1189076 C50.3527365,70.2604374 48.6763604,71.800122 48.6763604,71.800122 C47.2466701,73.8387106 48.9458465,74.187521 48.9458465,74.187521 L48.945889,74.1874332 Z M68.3359376,74.3847155 C68.3359376,74.3847155 69.372758,73.9630029 69.4337218,73.1681409 C69.4351415,73.1667116 69.593996,74.1102345 68.3359376,74.3847155 Z M74.2504072,79.9442364 C74.6205835,78.7333727 75.7850685,79.0779012 75.7850685,79.0779012 C76.5438664,79.4596128 77.1353496,79.4324391 77.1353496,79.4324391 C78.1154182,79.413855 78.6331204,78.8634584 78.6331204,78.8634584 C77.6814096,80.2615913 75.7666595,79.292344 75.7666595,79.292344 C74.603627,79.0879143 74.2504072,79.9442181 74.2504072,79.9442181 L74.2504072,79.9442364 Z M68.2408065,84.7619267 C72.0220875,84.9291881 73.7141145,83.6525843 73.7141145,83.6525843 C74.8785632,82.9534996 76.3763339,83.1222139 76.3763339,83.1222139 C78.3605806,83.2437284 78.9350346,82.7905493 79.0031151,82.7290839 C78.3847264,83.4781974 75.2276436,83.3681122 75.2276436,83.3681122 C74.5369262,83.3681122 73.2419446,84.1014888 73.2419446,84.1014888 C70.4336154,85.097928 68.2410243,84.7619633 68.2410243,84.7619633 L68.2408065,84.7619267 Z M53.402165,84.5846559 C51.0165158,84.4173945 51.1640054,83.5210604 51.1640054,83.5210604 C52.0334386,84.0800134 53.402165,84.5846559 53.402165,84.5846559 Z M62.3829798,85.5796678 C64.6892199,84.7719617 66.4009994,84.8591369 66.4009994,84.8591369 C65.0507182,84.8534204 62.4621347,85.8898679 62.4621347,85.8898679 C59.0042269,86.5989438 56.1192119,85.5353299 56.1192119,85.5353299 C55.4157135,85.0692978 54.3065644,84.8162629 54.3065644,84.8162629 C55.0100627,84.7676579 56.1192119,85.126485 56.1192119,85.126485 C56.4709611,85.3680868 56.8397395,85.4424236 56.8397395,85.4424236 C60.4465892,86.1143165 62.3827619,85.5796641 62.3827619,85.5796641 L62.3829798,85.5796678 Z M57.9691857,80.2086238 C58.1904491,80.4073371 58.3648876,80.6132088 58.5308588,80.8604978 C58.5975195,80.96057 58.6726913,81.0620694 58.7294287,81.1649997 C58.7819069,81.2593517 58.8187829,81.3579928 58.8726809,81.4480592 C58.9435972,81.5667155 59.0372069,81.6653566 59.0755027,81.8011661 C59.1081232,81.9169642 59.065572,82.0570629 59.0868494,82.1714227 L59.0599004,82.1628443 C59.0343711,82.1728537 58.9946557,82.1728537 58.9606155,82.1699917 C58.8514035,81.9212424 58.8131077,81.6496124 58.6911293,81.3965775 C58.6400708,81.2907889 58.6060269,81.1621268 58.5407858,81.0620547 C58.4840521,80.9748503 58.4216468,80.8962243 58.3691649,80.8047306 C58.3010844,80.6875053 58.2344236,80.5574123 58.1564124,80.4473344 C58.098259,80.3672775 58.0174157,80.295799 57.9691857,80.2085945 L57.9691857,80.2086238 Z M56.5281305,78.7790536 C56.5479882,78.7533219 56.5635868,78.7204391 56.5650065,78.6889909 C56.7664122,78.7619004 56.9408835,78.9906345 57.0727599,79.1607688 C57.1365849,79.2422568 57.2131764,79.3051568 57.2826729,79.3794973 C57.3365709,79.4352498 57.3918849,79.5338946 57.4613851,79.5639155 L57.4514544,79.5639155 C57.4372719,79.5839307 57.4230894,79.6082314 57.4131587,79.636825 C57.3606804,79.5767832 57.3067825,79.5095903 57.2415378,79.4638434 C57.1394171,79.3895067 57.0982855,79.3280339 57.0146028,79.2279618 C56.9422669,79.1421846 56.8656754,79.0764263 56.7975949,78.98636 C56.7195874,78.8834296 56.6486675,78.8176676 56.5281087,78.7790683 L56.5281305,78.7790536 Z M50.5355953,76.9062881 C50.8958554,77.2422419 51.4504155,77.2136483 53.4942462,77.2793993 C55.5380768,77.3451503 56.3323492,78.5002541 56.3323492,78.5002541 C54.9083233,77.3537287 52.6618124,77.4194944 52.6618124,77.4194944 C50.8321357,77.475247 50.5357042,76.9062881 50.5357042,76.9062881 L50.5355953,76.9062881 Z M49.9994478,74.2501173 C51.0064581,74.7533325 50.8320268,75.3037217 50.8320268,75.3037217 C50.5355916,74.64182 49.9994478,74.2501173 49.9994478,74.2501173 Z M48.5853703,72.5817853 C48.4080779,73.4380928 49.833513,74.1386049 49.833513,74.1386049 C47.8634267,73.5238772 48.5853703,72.5817853 48.5853703,72.5817853 Z" id="Fill-1" fill="#8AB7D9"></path>
                <g id="Group" transform="translate(67.800000, 73.800000)" fill-rule="nonzero">
                    <path d="M28.245,20.9664 L16.6698,1.6926 C16.1784,0.8736 15.3048,0.3822 14.322,0.3822 C13.3392,0.3822 12.4656,0.8736 11.9742,1.6926 L0.399,20.9664 C-0.0924,21.84 -0.147,22.8228 0.3444,23.6964 C0.8358,24.57 1.7094,25.0614 2.7468,25.0614 L25.8426,25.0614 C26.8254,25.0614 27.7536,24.57 28.245,23.6964 C28.7364,22.8774 28.7364,21.84 28.245,20.9664 Z" id="Path" fill="#012947"></path>
                    <path d="M14.322,15.834 C13.3938,15.834 12.684,15.1242 12.684,14.196 L12.684,8.736 C12.684,7.8078 13.3938,7.098 14.322,7.098 C15.2502,7.098 15.96,7.8078 15.96,8.736 L15.96,14.196 C15.96,15.1242 15.2502,15.834 14.322,15.834 Z" id="Path" fill="#FFFFFF"></path>
                    <path d="M14.322,21.294 C13.8852,21.294 13.4484,21.1302 13.1754,20.8026 C13.1208,20.748 13.0116,20.6388 12.957,20.5296 C12.9024,20.4204 12.8478,20.3658 12.7932,20.2566 C12.7386,20.1474 12.7386,20.0382 12.684,19.929 C12.684,19.8198 12.6294,19.7106 12.6294,19.6014 C12.6294,19.1646 12.7932,18.7278 13.1208,18.4548 C13.7214,17.8542 14.8134,17.8542 15.414,18.4548 C15.7416,18.7824 15.9054,19.1646 15.9054,19.6014 C15.9054,19.7106 15.9054,19.8198 15.8508,19.929 C15.8508,20.0382 15.7962,20.1474 15.7416,20.2566 C15.687,20.3658 15.6324,20.475 15.5778,20.5296 C15.5232,20.6388 15.4686,20.6934 15.3594,20.8026 C15.1956,21.1302 14.7588,21.294 14.322,21.294 Z" id="Path" fill="#FFFFFF"></path>
                </g>
            </g>
        </g>
    </g>
</svg>