<?xml version="1.0" encoding="UTF-8"?>
<svg width="50px" height="69px" viewBox="0 0 50 69" version="1.1" xmlns="http://www.w3.org/2000/svg" xmlns:xlink="http://www.w3.org/1999/xlink">
    <!-- Generator: sketchtool 59.1 (101010) - https://sketch.com -->
    <title>F674E4D7-20BA-4E0F-85B6-4A9BA00306D1</title>
    <desc>Created with sketchtool.</desc>
    <g id="Assets-and-UI-Elements" stroke="none" stroke-width="1" fill="none" fill-rule="evenodd">
        <g id="Assest-ans-UI-Element" transform="translate(-153.000000, -291.000000)" fill="#001A2E" fill-rule="nonzero">
            <path d="M186.389698,314.589424 L186.389698,293.875 L189.478122,293.875 C190.32331,293.875 191.01469,293.228195 191.01469,292.4375 C191.01469,291.646893 190.32331,291 189.478122,291 L166.521878,291 C165.676691,291 164.98531,291.646893 164.98531,292.4375 C164.98531,293.228195 165.676691,293.875 166.521878,293.875 L169.610302,293.875 L169.610302,314.589424 C159.622607,317.895657 153,326.621292 153,336.611935 C153,349.506268 164.217025,360 178,360 C191.782975,360 203,349.506268 203,336.611935 C203,326.621292 196.377393,317.895657 186.389698,314.589424 Z M193.212066,329.52507 C190.815023,331.767567 186.912079,331.767567 184.515036,329.52507 C182.778706,327.900688 180.458472,326.995056 178,326.995056 C175.541528,326.995056 173.221294,327.900688 171.484965,329.52507 C169.087921,331.767567 165.184977,331.767567 162.787934,329.52507 C161.666269,328.475636 160.145081,327.713806 158.424132,327.325653 C161.051604,322.466896 165.707452,318.686264 171.592536,317.004414 C172.237868,316.817532 172.683439,316.256885 172.683439,315.624382 L172.683439,293.875 L183.316561,293.875 L183.316561,315.624382 C183.316561,316.256885 183.762132,316.817532 184.407464,317.004414 C190.292548,318.686264 194.948396,322.466896 197.575868,327.325653 C195.854919,327.713806 194.333731,328.461247 193.212066,329.52507 Z" id="Shape-1"></path>
        </g>
    </g>
</svg>