<?xml version="1.0" encoding="UTF-8"?>
<svg width="48px" height="71px" viewBox="0 0 48 71" version="1.1" xmlns="http://www.w3.org/2000/svg" xmlns:xlink="http://www.w3.org/1999/xlink">
    <!-- Generator: sketchtool 59.1 (101010) - https://sketch.com -->
    <title>B3D1D245-113F-4574-A1E0-90DA1E6CF668</title>
    <desc>Created with sketchtool.</desc>
    <g id="Assets-and-UI-Elements" stroke="none" stroke-width="1" fill="none" fill-rule="evenodd">
        <g id="Assest-ans-UI-Element" transform="translate(-43.000000, -290.000000)" fill="#001A2E" fill-rule="nonzero">
            <g id="Group-20" transform="translate(43.000000, 290.000000)">
                <path d="M37.2287823,2.52631579 L10.7712177,2.52631579 C9.79220475,2.52631579 9,1.96073192 9,1.26315789 C9,0.565583874 9.79220475,1.20459198e-14 10.7712177,1.20459198e-14 L37.2287823,1.20459198e-14 C38.2077952,1.20459198e-14 39,0.565583874 39,1.26315789 C39,1.96073192 38.2077952,2.52631579 37.2287823,2.52631579 Z" id="Path"></path>
                <path d="M24,70.7368421 C10.7667186,70.7368421 2.27373675e-13,59.982833 2.27373675e-13,46.7642887 C2.27373675e-13,36.5175782 6.36090763,27.576172 15.9418899,24.1812294 L15.9418899,1.47368421 C15.9418899,0.659847853 16.601753,1.08357767e-13 17.417217,1.08357767e-13 C18.2326811,1.08357767e-13 18.8925442,0.659847853 18.8925442,1.47368421 L18.8925442,25.2469161 C18.8925442,25.8952508 18.4689639,26.4673108 17.8480011,26.6565584 C8.93696726,29.3736636 2.95065434,37.4544613 2.95065434,46.7642887 C2.95065434,58.3573191 12.3933245,67.7894737 24,67.7894737 C35.6066755,67.7894737 45.0493457,58.3573191 45.0493457,46.7642887 C45.0493457,37.4537418 39.0630327,29.3729442 30.1519989,26.6565584 C29.5310361,26.4673108 29.1074558,25.8952508 29.1074558,25.2469161 L29.1074558,1.47368421 C29.1074558,0.659847853 29.7673189,1.08357767e-13 30.582783,1.08357767e-13 C31.398247,1.08357767e-13 32.0581101,0.659847853 32.0581101,1.47368421 L32.0581101,24.1812294 C41.6390922,27.5754524 48,36.5168586 48,46.7642887 C48,59.982833 37.2332814,70.7368421 24,70.7368421 Z" id="Path"></path>
                <path d="M30.8343229,42.9469402 C28.9967876,42.9469402 27.1592525,42.1015755 25.7594954,40.410846 C24.0919711,38.3920774 21.3802962,38.3963599 19.7156055,40.4099895 C16.9175083,43.7923049 12.3654645,43.7940178 9.56736731,40.4099895 C7.90976039,38.4074943 4.13410005,38.4074943 2.47649313,40.4099895 C1.90978989,41.0951889 0.991730657,41.0951889 0.425027425,40.4099895 C-0.141675808,39.7247901 -0.141675808,38.6147672 0.425027425,37.9295678 C3.24720952,34.515562 8.79381743,34.5147056 11.618833,37.9287113 C13.2863573,39.9431974 15.9994491,39.9431974 17.6641398,37.9287113 C20.4608203,34.5472524 25.0142808,34.5463959 27.8109611,37.9295678 C29.4742351,39.9423409 32.1873269,39.9440539 33.8562679,37.9295678 C36.6812834,34.5138491 42.2264747,34.515562 45.0486568,37.9295678 C45.61536,38.6147672 45.61536,39.7247901 45.0486568,40.4099895 C44.4819536,41.0951889 43.5638943,41.0951889 42.9971911,40.4099895 C41.3424176,38.4109204 37.5653406,38.406638 35.9077336,40.410846 C34.5093933,42.1015756 32.6718582,42.9469402 30.8343229,42.9469402 Z" id="Path"></path>
            </g>
        </g>
    </g>
</svg>