<?xml version="1.0" encoding="UTF-8"?>
<svg width="53px" height="83px" viewBox="0 0 53 83" version="1.1" xmlns="http://www.w3.org/2000/svg" xmlns:xlink="http://www.w3.org/1999/xlink">
    <!-- Generator: sketchtool 59.1 (101010) - https://sketch.com -->
    <title>3A0B9A19-A329-44A9-8CE6-4F3520F7DAC7</title>
    <desc>Created with sketchtool.</desc>
    <g id="Assets-and-UI-Elements" stroke="none" stroke-width="1" fill="none" fill-rule="evenodd">
        <g id="Assest-ans-UI-Element" transform="translate(-264.000000, -284.000000)" fill="#001A2E" stroke="#FFFFFF" stroke-width="0.6">
            <path d="M300.252966,319.334639 L300.252966,308.098864 C302.554243,307.39469 304.307986,306.283201 304.307986,304.498644 C304.307986,300.073436 293.535035,299.724831 290.232051,299.724831 C286.929066,299.724831 276.156115,300.070007 276.156115,304.498644 C276.156115,306.283201 277.909858,307.394673 280.211136,308.098864 L280.211136,319.334639 C271.059625,323.152329 265,331.964835 265,341.664804 C265,355.085879 276.319936,366 290.231867,366 C304.143799,366 315.463735,355.082344 315.463735,341.664804 C315.463735,331.96837 309.404477,323.152947 300.252599,319.334639 L300.252966,319.334639 Z M290.231318,303.40838 C294.647788,303.40838 297.786585,303.967571 299.436611,304.50262 C297.786676,305.037652 294.644306,305.59686 290.231318,305.59686 C285.814847,305.59686 282.67605,305.037669 281.026024,304.50262 C282.675959,303.967589 285.814756,303.40838 290.231318,303.40838 Z M282.779859,322.307282 C283.527872,322.041494 284.025372,321.351158 284.025372,320.581399 L284.025372,308.893188 C286.509161,309.221107 288.939351,309.276336 290.227744,309.276336 C291.519802,309.276336 293.946327,309.217652 296.430116,308.893188 L296.430116,320.581399 C296.430116,321.351149 296.927598,322.041476 297.67563,322.307282 C305.513644,325.106726 310.939792,332.127429 311.576567,340.087466 C306.619617,340.653567 302.314468,339.359133 297.790158,337.978427 C290.352992,335.707148 281.960572,333.163171 269.129784,338.192442 C270.414604,331.029911 275.571932,324.879174 282.779675,322.306831 L282.779859,322.307282 Z M290.231318,362.320521 C278.649342,362.320521 269.204914,353.397199 268.850336,342.307219 C281.409006,336.846446 289.153839,339.204059 296.641214,341.489141 C300.578133,342.690392 304.618769,343.926107 309.188889,343.926107 C309.951214,343.926107 310.731442,343.888145 311.529564,343.812194 C310.409298,354.198769 301.28619,362.320521 290.231043,362.320521 L290.231318,362.320521 Z M284.504923,294.202379 C284.504923,293.184134 285.3603,292.362592 286.4125,292.362592 C287.46469,292.362592 288.320076,293.184125 288.320076,294.202379 C288.320076,295.220623 287.4647,296.042176 286.4125,296.042176 C285.360309,296.045611 284.504923,295.220632 284.504923,294.202379 Z M282.597347,329.183064 C282.597347,328.164819 283.452724,327.343277 284.504923,327.343277 C285.557123,327.343277 286.4125,328.16481 286.4125,329.183064 C286.4125,330.201309 285.557123,331.02285 284.504923,331.02285 C283.452724,331.02285 282.597347,330.201318 282.597347,329.183064 Z M292.138894,323.66017 C293.191085,323.66017 294.04647,324.481702 294.04647,325.499956 C294.04647,326.51821 293.191094,327.339743 292.138894,327.339743 C291.086703,327.339743 290.231318,326.51821 290.231318,325.499956 C290.231318,324.481702 291.086694,323.66017 292.138894,323.66017 Z M288.32365,316.294043 C288.32365,315.275798 289.179026,314.454257 290.231226,314.454257 C291.283426,314.454257 292.138802,315.275789 292.138802,316.294043 C292.138802,317.312288 291.283426,318.13384 290.231226,318.13384 C289.179035,318.137276 288.32365,317.312297 288.32365,316.294043 Z M309.317985,305.248255 C313.000744,305.248255 316,302.359119 316,298.803692 C316,295.251817 313.004409,292.362583 309.317985,292.362583 C305.635226,292.362583 302.63597,295.25172 302.63597,298.807138 C302.639553,302.359021 305.635135,305.248255 309.317985,305.248255 Z M309.317985,296.045788 C310.896363,296.045788 312.181182,297.284949 312.181182,298.807235 C312.181182,300.329521 310.896363,301.568682 309.317985,301.568682 C307.739608,301.568682 306.454788,300.329521 306.454788,298.807235 C306.454788,297.284949 307.739608,296.045788 309.317985,296.045788 Z M295.95762,296.045788 C299.114284,296.045788 301.684014,293.567378 301.684014,290.522894 C301.684014,287.47841 299.114284,285 295.95762,285 C292.800957,285 290.231226,287.47841 290.231226,290.522894 C290.231226,293.567378 292.800957,296.045788 295.95762,296.045788 Z M295.95762,288.679661 C297.009811,288.679661 297.865197,289.50464 297.865197,290.519448 C297.865197,291.534246 297.00982,292.359234 295.95762,292.359234 C294.90542,292.359234 294.050044,291.534255 294.050044,290.519448 C294.050044,289.504649 294.90542,288.679661 295.95762,288.679661 Z" id="Fill-1-1"></path>
        </g>
    </g>
</svg>