<?xml version="1.0" encoding="UTF-8"?>
<svg width="119px" height="119px" viewBox="0 0 119 119" version="1.1" xmlns="http://www.w3.org/2000/svg" xmlns:xlink="http://www.w3.org/1999/xlink">
    <!-- Generator: sketchtool 59.1 (101010) - https://sketch.com -->
    <title>30F27819-92AB-45CF-AA54-080ADF045111</title>
    <desc>Created with sketchtool.</desc>
    <g id="Assets-and-UI-Elements" stroke="none" stroke-width="1" fill="none" fill-rule="evenodd">
        <g id="Assest-ans-UI-Element" transform="translate(-37.000000, -477.000000)">
            <g id="Group-2-1" transform="translate(37.000000, 477.000000)">
                <circle id="Oval" fill="#F0F0F0" cx="59.36" cy="59.36" r="59.36"></circle>
                <g id="Group" transform="translate(76.726392, 81.052304)">
                    <path d="M15.1556841,36.1289318 C9.90853994,35.243866 5.33484128,32.1201506 2.56737422,27.5423602 C-0.675331765,22.1725031 -0.86135277,15.2110906 2.09509602,9.65902046 C3.6123953,6.81044291 6.04437719,4.25194008 8.82974187,2.56737422 C14.199599,-0.675331765 21.1610115,-0.86135277 26.7130816,2.09509602 C29.5616592,3.6123953 32.120162,6.04437719 33.8047279,8.82974187 C37.0474339,14.199599 37.2334549,21.1610115 34.2770061,26.7130816 C32.7597068,29.5616592 30.3277249,32.1201601 27.5423602,33.804726 C23.9239946,35.9913772 19.376,36.8429421 15.1549225,36.1289414 L15.1556841,36.1289318 Z" id="Path" fill="#012947"></path>
                    <polygon id="Path" fill="#FFFFFF" points="20.4400516 27.7319988 20.4660793 25.5751453 16.011 25.5751453 16.011 29.9335013 20.4140048 29.8814363"></polygon>
                    <path d="M20.4288941,16.9286909 C20.3954218,14.1544646 20.3656717,10.6551944 20.3656717,9.15645911 L20.3656717,6.43059449 L15.9626669,6.48265943 L15.9403615,21.9745726 L20.4920689,21.9745726 L20.4288941,16.9286909 Z" id="Path" fill="#FFFFFF"></path>
                </g>
                <g id="Group-9" transform="translate(39.760000, 13.520000)" fill="#8AB7D9">
                    <path d="M25.652,54.059 L25.652,40.055 L26.9645,40.055 C28.6598,40.055 29.984,38.4652 29.984,36.4378 C29.984,34.4104 28.6598,32.8206 26.9645,32.8206 L11.0345,32.8206 C9.3392,32.8206 8.015,34.4104 8.015,36.4378 C8.015,38.4652 9.3392,40.055 11.0345,40.055 L12.347,40.055 L12.347,54.059 C5.3118,56.7895 0.652,63.5317 0.652,71.153 C0.652,81.27 8.8825,89.500998 19,89.500998 C29.1175,89.500998 37.348,81.2705 37.348,71.153 C37.348,63.5358 32.6878,56.79 25.653,54.059 L25.652,54.059 Z M11.105,37.258 C11.03078,37.21503 10.81203,36.9455 10.81203,36.44159 C10.81203,35.93378 11.03078,35.64862 11.03469,35.62518 L26.89369,35.60955 C26.96791,35.65252 27.18666,35.93377 27.18666,36.44158 C27.18666,36.90642 26.99916,37.18377 26.91322,37.258 L11.105,37.258 Z M18.9995,86.703357 C10.4253,86.703357 3.4525,79.7264 3.4525,71.156 C3.4525,64.4099 7.7611,58.468 14.1795,56.379 L15.14434,56.0665 L15.14434,53.0587 L18.06624,53.0587 C18.58186,53.0587 18.99983,52.64073 18.99983,52.12511 C18.99983,51.60949 18.58186,51.19152 18.06624,51.19152 L15.14434,51.19152 L15.14434,48.54702 L18.06624,48.54702 C18.58186,48.54702 18.99983,48.12905 18.99983,47.61343 C18.99983,47.0939 18.58186,46.67984 18.06624,46.67984 L15.14434,46.67984 L15.14434,44.03534 L18.06624,44.03534 C18.58186,44.03534 18.99983,43.62128 18.99983,43.10175 C18.99983,42.58613 18.58186,42.16816 18.06624,42.16816 L15.14434,42.16816 L15.14434,40.05486 L22.85134,40.05486 L22.85134,56.05886 L23.82009,56.37136 C30.23809,58.46516 34.54709,64.40256 34.54709,71.14836 C34.54709,79.72256 27.57439,86.703357 19.00009,86.703357 L18.9995,86.703357 Z" id="Fill-1"></path>
                    <path d="M33.09,70.012 C27.7697,71.2464 22.137,72.4417 16.192,69.51981 C12.5279,67.71901 8.8092,66.72291 5.778,66.16821 C5.18816,67.71901 4.85222,69.39481 4.85222,71.15261 C4.85222,78.95341 11.19992,85.300611 19.00022,85.300611 C26.80052,85.300611 33.14822,78.95291 33.14822,71.15261 C33.14822,70.76589 33.12087,70.38699 33.08962,70.01201 L33.09,70.012 Z" id="Fill-2"></path>
                    <path d="M14.512,64.309 C15.9026,64.309 17.0354,63.1801 17.0354,61.7895 C17.0354,60.3989 15.9026,59.27 14.512,59.27 C13.1253,59.27 11.9925,60.3989 11.9925,61.7895 C11.9925,63.184 13.1253,64.309 14.512,64.309 Z M14.512,61.1371 C14.87528,61.1371 15.16825,61.43007 15.16825,61.78944 C15.16825,62.14882 14.87528,62.44178 14.512,62.44178 C14.15262,62.44178 13.85966,62.14881 13.85966,61.78944 C13.85966,61.43007 14.15263,61.1371 14.512,61.1371 Z" id="Fill-3"></path>
                    <path d="M24.168,67.484 C26.1055,67.484 27.6797,65.9098 27.6797,63.9723 C27.6797,62.0348 26.1055,60.4567 24.168,60.4567 C22.2305,60.4567 20.6563,62.0309 20.6563,63.9723 C20.6563,65.9098 22.2305,67.484 24.168,67.484 Z M24.168,62.3278 C25.07425,62.3278 25.8125,63.06608 25.8125,63.9723 C25.8125,64.87852 25.07422,65.6168 24.168,65.6168 C23.25784,65.6168 22.5196,64.88242 22.5196,63.9723 C22.5196,63.06605 23.25788,62.3278 24.168,62.3278 Z" id="Fill-4"></path>
                    <path d="M20.805,15.152 C20.86359,15.152 20.97297,15.14028 21.12141,15.12075 C21.62141,15.05434 22.79331,14.89809 23.53551,15.61294 C24.21129,16.26138 24.47301,17.57384 24.29723,19.41374 C24.24645,19.92546 24.62145,20.37858 25.13707,20.43324 C25.16441,20.43715 25.19566,20.43715 25.22691,20.43715 C25.69957,20.43715 26.10582,20.07777 26.15269,19.5934 C26.39097,17.1364 25.94566,15.3473 24.82849,14.2692 C23.43789,12.9294 21.51209,13.1872 20.87539,13.27311 L20.76992,13.28873 C20.26992,13.30826 19.87148,13.71842 19.87148,14.22232 C19.87148,14.73404 20.28945,15.15201 20.80507,15.15201 L20.805,15.152 Z" id="Fill-5"></path>
                    <path d="M1.953,17.746 L7.8085,18.37881 C8.13662,19.83971 9.2226,21.02721 10.6366,21.48041 C10.55066,21.89057 10.50769,22.31635 10.50769,22.74601 C10.50769,25.41791 12.21079,27.69521 14.58579,28.55851 L14.58579,31.42181 L16.45299,31.42181 L16.45299,28.92571 C16.53502,28.92962 16.61705,28.93743 16.70299,28.93743 C18.62099,28.93743 20.38659,28.05852 21.54679,26.58973 L21.54679,31.42181 L23.41399,31.42181 L23.41399,26.92563 C23.49993,26.93344 23.58196,26.94125 23.66399,26.94125 C25.99599,26.94125 27.91789,25.16005 28.14059,22.89045 C30.44529,22.30061 32.08979,20.24205 32.08979,17.79665 C32.08979,17.55837 32.07026,17.32399 32.03901,17.08962 L36.35931,14.96462 C36.82415,14.73806 37.01165,14.17556 36.78509,13.71852 C36.56243,13.25758 35.99993,13.06227 35.53509,13.29274 L31.44919,15.30444 C31.06638,14.60131 30.52731,13.98414 29.85939,13.51144 L29.85939,13.44894 C29.85939,11.35124 28.81249,9.49584 27.21489,8.37864 L30.59379,2.77314 C30.85941,2.33173 30.71879,1.75754 30.27738,1.49194 C29.83597,1.22241 29.26568,1.36694 28.99618,1.80835 L25.53528,7.54275 C24.94544,7.35525 24.31648,7.24978 23.66418,7.24978 C23.07824,7.24978 22.50398,7.34353 21.94938,7.50369 L22.50016,4.80449 C22.60563,4.30058 22.2775,3.8084 21.7736,3.70289 C21.26969,3.59742 20.77751,3.92555 20.672,4.42945 L20.07044,7.36695 C19.24232,6.84351 18.28524,6.56226 17.29314,6.56226 C17.13689,6.56226 16.98845,6.57789 16.84002,6.58961 L15.40252,2.00761 C15.25018,1.51542 14.72674,1.24199 14.23452,1.39433 C13.74233,1.54667 13.4689,2.07402 13.62124,2.56623 L15.03534,7.07793 C14.06268,7.53887 13.23454,8.28493 12.69154,9.25373 C11.76966,9.30842 10.93764,9.67561 10.26964,10.22639 L7.54694,8.35529 C7.12116,8.06232 6.54304,8.16779 6.25004,8.59357 C5.95704,9.01935 6.06645,9.59747 6.49223,9.89047 L9.12893,11.70297 C8.88674,12.23422 8.74221,12.82017 8.74221,13.43737 C8.74221,13.81237 8.79299,14.18346 8.89846,14.55067 C8.37112,15.09364 8.00783,15.76947 7.83206,16.49987 L2.15236,15.88268 C1.64455,15.82799 1.1797,16.19909 1.12506,16.71081 C1.06646,17.22643 1.43756,17.69128 1.95318,17.74601 L1.953,17.746 Z M10.5428,15.5976 L11.17561,15.14057 L10.83967,14.43745 C10.68342,14.11323 10.60529,13.7812 10.60529,13.44526 C10.60529,12.16406 11.64439,11.12496 13.00759,11.12496 L13.03103,11.12496 L13.86306,11.2148 L14.12868,10.56636 C14.42556,9.83589 14.9529,9.26166 15.60138,8.88666 L16.54669,11.89836 C16.67169,12.2968 17.03888,12.55461 17.43341,12.55461 C17.52716,12.55461 17.62091,12.53899 17.71466,12.51165 C18.20294,12.3554 18.48028,11.83196 18.32404,11.33974 L17.41779,8.44524 C18.39045,8.48431 19.30449,8.93352 19.93729,9.71474 L20.48417,10.39052 L21.19511,9.89443 C21.92558,9.38662 22.78101,9.11709 23.66391,9.11709 C23.96079,9.11709 24.25375,9.14834 24.535,9.20694 L23.367,11.14054 C23.10137,11.58195 23.242,12.15614 23.68341,12.42174 C23.83575,12.51549 23.99982,12.55455 24.16388,12.55455 C24.48029,12.55455 24.78888,12.39439 24.96466,12.10533 L26.24196,9.98813 C27.30056,10.7811 27.99586,12.03113 27.99586,13.44903 C27.99586,13.60137 27.98414,13.75762 27.96851,13.90997 L27.90601,14.52716 L28.44507,14.82404 C29.01148,15.13654 29.46457,15.59748 29.77317,16.13264 L28.17157,16.9217 C27.71063,17.14826 27.52313,17.71076 27.74969,18.1717 C27.90985,18.49982 28.24188,18.69123 28.58563,18.69123 C28.72625,18.69123 28.86688,18.65998 28.99579,18.59357 L30.20669,17.99591 C30.10904,19.67561 28.81999,21.03111 27.10899,21.18731 L26.1754,21.27325 L26.28478,22.36305 C26.28869,22.3943 26.2926,22.42555 26.2965,22.4568 C26.2965,23.906 25.1168,25.0857 23.6637,25.0857 C22.89026,25.0857 22.3199,24.73804 21.9762,24.45289 L21.08558,23.69508 L20.55042,24.73418 C19.80042,26.18338 18.32772,27.08188 16.70272,27.08188 C14.31602,27.08188 12.37462,25.13658 12.37462,22.75378 C12.37462,22.18737 12.484,21.62878 12.70274,21.10538 L13.22227,19.83978 L11.85507,19.81244 C10.9996,19.79681 10.26127,19.30853 9.86677,18.60544 L10.56989,18.67966 C10.60505,18.68356 10.6402,18.68356 10.67145,18.68356 C11.14411,18.68356 11.54645,18.32809 11.60114,17.85153 C11.65583,17.33981 11.28473,16.87887 10.77302,16.82033 L9.71442,16.70705 C9.87067,16.27346 10.14411,15.87893 10.54254,15.59765 L10.5428,15.5976 Z" id="Fill-6"></path>
                    <path d="M26.68,1.8984 C26.68,3.7617 23.8831,3.7617 23.8831,1.8984 C23.8831,0.0351 26.68,0.0351 26.68,1.8984" id="Fill-7"></path>
                    <path d="M9.848,6.098 C10.81284,6.098 11.598,5.31284 11.598,4.3519 C11.598,3.38706 10.81284,2.6058 9.848,2.6058 C8.88706,2.6058 8.1019,3.39096 8.1019,4.3519 C8.1019,5.31284 8.88706,6.098 9.848,6.098 Z" id="Fill-8"></path>
                </g>
            </g>
        </g>
    </g>
</svg>