<?xml version="1.0" encoding="UTF-8"?>
<svg width="53px" height="47px" viewBox="0 0 53 47" version="1.1" xmlns="http://www.w3.org/2000/svg" xmlns:xlink="http://www.w3.org/1999/xlink">
    <!-- Generator: sketchtool 59.1 (101010) - https://sketch.com -->
    <title>5BB541DE-F4B9-4A42-A91B-5EEDDA0AA2B0</title>
    <desc>Created with sketchtool.</desc>
    <g id="Assets-and-UI-Elements" stroke="none" stroke-width="1" fill="none" fill-rule="evenodd">
        <g id="Assest-ans-UI-Element" transform="translate(-374.000000, -192.000000)" fill="#8AB7D9">
            <path d="M422.887366,237.187747 L422.887366,192 L414.416238,192 L414.416238,237.307119 L410.784586,237.307119 L410.784586,206.378026 L402.313458,206.378026 L402.313458,237.186961 L398.681807,237.186961 L398.684874,213.988768 L390.213746,213.988768 L390.213746,237.186961 L386.582094,237.186961 L386.58517,222.204222 L378.114042,222.204222 L378.114042,237.186961 L374,237.186961 L374,239 L427,239 L427,237.186961 L422.887366,237.187747 Z M379.928444,237.187747 L379.928444,224.137732 L384.647736,224.137732 L384.647736,237.307904 L379.928444,237.307904 L379.928444,237.187747 Z M392.031067,237.187747 L392.031067,215.802906 L396.750358,215.802906 L396.750358,237.187747 L392.031067,237.187747 Z M404.130543,237.187747 L404.130543,208.191379 L408.849834,208.191379 L408.849834,237.187747 L404.130543,237.187747 Z M416.233165,237.187747 L416.233165,193.813353 L420.952456,193.813353 L420.952456,237.187747 L416.233165,237.187747 Z" id="Fill-2"></path>
        </g>
    </g>
</svg>