<?xml version="1.0" encoding="UTF-8"?>
<svg width="12px" height="19px" viewBox="0 0 12 19" version="1.1" xmlns="http://www.w3.org/2000/svg" xmlns:xlink="http://www.w3.org/1999/xlink">
    <!-- Generator: sketchtool 59.1 (101010) - https://sketch.com -->
    <title>440B4AF5-D54D-4761-9313-55637FFD3F54</title>
    <desc>Created with sketchtool.</desc>
    <g id="Dashaboard-/-Workspace" stroke="none" stroke-width="1" fill="none" fill-rule="evenodd">
        <g id="4.7-My-Lab-detail-3" transform="translate(-1340.000000, -615.000000)" fill="#8AB7D9">
            <g id="Group-3" transform="translate(0.000000, 95.000000)">
                <g id="Group">
                    <g id="My-Lab-block-+-Copy-5-My-Lab-block-+" transform="translate(968.500000, 445.000000)">
                        <g id="Group-11" transform="translate(336.000000, 75.000000)">
                            <g id="Group-2" transform="translate(36.000000, 0.000000)">
                                <g id="Group-19" transform="translate(0.000000, 0.000000)">
                                    <g id="Group-15">
                                        <path d="M7.33635375e-13,0 L7.33635375e-13,1.05517545 C7.33635375e-13,3.43122045 1.2001122,5.64686745 3.190404,6.94501395 C3.93308265,7.4297391 4.3803816,8.25656685 4.3803816,9.14350395 C4.3803816,10.030441 3.9330627,10.857169 3.190404,11.341994 C1.2000723,12.6403 7.33635375e-13,14.8557874 7.33635375e-13,17.231833 L7.33635375e-13,18.2870085 L11.254593,18.2870085 L11.254593,17.231833 C11.254593,14.8557874 10.0544808,12.6401405 8.064189,11.341994 C7.32151035,10.8572688 6.8742114,10.030441 6.8742114,9.14350395 C6.8742114,8.25656685 7.3215303,7.42983885 8.064189,6.94501395 C10.0545207,5.64670785 11.254593,3.43122045 11.254593,1.05517545 L11.254593,0 L7.33635375e-13,0 Z M0.831516,0.83073795 L10.423077,0.83073795 L10.423077,1.05517545 C10.423077,3.15072345 9.36478935,5.10362895 7.609728,6.24835995 C6.63171915,6.88660035 6.0417777,7.97527185 6.0417777,9.14350395 C6.0417777,10.3117361 6.6316992,11.400248 7.609728,12.038648 C9.36470955,13.1834388 10.423077,15.1362845 10.423077,17.2318326 L10.423077,17.4562701 L0.831516,17.4562701 L0.831516,17.2318326 C0.831516,15.1362845 1.88980365,13.183379 3.644865,12.038648 C4.62287385,11.4004076 5.2128153,10.3117361 5.2128153,9.14350395 C5.2128153,7.97527185 4.6228938,6.88675995 3.644865,6.24835995 C1.88988345,5.1035691 0.831516,3.15072345 0.831516,1.05517545 L0.831516,0.83073795 Z" id="Fill-1"></path>
                                        <path d="M7.37846317,5.72981733 C7.15923254,6.16106303 6.83707991,6.52747356 6.44210122,6.79334588 C5.9196674,7.14555376 5.60494387,7.74600343 5.60494387,8.38981733 C5.60494387,7.74601326 5.29022034,7.14556359 4.76778651,6.79334588 C4.37280782,6.52746374 4.05064569,6.16105321 3.8317965,5.72981733 L7.37846317,5.72981733 Z" id="Fill-2" transform="translate(5.605130, 7.059817) rotate(-360.000000) translate(-5.605130, -7.059817) "></path>
                                        <polygon id="Fill-3" transform="translate(5.605130, 15.039817) rotate(-360.000000) translate(-5.605130, -15.039817) " points="2.05846317 16.8131507 5.60512983 13.266484 9.1517965 16.8131507"></polygon>
                                    </g>
                                </g>
                            </g>
                        </g>
                    </g>
                </g>
            </g>
        </g>
    </g>
</svg>