<?xml version="1.0" encoding="UTF-8"?>
<svg width="18px" height="17px" viewBox="0 0 18 17" version="1.1" xmlns="http://www.w3.org/2000/svg" xmlns:xlink="http://www.w3.org/1999/xlink">
    <!-- Generator: sketchtool 59.1 (101010) - https://sketch.com -->
    <title>D12AE285-92FE-4B5E-BE57-072C82CC2949</title>
    <desc>Created with sketchtool.</desc>
    <g id="Dashaboard-/-Workspace" stroke="none" stroke-width="1" fill="none" fill-rule="evenodd">
        <g id="4.7-My-Lab-detail-3" transform="translate(-1330.000000, -460.000000)" fill="#019DAC" fill-rule="nonzero">
            <g id="Group-3" transform="translate(0.000000, 95.000000)">
                <g id="Group">
                    <g id="My-Lab-block-+-Copy-2-My-Lab-block-+" transform="translate(968.500000, 115.000000)">
                        <g id="icons8-link-2" transform="translate(362.000000, 250.000000)">
                            <path d="M13.2,0 C12.2384,0 11.3346876,0.37468752 10.6546876,1.05468752 L8.6546876,3.0546876 C8.0766876,3.6326876 7.7194,4.3722752 7.625,5.1718752 C7.6086,5.3126752 7.6,5.456 7.6,5.6 C7.6,6.1472 7.7254688,6.6747064 7.9554688,7.1539064 L8.5656248,6.5429688 C8.4588248,6.2437688 8.4,5.9268 8.4,5.6 C8.4,4.852 8.6915124,4.1495124 9.2203124,3.6203124 L11.2203124,1.62031248 C11.7495124,1.09151248 12.452,0.8 13.2,0.8 C13.948,0.8 14.6504876,1.09151248 15.1796876,1.62031248 C15.7088876,2.14911252 16,2.852 16,3.6 C16,4.348 15.7084876,5.0504876 15.1796876,5.5796876 L13.1796876,7.5796876 C12.6504876,8.1084876 11.948,8.4 11.2,8.4 C10.8732,8.4 10.5562312,8.3411752 10.2570312,8.2343752 L9.6460936,8.8445312 C10.1252936,9.0745312 10.6528,9.2 11.2,9.2 C12.1616,9.2 13.0653124,8.8253124 13.7453124,8.1453124 L15.7453124,6.1453124 C16.4253124,5.4653124 16.8,4.5616 16.8,3.6 C16.8,2.6384 16.4253124,1.73468748 15.7453124,1.05468752 C15.0653124,0.37468748 14.1616,0 13.2,0 Z M10.7921876,5.5960936 C10.6882681,5.59919012 10.5896362,5.64262187 10.5171876,5.7171876 L5.7171876,10.5171876 C5.61269128,10.6175142 5.57059735,10.7664944 5.60714008,10.9066712 C5.64368281,11.046848 5.75315196,11.1563172 5.89332878,11.1928599 C6.0335056,11.2294027 6.18248577,11.1873087 6.2828124,11.0828124 L11.0828124,6.2828124 C11.2011166,6.16781587 11.236688,5.99198601 11.1723863,5.84004726 C11.1080847,5.68810851 10.957101,5.5912302 10.7921876,5.5960936 L10.7921876,5.5960936 Z M5.6,7.6 C4.6384,7.6 3.7346876,7.9746876 3.0546876,8.6546876 L1.05468752,10.6546876 C0.42908748,11.2798876 0.06183124,12.0947312 0.00703124,12.9695312 C0.00223124,13.0459312 0,13.1228 0,13.2 C0,14.1616 0.37468752,15.0653124 1.05468752,15.7453124 C1.73468748,16.4253124 2.6384,16.8 3.6,16.8 C4.5616,16.8 5.4653124,16.4253124 6.1453124,15.7453124 L8.1453124,13.7453124 C8.8253124,13.0653124 9.2,12.1616 9.2,11.2 C9.2,10.6528 9.0745312,10.1252936 8.8445312,9.6460936 L8.2343752,10.2570312 C8.3411752,10.5562312 8.4,10.8732 8.4,11.2 C8.4,11.948 8.1084876,12.6504876 7.5796876,13.1796876 L5.5796876,15.1796876 C5.0504876,15.7084876 4.348,16 3.6,16 C2.852,16 2.14951252,15.7084876 1.62031248,15.1796876 C1.09111248,14.6508876 0.8,13.948 0.8,13.2 C0.8,12.452 1.09151248,11.7495124 1.62031248,11.2203124 L3.6203124,9.2203124 C4.1495124,8.6915124 4.852,8.4 5.6,8.4 C5.9268,8.4 6.2437688,8.4588248 6.5429688,8.5656248 L7.1539064,7.9554688 C6.6747064,7.7254688 6.1472,7.6 5.6,7.6 Z" id="Shape"></path>
                        </g>
                    </g>
                </g>
            </g>
        </g>
    </g>
</svg>