<?xml version="1.0" encoding="UTF-8"?>
<svg width="52px" height="52px" viewBox="0 0 52 52" version="1.1" xmlns="http://www.w3.org/2000/svg" xmlns:xlink="http://www.w3.org/1999/xlink">
    <!-- Generator: sketchtool 59.1 (101010) - https://sketch.com -->
    <title>FEE34185-FC30-44AA-A604-FEF5CE428CCF</title>
    <desc>Created with sketchtool.</desc>
    <g id="Assets-and-UI-Elements" stroke="none" stroke-width="1" fill="none" fill-rule="evenodd">
        <g id="Assest-ans-UI-Element" transform="translate(-489.000000, -189.000000)" fill="#8AB7D9" stroke="#FFFFFF" stroke-width="0.72">
            <g id="Group-22" transform="translate(490.000000, 190.000000)">
                <path d="M25,0 C23.9381011,0 21.9802659,0.218464205 20.292525,1.66015625 C19.7712284,2.05491068 18.606667,3.08117727 16.9167261,4.54545455 L9.0909091,4.54545455 C8.46333878,4.54551729 7.95460821,5.05424787 7.95454546,5.68181818 L7.95454546,12.4578307 C3.94467387,16.0046432 0.379527734,19.180575 0.379527734,19.180575 C0.13802443,19.3962223 0,19.7046382 0,20.0284091 L0,48.8636364 C0,49.4912067 0.508793329,50 1.13636364,50 L48.8636364,50 C49.4912067,50 50,49.4912067 50,48.8636364 L50,20.0284091 C50,19.7046383 49.8619759,19.3962224 49.6204727,19.180575 C49.6204727,19.180575 46.0554489,16.0038716 42.0454545,12.4578307 L42.0454545,5.68181818 C42.0453918,5.05424787 41.5366612,4.54551729 40.9090909,4.54545455 L33.0144705,4.54545455 C31.3882943,3.08233216 30.2243727,2.0509058 29.7052557,1.65793682 C28.0181023,0.218237273 26.0613557,0 25,0 Z M25,2.27272727 C25.7272114,2.27272727 27.1437784,2.45326625 28.238192,3.39133523 C28.2569154,3.40749523 28.2761612,3.42303972 28.2958989,3.43794386 C28.3627102,3.48800125 29.201892,4.23605364 29.5609909,4.54545455 L20.4101568,4.54545455 C20.7720239,4.23699614 21.6376148,3.48775784 21.7041011,3.43794386 C21.7238388,3.42303972 21.7430846,3.40749523 21.761808,3.39133523 C22.8562239,2.4532667 24.2727886,2.27272727 25,2.27272727 Z M10.2272727,6.81818182 L17.0321375,6.81818182 C17.2093097,6.86145737 17.3942948,6.86145737 17.571467,6.81818182 L32.4019,6.81818182 C32.5318553,6.84098572 32.664789,6.84098572 32.7947443,6.81818182 L39.7727273,6.81818182 L39.7727273,12.9749648 L39.7727273,26.7533739 L33.3651455,31.7959875 C32.1569807,30.8473261 29.950883,29.1235341 29.6875,28.912908 C27.9367784,27.5117966 26.0636977,27.2727273 25,27.2727273 C23.8526614,27.2727273 22.0727398,27.6197443 20.3502307,28.8840557 C20.0374011,29.113258 17.7584716,30.9104375 16.6281955,31.7915477 L10.2272727,26.7533739 L10.2272727,13.1214489 C10.2445033,13.0081681 10.2445033,12.892933 10.2272727,12.7796523 L10.2272727,6.81818182 Z M7.95454546,15.4962716 L7.95454546,24.9622693 L2.30158023,20.5122511 C2.57262182,20.2706807 5.34040091,17.8137614 7.95454546,15.4962716 Z M42.0454545,15.4962716 C44.6600886,17.8140205 47.4283159,20.2736614 47.6984193,20.5144705 L42.0454545,24.9644886 L42.0454545,15.4962716 Z M2.27272728,23.384233 L14.783825,33.2319784 C12.9325705,34.6816875 12.1008295,35.3188534 9.86772046,37.0738636 C5.9940683,40.1181818 3.53604535,42.0555648 2.27272728,43.0508705 L2.27272728,23.384233 Z M47.7272727,23.384233 L47.7272727,43.0553091 C46.0716545,41.7577818 40.3504705,37.2746284 35.2072977,33.2408557 L47.7272727,23.384233 Z M25,29.5454545 C25.7272114,29.5454545 27.0359489,29.7032239 28.2670455,30.6884761 C29.8079989,31.9207705 47.1268011,45.4729534 47.7272727,45.9428273 L47.7272727,47.7272727 L2.27272728,47.7272727 L2.27272728,45.9406068 C2.5841958,45.6953057 6.68402353,42.4667398 11.2726386,38.8605295 C16.0322398,35.1199398 21.084267,31.1649614 21.6952239,30.7173295 C22.954533,29.7930045 24.3564295,29.5454545 25,29.5454545 Z" id="Shape" fill-rule="nonzero"></path>
                <path d="M33.6455143,11.0010396 C33.3070706,11.0114452 32.9852054,11.1571235 32.7498158,11.4068744 C29.5168977,14.7197487 26.0561791,18.5153093 22.8258015,21.8644117 L18.2150711,17.9832089 C17.9542502,17.7217671 17.5980162,17.5839005 17.2328644,17.6034131 C16.8689828,17.6242243 16.5292687,17.7998174 16.2964523,18.0885635 C16.064893,18.3760175 15.9618518,18.7506255 16.0127308,19.121331 C16.0648963,19.4907379 16.2646468,19.8211196 16.5661748,20.0331273 L22.1032204,24.6948328 C22.6210318,25.1318677 23.3780762,25.0954398 23.8539039,24.611588 C27.3552709,21.0244057 31.1543356,16.8228771 34.6022865,13.2903033 C34.9916059,12.905313 35.1073953,12.3160734 34.8949161,11.8088133 C34.6824434,11.3002545 34.1862394,10.9789631 33.6455306,11.0010729 L33.6455143,11.0010396 Z" id="Fill-1"></path>
            </g>
        </g>
    </g>
</svg>