<?xml version="1.0" encoding="UTF-8"?>
<svg width="78px" height="51px" viewBox="0 0 78 51" version="1.1" xmlns="http://www.w3.org/2000/svg" xmlns:xlink="http://www.w3.org/1999/xlink">
    <!-- Generator: sketchtool 59.1 (101010) - https://sketch.com -->
    <title>860489BC-E065-4B16-84A2-E0AF8E01DE93</title>
    <desc>Created with sketchtool.</desc>
    <g id="Assets-and-UI-Elements" stroke="none" stroke-width="1" fill="none" fill-rule="evenodd" stroke-opacity="0.8">
        <g id="Assest-ans-UI-Element" transform="translate(-355.000000, -69.000000)" fill="#8AB7D9" fill-rule="nonzero" stroke="#FAFAFA" stroke-width="0.5">
            <path d="M428.614699,70 L359.385301,70 C357.523385,70 356,71.5206897 356,73.3793103 L356,105.989655 C356,107.848276 357.523385,109.368966 359.385301,109.368966 L361.755011,109.368966 L361.755011,115.62069 C361.755011,117.47931 363.278396,119 365.140312,119 L422.859688,119 C424.721604,119 426.244989,117.47931 426.244989,115.62069 L426.244989,109.368966 L428.614699,109.368966 C430.476615,109.368966 432,107.848276 432,105.989655 L432,73.3793103 C432,71.5206897 430.561247,70 428.614699,70 Z M424.552339,115.62069 C424.552339,116.55 423.790646,117.310345 422.859688,117.310345 L421.420935,117.310345 C421.420935,117.310345 421.420935,117.225862 421.420935,117.225862 L421.420935,113.086207 C421.420935,112.57931 421.082405,112.241379 420.57461,112.241379 C420.066815,112.241379 419.728285,112.57931 419.728285,113.086207 L419.728285,117.141379 C419.728285,117.141379 419.728285,117.225862 419.728285,117.225862 L415.665924,117.225862 C415.665924,117.225862 415.665924,117.141379 415.665924,117.141379 L415.665924,113.086207 C415.665924,112.57931 415.327394,112.241379 414.819599,112.241379 C414.311804,112.241379 413.973274,112.57931 413.973274,113.086207 L413.973274,117.141379 C413.973274,117.141379 413.973274,117.225862 413.973274,117.225862 L409.910913,117.225862 C409.910913,117.225862 409.910913,117.141379 409.910913,117.141379 L409.910913,113.086207 C409.910913,112.57931 409.572383,112.241379 409.064588,112.241379 C408.556793,112.241379 408.218263,112.57931 408.218263,113.086207 L408.218263,117.141379 C408.218263,117.141379 408.218263,117.225862 408.218263,117.225862 L404.155902,117.225862 C404.155902,117.225862 404.155902,117.141379 404.155902,117.141379 L404.155902,113.086207 C404.155902,112.57931 403.817372,112.241379 403.309577,112.241379 C402.801782,112.241379 402.463252,112.57931 402.463252,113.086207 L402.463252,117.141379 C402.463252,117.141379 402.463252,117.225862 402.463252,117.225862 L398.316258,117.225862 C398.316258,117.225862 398.316258,117.141379 398.316258,117.141379 L398.316258,113.086207 C398.316258,112.57931 397.977728,112.241379 397.469933,112.241379 C396.962138,112.241379 396.623608,112.57931 396.623608,113.086207 L396.623608,117.141379 C396.623608,117.141379 396.623608,117.225862 396.623608,117.225862 L392.561247,117.225862 C392.561247,117.225862 392.561247,117.141379 392.561247,117.141379 L392.561247,113.086207 C392.561247,112.57931 392.222717,112.241379 391.714922,112.241379 C391.207127,112.241379 390.868597,112.57931 390.868597,113.086207 L390.868597,117.141379 C390.868597,117.141379 390.868597,117.225862 390.868597,117.225862 L386.806236,117.225862 C386.806236,117.225862 386.806236,117.141379 386.806236,117.141379 L386.806236,113.086207 C386.806236,112.57931 386.467706,112.241379 385.959911,112.241379 C385.452116,112.241379 385.113586,112.57931 385.113586,113.086207 L385.113586,117.141379 C385.113586,117.141379 385.113586,117.225862 385.113586,117.225862 L381.051225,117.225862 C381.051225,117.225862 381.051225,117.141379 381.051225,117.141379 L381.051225,113.086207 C381.051225,112.57931 380.712695,112.241379 380.2049,112.241379 C379.697105,112.241379 379.358575,112.57931 379.358575,113.086207 L379.358575,117.141379 C379.358575,117.141379 379.358575,117.225862 379.358575,117.225862 L375.296214,117.225862 C375.296214,117.225862 375.296214,117.141379 375.296214,117.141379 L375.296214,113.086207 C375.296214,112.57931 374.957684,112.241379 374.449889,112.241379 C373.942094,112.241379 373.603563,112.57931 373.603563,113.086207 L373.603563,117.141379 C373.603563,117.141379 373.603563,117.225862 373.603563,117.225862 L369.541203,117.225862 C369.541203,117.225862 369.541203,117.141379 369.541203,117.141379 L369.541203,113.086207 C369.541203,112.57931 369.202673,112.241379 368.694878,112.241379 C368.187082,112.241379 367.848552,112.57931 367.848552,113.086207 L367.848552,117.141379 C367.848552,117.141379 367.848552,117.225862 367.848552,117.225862 L365.224944,117.225862 C364.293987,117.225862 363.532294,116.465517 363.532294,115.536207 L363.532294,109.284483 L424.552339,109.284483 L424.552339,115.62069 Z M430.30735,105.989655 C430.30735,106.918966 429.545657,107.67931 428.614699,107.67931 L426.244989,107.67931 L361.755011,107.67931 L359.385301,107.67931 C358.454343,107.67931 357.69265,106.918966 357.69265,105.989655 L357.69265,73.3793103 C357.69265,72.45 358.454343,71.6896552 359.385301,71.6896552 L428.614699,71.6896552 C429.545657,71.6896552 430.30735,72.45 430.30735,73.3793103 L430.30735,105.989655 Z M422.605791,78.6172414 L414.481069,78.6172414 C413.550111,78.6172414 412.788419,79.3775862 412.788419,80.3068966 L412.788419,99.062069 C412.788419,99.9913793 413.550111,100.751724 414.481069,100.751724 L422.605791,100.751724 C423.536748,100.751724 424.298441,99.9913793 424.298441,99.062069 L424.298441,80.3068966 C424.298441,79.3775862 423.536748,78.6172414 422.605791,78.6172414 Z M422.605791,99.062069 L414.481069,99.062069 L414.481069,80.3068966 L422.605791,80.3068966 L422.605791,99.062069 Z M389.937639,78.6172414 L381.812918,78.6172414 C380.88196,78.6172414 380.120267,79.3775862 380.120267,80.3068966 L380.120267,99.062069 C380.120267,99.9913793 380.88196,100.751724 381.812918,100.751724 L389.937639,100.751724 C390.868597,100.751724 391.63029,99.9913793 391.63029,99.062069 L391.63029,80.3068966 C391.63029,79.3775862 390.868597,78.6172414 389.937639,78.6172414 Z M389.937639,99.062069 L381.812918,99.062069 L381.812918,80.3068966 L389.937639,80.3068966 L389.937639,99.062069 Z M406.271715,78.6172414 L398.146993,78.6172414 C397.216036,78.6172414 396.454343,79.3775862 396.454343,80.3068966 L396.454343,99.062069 C396.454343,99.9913793 397.216036,100.751724 398.146993,100.751724 L406.271715,100.751724 C407.202673,100.751724 407.964365,99.9913793 407.964365,99.062069 L407.964365,80.3068966 C407.964365,79.3775862 407.202673,78.6172414 406.271715,78.6172414 Z M406.271715,99.062069 L398.146993,99.062069 L398.146993,80.3068966 L406.271715,80.3068966 L406.271715,99.062069 Z M373.518931,78.6172414 L365.394209,78.6172414 C364.463252,78.6172414 363.701559,79.3775862 363.701559,80.3068966 L363.701559,99.062069 C363.701559,99.9913793 364.463252,100.751724 365.394209,100.751724 L373.518931,100.751724 C374.449889,100.751724 375.211581,99.9913793 375.211581,99.062069 L375.211581,80.3068966 C375.211581,79.3775862 374.449889,78.6172414 373.518931,78.6172414 Z M373.518931,99.062069 L365.394209,99.062069 L365.394209,80.3068966 L373.518931,80.3068966 L373.518931,99.062069 Z" id="Shape-2"></path>
        </g>
    </g>
</svg>