<?xml version="1.0" encoding="UTF-8"?>
<svg width="69px" height="60px" viewBox="0 0 69 60" version="1.1" xmlns="http://www.w3.org/2000/svg" xmlns:xlink="http://www.w3.org/1999/xlink">
    <!-- Generator: sketchtool 59.1 (101010) - https://sketch.com -->
    <title>654A42C8-20CE-491B-AC4E-BE9AD57DD762</title>
    <desc>Created with sketchtool.</desc>
    <g id="Assets-and-UI-Elements" stroke="none" stroke-width="1" fill="none" fill-rule="evenodd">
        <g id="Assest-ans-UI-Element" transform="translate(-49.000000, -879.000000)" fill="#379B4A">
            <g id="Group-2" transform="translate(49.000000, 879.000000)">
                <path d="M37.5856173,45.1820821 C37.5856173,49.5560821 31.0246173,49.5560821 31.0246173,45.1820821 C31.0246173,40.8080821 37.5856173,40.8080821 37.5856173,45.1820821" id="Fill-3"></path>
                <path d="M7.69661726,59.1077317 C6.38383406,59.1077317 5.07105086,58.7429401 3.90640046,58.0880065 C2.08390046,57.0685729 0.77111726,55.3912897 0.26140046,53.4235729 C-0.24831634,51.4558561 -0.0290623003,49.3400065 1.06446686,47.5915729 L27.6729669,3.70650194 C29.9340333,0.061501942 34.7436837,-1.10606446 38.3885379,1.15500194 C39.4079715,1.8099647 40.2851043,2.61300194 40.9400379,3.70650194 L67.5485379,47.5915729 C69.2969715,50.5787962 68.7872547,54.369013 66.3809715,56.7755149 C64.9229715,58.2335149 62.9552547,59.0365813 60.9134715,59.1077317 L7.69661726,59.1077317 Z M30.1505463,5.23579814 L3.61348826,49.1208691 C2.9585255,50.1403027 2.81326496,51.4530859 3.10375688,52.6918027 C3.39421964,53.9305195 4.27132328,54.9528691 5.36482328,55.6078027 C6.09382328,56.04634 6.89688968,56.2627655 7.69704008,56.2627655 L60.8396821,56.2627655 C62.1524653,56.2627655 63.3171157,55.7530341 64.1942485,54.8047655 C65.7263149,53.2726991 66.0167485,50.9404823 64.9232485,49.1179823 L38.4598195,5.2358273 C37.0758859,2.9747609 34.0117531,2.2457609 31.7536027,3.7037609 C31.0986399,4.0682609 30.5860363,4.6520441 30.1503859,5.2358273 L30.1505463,5.23579814 Z" id="Fill-4"></path>
                <path d="M32.8471173,35.8537981 L32.8471173,17.1163111 C32.8471173,16.3132447 33.50208,15.6583111 34.3051173,15.6583111 C35.1081545,15.6583111 35.7631173,16.3132739 35.7631173,17.1163111 L35.7631173,35.8508821 C35.7631173,36.6539485 35.1081545,37.3117981 34.3051173,37.3117981 C33.5020509,37.3117981 32.8471173,36.6568354 32.8471173,35.8537981 Z" id="Fill-5"></path>
            </g>
        </g>
    </g>
</svg>