<?xml version="1.0" encoding="UTF-8"?>
<svg width="54px" height="42px" viewBox="0 0 54 42" version="1.1" xmlns="http://www.w3.org/2000/svg" xmlns:xlink="http://www.w3.org/1999/xlink">
    <!-- Generator: sketchtool 59.1 (101010) - https://sketch.com -->
    <title>59BDF3AB-DC52-44BF-8B25-965C5ECA3502</title>
    <desc>Created with sketchtool.</desc>
    <g id="Assets-and-UI-Elements" stroke="none" stroke-width="1" fill="none" fill-rule="evenodd">
        <g id="Assest-ans-UI-Element" transform="translate(-511.000000, -319.000000)">
            <g id="Group-5" transform="translate(511.000000, 319.000000)">
                <path d="M50.3801673,0 L3.6196087,0 C1.6089703,0 0,1.48894621 0,3.34959737 L0,31.1535733 C0,33.0142245 1.6089703,34.5031707 3.6196087,34.5031707 L21.5424366,34.5031707 L21.5424366,39.8735415 L19.1861981,39.8735415 C18.5533641,39.8735415 18.0372619,40.3511654 18.0372619,40.9367708 C18.0372619,41.5223974 18.5533871,42 19.1861981,42 L35.9043693,42 C36.5372033,42 37.0533055,41.5223762 37.0533055,40.9367708 C37.0533055,40.3511441 36.5371803,39.8735415 35.9043693,39.8735415 L33.0320287,39.8735415 L33.0320287,34.5015759 L50.3803913,34.5015759 C52.3910297,34.5015759 54,33.0126296 54,31.1519785 L54,3.35012898 C54,1.48947783 52.3910297,0.000531614615 50.3803913,0.000531614615 L50.3801673,0 Z" id="Path-1" fill="#019DAC"></path>
                <path d="M3.6196087,2.12645846 L50.3801673,2.12645846 C51.1274354,2.12645846 51.7019035,2.65807307 51.7019035,3.34959737 L51.7019035,25.4116039 L2.2976444,25.4116039 L2.2976444,3.34959737 C2.2976444,2.65807307 2.87211251,2.12645846 3.61938064,2.12645846 L3.6196087,2.12645846 Z" id="Path-2" stroke="#FFFFFF" stroke-width="0.6"></path>
                <path d="M30.0759051,39.8710961 L24.4408835,39.8710961 C24.1095127,39.8710961 23.8408835,39.602467 23.8408835,39.2710961 L23.8408835,35.1007253 C23.8408835,34.7693544 24.1095127,34.5007253 24.4408835,34.5007253 L30.0759051,34.5007253 C30.407276,34.5007253 30.6759051,34.7693544 30.6759051,35.1007253 L30.6759051,39.2710961 C30.6759051,39.602467 30.407276,39.8710961 30.0759051,39.8710961 Z" id="Path-3" stroke="#FFFFFF" stroke-width="0.6"></path>
                <path d="M50.380736,32.3742668 L3.62018087,32.3742668 C2.87291275,32.3742668 2.29844406,31.8426522 2.29844406,31.1511279 L2.29844406,27.5357232 L51.702702,27.5357232 L51.702702,31.1511279 C51.702702,31.8426522 51.1282339,32.3742668 50.3809658,32.3742668 L50.380736,32.3742668 Z" id="Path-4" stroke="#FFFFFF" stroke-width="0.6"></path>
            </g>
        </g>
    </g>
</svg>