<?xml version="1.0" encoding="UTF-8"?>
<svg width="54px" height="42px" viewBox="0 0 54 42" version="1.1" xmlns="http://www.w3.org/2000/svg" xmlns:xlink="http://www.w3.org/1999/xlink">
    <!-- Generator: sketchtool 59.1 (101010) - https://sketch.com -->
    <title>A9A365B8-E1C1-423D-B3D1-DA06B23C207E</title>
    <desc>Created with sketchtool.</desc>
    <g id="Assets-and-UI-Elements" stroke="none" stroke-width="1" fill="none" fill-rule="evenodd">
        <g id="Assest-ans-UI-Element" transform="translate(-418.000000, -319.000000)" fill="#019DAC">
            <path d="M468.380167,319 L421.619609,319 C419.60897,319 418,320.488946 418,322.349597 L418,350.153573 C418,352.014224 419.60897,353.503171 421.619609,353.503171 L439.542437,353.503171 L439.542437,358.873542 L437.186198,358.873542 C436.553364,358.873542 436.037262,359.351165 436.037262,359.936771 C436.037262,360.522397 436.553387,361 437.186198,361 L453.904369,361 C454.537203,361 455.053305,360.522376 455.053305,359.936771 C455.053305,359.351144 454.53718,358.873542 453.904369,358.873542 L451.032029,358.873542 L451.032029,353.501576 L468.380391,353.501576 C470.39103,353.501576 472,352.01263 472,350.151978 L472,322.350129 C472,320.489478 470.39103,319.000532 468.380391,319.000532 L468.380167,319 Z M421.619609,321.126458 L468.380167,321.126458 C469.127435,321.126458 469.701903,321.658073 469.701903,322.349597 L469.701903,344.411604 L420.297644,344.411604 L420.297644,322.349597 C420.297644,321.658073 420.872113,321.126458 421.619381,321.126458 L421.619609,321.126458 Z M448.675905,358.871096 L441.840884,358.871096 L441.840884,353.500725 L448.675905,353.500725 L448.675905,358.871096 Z M468.380736,351.374267 L421.620181,351.374267 C420.872913,351.374267 420.298444,350.842652 420.298444,350.151128 L420.298444,346.535723 L469.702702,346.535723 L469.702702,350.151128 C469.702702,350.842652 469.128234,351.374267 468.380966,351.374267 L468.380736,351.374267 Z" id="Fill-1-3"></path>
        </g>
    </g>
</svg>