<?xml version="1.0" encoding="UTF-8"?>
<svg width="30px" height="30px" viewBox="0 0 30 30" version="1.1" xmlns="http://www.w3.org/2000/svg" xmlns:xlink="http://www.w3.org/1999/xlink">
    <!-- Generator: sketchtool 59.1 (101010) - https://sketch.com -->
    <title>F732C394-413D-4C6C-96F0-6996E14D4FE5</title>
    <desc>Created with sketchtool.</desc>
    <g id="Asset-Artboard-Page" stroke="none" stroke-width="1" fill="none" fill-rule="evenodd">
        <g id="help" fill="#019DAC" stroke="#012947" stroke-width="0.5">
            <path d="M14.75,0 C6.61586667,0 0,6.61586667 0,14.75 C0,22.8841333 6.61586667,29.5 14.75,29.5 C22.8841333,29.5 29.5,22.8841333 29.5,14.75 C29.5,6.61586667 22.8841333,0 14.75,0 Z M14.75,1.96666667 C21.8214778,1.96666667 27.5333333,7.67852222 27.5333333,14.75 C27.5333333,21.8214778 21.8214778,27.5333333 14.75,27.5333333 C7.67852222,27.5333333 1.96666667,21.8214778 1.96666667,14.75 C1.96666667,7.67852222 7.67852222,1.96666667 14.75,1.96666667 Z M14.75,6.55555556 C12.0458333,6.55555556 9.83333333,8.76805556 9.83333333,11.4722222 C9.82949178,11.7359817 9.93192233,11.9894883 10.1162973,12.17642 C10.3006723,12.3646366 10.5528973,12.4696271 10.8166601,12.4696271 C11.0804229,12.4696271 11.3326479,12.3646366 11.5170229,12.17642 C11.7013979,11.9894851 11.8038284,11.7359522 11.7999869,11.4722222 C11.7999869,9.83077667 13.1085413,8.52222222 14.7499869,8.52222222 C16.3914324,8.52222222 17.6999869,9.83077667 17.6999869,11.4722222 C17.7115116,12.8191922 17.0175536,13.5080172 16.0508713,14.4222222 C15.5668747,14.8793083 15.0304008,15.355635 14.5758713,15.9791667 C14.1213419,16.6026983 13.7666536,17.4144728 13.7666536,18.3555556 C13.762812,18.6193151 13.8652426,18.8728217 14.0496176,19.0597533 C14.2339926,19.2479699 14.4862176,19.3529604 14.7499803,19.3529604 C15.0137431,19.3529604 15.2659681,19.2479699 15.4503431,19.0597533 C15.6347181,18.8728184 15.7371487,18.6192856 15.7333071,18.3555556 C15.7333071,17.8690022 15.8754283,17.5322761 16.1635154,17.1366156 C16.4516026,16.740955 16.8997371,16.3222844 17.4029088,15.8459906 C18.4080066,14.8959594 19.6807021,13.5669189 19.6666077,11.4721239 L19.6666077,11.4618808 C19.6614845,8.7628275 17.4502727,6.55537528 14.749941,6.55537528 L14.75,6.55555556 Z M14.75,20.3222222 C14.0253161,20.3222222 13.4388889,20.9086494 13.4388889,21.6333333 C13.4388889,22.3580172 14.0253161,22.9444444 14.75,22.9444444 C15.4746839,22.9444444 16.0611111,22.3580172 16.0611111,21.6333333 C16.0611111,20.9086494 15.4746839,20.3222222 14.75,20.3222222 Z" id="Fill-1"></path>
        </g>
    </g>
</svg>