<?xml version="1.0" encoding="UTF-8"?>
<svg width="22px" height="29px" viewBox="0 0 22 29" version="1.1" xmlns="http://www.w3.org/2000/svg" xmlns:xlink="http://www.w3.org/1999/xlink">
    <!-- Generator: sketchtool 59.1 (101010) - https://sketch.com -->
    <title>9B118DDE-AD0D-4077-BA57-7B78DC5B007A</title>
    <desc>Created with sketchtool.</desc>
    <g id="Dashaboard-/-Workspace" stroke="none" stroke-width="1" fill="none" fill-rule="evenodd">
        <g id="2.1-All-Labs" transform="translate(-445.000000, -206.000000)">
            <g id="Lab-Block-Copy-4-Lab-Block" transform="translate(36.000000, 210.000000)">
                <g id="Group-11" transform="translate(409.000000, -3.978947)">
                    <g id="Tag/All-Lab-POPULAR-TAG">
                        <g id="Group-12">
                            <g id="Group-14">
                                <g id="Group-13">
                                    <path d="M6.00000287,28.2777278 L6.00000287,0 L21.4839886,0 C21.7692787,0 22.0000029,0.253872625 22.0000029,0.567611204 L22.0000029,28.2777278 C22.0000029,28.4872558 21.8942696,28.681271 21.7259239,28.7799218 C21.5565692,28.8785897 21.3519371,28.8652849 21.1936662,28.7477723 L14.0001225,23.2933119 L6.80657869,28.7477723 C6.70778908,28.8220499 6.58782787,28.8564159 6.46786924,28.8453305 C6.20175328,28.8176237 5.99912115,28.571512 6.00000287,28.2777278 Z" id="Fill-1" fill="#0C4C7C" transform="translate(14.000001, 14.423684) rotate(-360.000000) translate(-14.000001, -14.423684) "></path>
                                    <path d="M11.4842043,16.8077709 C11.4441571,16.7521642 11.4270635,16.6825297 11.4373194,16.6138994 L11.8089856,14.0654956 L10.073743,12.2359185 C10.0073227,12.1672856 9.98339133,12.0660933 10.0117186,11.9734089 C10.039557,11.8807296 10.1157444,11.8120993 10.2075601,11.7965686 L12.6417008,11.3832657 L13.7771914,9.09340873 C13.8196804,9.00674171 13.9046559,8.95263158 13.9979381,8.95263158 C14.0907316,8.95263158 14.1757133,9.00673658 14.2181973,9.09340873 L15.3536879,11.3832657 L17.7878286,11.7965686 C17.880622,11.810595 17.9582772,11.8782263 17.9875834,11.9714082 C18.0168871,12.0645877 17.9934447,12.1667803 17.9265355,12.2359185 L16.1912929,14.0654956 L16.5629591,16.6138994 C16.5771234,16.7090833 16.5380526,16.8047699 16.4633292,16.8613783 C16.3881183,16.917988 16.2889798,16.9260035 16.2064373,16.8824186 L14.0003449,15.7196765 L11.7942525,16.8824186 C11.7498093,16.9059635 11.6995049,16.9149819 11.6501832,16.9084682 C11.5843205,16.8994486 11.5247379,16.863379 11.4842043,16.8077709 Z" id="Path" fill="#FFFFFF"></path>
                                    <polygon id="Path-2" fill="#012947" points="6 0 0 3.97894737 6 3.97894737"></polygon>
                                </g>
                            </g>
                        </g>
                    </g>
                </g>
            </g>
        </g>
    </g>
</svg>