<?xml version="1.0" encoding="UTF-8"?>
<svg width="53px" height="45px" viewBox="0 0 53 45" version="1.1" xmlns="http://www.w3.org/2000/svg" xmlns:xlink="http://www.w3.org/1999/xlink">
    <!-- Generator: sketchtool 59.1 (101010) - https://sketch.com -->
    <title>7EE818D1-6B8B-42BB-9D80-F7E3D039D3D7</title>
    <desc>Created with sketchtool.</desc>
    <g id="Assets-and-UI-Elements" stroke="none" stroke-width="1" fill="none" fill-rule="evenodd">
        <g id="Assest-ans-UI-Element" transform="translate(-258.000000, -193.000000)" fill="#8AB7D9">
            <g id="Group-11-3" transform="translate(258.000000, 193.000000)">
                <path d="M43.4042655,26.2015488 L40.5230521,26.2015488 L40.5230521,2.1504 C40.5230521,1.5792 40.2962494,1.03321344 39.8930387,0.63001344 C39.4898279,0.22681344 38.9438521,1.50990331e-13 38.3726521,1.50990331e-13 L14.3150521,1.50990331e-13 C13.1285689,1.50990331e-13 12.1646521,0.96182016 12.1646521,2.1504 L12.1646521,26.2015488 L9.27924538,26.2015488 C5.96332858,26.2015488 2.89954618,27.969769 1.24266244,30.8404454 C-0.414220813,33.7132723 -0.414220813,37.2497126 1.24266244,40.1204966 C2.89954564,42.9912806 5.9634361,44.7593927 9.27924538,44.7593927 L43.4044806,44.7593927 C46.7203974,44.7593927 49.7841798,42.9911731 51.441063,40.1204966 C53.0979462,37.2498202 53.0979462,33.7133798 51.441063,30.8404454 C49.7841798,27.969769 46.7202899,26.2015488 43.4044806,26.2015488 L43.4042655,26.2015488 Z M14.3152671,2.1504 L38.3728671,2.1504 L38.3728671,26.2015488 L14.3152671,26.2015488 L14.3152671,2.1504 Z M43.4042655,42.6091062 L9.27903034,42.6091062 C5.34154042,42.6091062 2.14937806,39.4171062 2.14937806,35.4816054 C2.14937806,31.5441101 5.34137914,28.3519488 9.27903034,28.3519488 L43.4042655,28.3519488 C47.3417555,28.3519488 50.5339167,31.5439488 50.5339167,35.4816054 C50.5339167,39.4169987 47.3419167,42.6091062 43.4042655,42.6091062 Z" id="Fill-1"></path>
                <polygon id="Fill-2" points="21.5035167 10.2144 31.1803167 10.2144 31.1803167 8.064 21.5035167 8.064"></polygon>
                <path d="M10.6547487,29.530368 C8.24812858,29.530368 6.07676218,30.9793613 5.15671354,33.2032512 C4.23483652,35.4271411 4.74511569,37.987031 6.44609338,39.6899328 C8.14921018,41.390953 10.7070035,41.9012429 12.9306246,40.9793126 C15.1545145,40.0574362 16.6056044,37.8881126 16.6056044,35.4812774 C16.6014058,32.1947674 13.9386246,29.5321958 10.6543724,29.5300454 L10.6547487,29.530368 Z M10.6547487,39.2829696 C9.1175353,39.2829696 7.73154874,38.3568461 7.14357562,36.9351629 C6.55554874,35.5155763 6.87897427,33.8817562 7.96674874,32.7939763 C9.05452858,31.7061965 10.6883487,31.3806797 12.1100319,31.9708032 C13.5296185,32.5588301 14.455742,33.9448166 14.455742,35.4819763 C14.4515434,37.5798528 12.7526252,39.2787763 10.6547487,39.2829696 Z" id="Fill-3"></path>
                <path d="M26.3419167,29.530368 C23.9352966,29.530368 21.7639302,30.9793613 20.8438815,33.2032512 C19.9220051,35.4271411 20.4322788,37.987031 22.1332614,39.6899328 C23.8363782,41.390953 26.3962681,41.9012429 28.6177926,40.9793126 C30.8416825,40.0574362 32.2927724,37.8881126 32.2927724,35.4812774 C32.2906704,32.1947674 29.6278892,29.5321958 26.3415404,29.5300454 L26.3419167,29.530368 Z M26.3419167,39.2829696 C24.8047033,39.2829696 23.4187167,38.3568461 22.8307436,36.9351629 C22.2427167,35.5155763 22.5682443,33.8817562 23.6539167,32.7939763 C24.7416966,31.7061965 26.3755167,31.3806797 27.7971999,31.9708032 C29.2167865,32.5588301 30.14291,33.9448166 30.14291,35.4819763 C30.140808,37.5798528 28.4397932,39.2787763 26.3419167,39.2829696 Z" id="Fill-4"></path>
                <path d="M42.0290847,29.530368 C39.6224646,29.530368 37.4531948,30.9793613 36.5310495,33.2032512 C35.6091731,35.4271411 36.1194522,37.987031 37.8204294,39.6899328 C39.5235462,41.390953 42.0834361,41.9012429 44.307111,40.9793126 C46.5307859,40.0573824 47.9799942,37.8881126 47.9799942,35.4812774 C47.9778922,32.1947674 45.315111,29.5321958 42.0287622,29.5300454 L42.0290847,29.530368 Z M42.0290847,39.2829696 C40.4918713,39.2829696 39.1058847,38.3568461 38.5179116,36.9351629 C37.9298847,35.5155763 38.2554123,33.8817562 39.3410847,32.7939763 C40.4288646,31.7061965 42.0626847,31.3806797 43.4843679,31.9708032 C44.9039545,32.5588301 45.830078,33.9448166 45.830078,35.4819763 C45.827976,37.5798528 44.1269612,39.2787763 42.0290847,39.2829696 Z" id="Fill-5"></path>
            </g>
        </g>
    </g>
</svg>