<?xml version="1.0" encoding="UTF-8"?>
<svg width="119px" height="119px" viewBox="0 0 119 119" version="1.1" xmlns="http://www.w3.org/2000/svg" xmlns:xlink="http://www.w3.org/1999/xlink">
    <!-- Generator: sketchtool 59.1 (101010) - https://sketch.com -->
    <title>B6100328-E5C4-4753-9983-726BF73D52C7</title>
    <desc>Created with sketchtool.</desc>
    <g id="Assets-and-UI-Elements" stroke="none" stroke-width="1" fill="none" fill-rule="evenodd">
        <g id="Assest-ans-UI-Element" transform="translate(-223.000000, -477.000000)">
            <g id="Group-1" transform="translate(223.000000, 477.000000)">
                <circle id="Oval" fill="#F0F0F0" cx="59.36" cy="59.36" r="59.36"></circle>
                <g id="Group-9" transform="translate(36.000000, 24.000000)" fill="#8AB7D9">
                    <path d="M30.7824,26.4708 L30.7824,9.666 L32.3574,9.666 C34.39176,9.666 35.9808,7.75824 35.9808,5.32536 C35.9808,2.89248 34.39176,0.98472 32.3574,0.98472 L13.2414,0.98472 C11.20704,0.98472 9.618,2.89248 9.618,5.32536 C9.618,7.75824 11.20704,9.666 13.2414,9.666 L14.8164,9.666 L14.8164,26.4708 C6.37416,29.7474 0.7824,37.83804 0.7824,46.9836 C0.7824,59.124 10.659,69.0011976 22.8,69.0011976 C34.941,69.0011976 44.8176,59.1246 44.8176,46.9836 C44.8176,37.84296 39.22536,29.748 30.7836,26.4708 L30.7824,26.4708 Z M13.326,6.3096 C13.236936,6.258036 12.974436,5.9346 12.974436,5.329908 C12.974436,4.720536 13.236936,4.378344 13.241628,4.350216 L32.272428,4.33146 C32.361492,4.383024 32.623992,4.720524 32.623992,5.329896 C32.623992,5.887704 32.398992,6.220524 32.295864,6.3096 L13.326,6.3096 Z M22.7994,65.6440284 C12.51036,65.6440284 4.143,57.27168 4.143,46.9872 C4.143,38.89188 9.31332,31.7616 17.0154,29.2548 L18.173208,28.8798 L18.173208,25.27044 L21.679488,25.27044 C22.298232,25.27044 22.799796,24.768876 22.799796,24.150132 C22.799796,23.531388 22.298232,23.029824 21.679488,23.029824 L18.173208,23.029824 L18.173208,19.856424 L21.679488,19.856424 C22.298232,19.856424 22.799796,19.35486 22.799796,18.736116 C22.799796,18.11268 22.298232,17.615808 21.679488,17.615808 L18.173208,17.615808 L18.173208,14.442408 L21.679488,14.442408 C22.298232,14.442408 22.799796,13.945536 22.799796,13.3221 C22.799796,12.703356 22.298232,12.201792 21.679488,12.201792 L18.173208,12.201792 L18.173208,9.665832 L27.421608,9.665832 L27.421608,28.870632 L28.584108,29.245632 C36.285708,31.758192 41.456508,38.883072 41.456508,46.978032 C41.456508,57.267072 33.089268,65.6440284 22.800108,65.6440284 L22.7994,65.6440284 Z" id="Fill-1"></path>
                    <path d="M39.708,45.6144 C33.32364,47.09568 26.5644,48.53004 19.4304,45.023772 C15.03348,42.862812 10.57104,41.667492 6.9336,41.001852 C6.225792,42.862812 5.822664,44.873772 5.822664,46.983132 C5.822664,56.344092 13.439904,63.9607332 22.800264,63.9607332 C32.160624,63.9607332 39.777864,56.343492 39.777864,46.983132 C39.777864,46.519068 39.745044,46.064388 39.707544,45.614412 L39.708,45.6144 Z" id="Fill-2"></path>
                    <path d="M17.4144,38.7708 C19.08312,38.7708 20.44248,37.41612 20.44248,35.7474 C20.44248,34.07868 19.08312,32.724 17.4144,32.724 C15.75036,32.724 14.391,34.07868 14.391,35.7474 C14.391,37.4208 15.75036,38.7708 17.4144,38.7708 Z M17.4144,34.96452 C17.850336,34.96452 18.2019,35.316084 18.2019,35.747328 C18.2019,36.178584 17.850336,36.530136 17.4144,36.530136 C16.983144,36.530136 16.631592,36.178572 16.631592,35.747328 C16.631592,35.316084 16.983156,34.96452 17.4144,34.96452 Z" id="Fill-3"></path>
                    <path d="M29.0016,42.5808 C31.3266,42.5808 33.21564,40.69176 33.21564,38.36676 C33.21564,36.04176 31.3266,34.14804 29.0016,34.14804 C26.6766,34.14804 24.78756,36.03708 24.78756,38.36676 C24.78756,40.69176 26.6766,42.5808 29.0016,42.5808 Z M29.0016,36.39336 C30.0891,36.39336 30.975,37.279296 30.975,38.36676 C30.975,39.454224 30.089064,40.34016 29.0016,40.34016 C27.909408,40.34016 27.02352,39.458904 27.02352,38.36676 C27.02352,37.27926 27.909456,36.39336 29.0016,36.39336 Z" id="Fill-4"></path>
                </g>
                <path d="M82,66 C70.9779942,66 62,74.9779942 62,86 C62,97.022006 70.9779942,106 82,106 C86.793016,106 91.19477,104.297972 94.644532,101.472656 L106.585938,113.414062 C107.087571,113.936544 107.832472,114.147013 108.533356,113.9643 C109.23424,113.781586 109.781586,113.23424 109.9643,112.533356 C110.147013,111.832472 109.936544,111.087571 109.414062,110.585938 L97.472656,98.644532 C100.297972,95.19477 102,90.793016 102,86 C102,74.9779942 93.022006,66 82,66 Z M82,70 C90.860246,70 98,77.1397548 98,86 C98,94.860246 90.860246,102 82,102 C73.1397548,102 66,94.860246 66,86 C66,77.1397548 73.1397548,70 82,70 Z M74,84 C72.8954305,84 72,84.8954305 72,86 C72,87.1045695 72.8954305,88 74,88 C75.1045695,88 76,87.1045695 76,86 C76,84.8954305 75.1045695,84 74,84 Z M82,84 C80.8954305,84 80,84.8954305 80,86 C80,87.1045695 80.8954305,88 82,88 C83.1045695,88 84,87.1045695 84,86 C84,84.8954305 83.1045695,84 82,84 Z M90,84 C88.8954305,84 88,84.8954305 88,86 C88,87.1045695 88.8954305,88 90,88 C91.1045695,88 92,87.1045695 92,86 C92,84.8954305 91.1045695,84 90,84 Z" id="Shape" fill="#012947" fill-rule="nonzero"></path>
            </g>
        </g>
    </g>
</svg>