<?xml version="1.0" encoding="UTF-8"?>
<svg width="62px" height="54px" viewBox="0 0 62 54" version="1.1" xmlns="http://www.w3.org/2000/svg" xmlns:xlink="http://www.w3.org/1999/xlink">
    <!-- Generator: sketchtool 59.1 (101010) - https://sketch.com -->
    <title>D75098F8-9E3E-4A98-879C-56A9B99A36F1</title>
    <desc>Created with sketchtool.</desc>
    <g id="Assets-and-UI-Elements" stroke="none" stroke-width="1" fill="none" fill-rule="evenodd">
        <g id="Assest-ans-UI-Element" transform="translate(-140.000000, -67.000000)" fill="#8AB7D9" fill-rule="nonzero" stroke="#FBFBFB" stroke-width="2">
            <path d="M164.513514,71.25 C165.40911,71.25 166.135135,71.9775373 166.135135,72.875 C166.135135,73.7724627 165.40911,74.5 164.513514,74.5 L164.513514,74.5 L145.864865,74.5 C144.969268,74.5 144.243243,75.2275373 144.243243,76.125 L144.243243,76.125 L144.243243,108.625 C144.243243,109.522463 144.969268,110.25 145.864865,110.25 L145.864865,110.25 L184.783784,110.25 C185.679381,110.25 186.405405,110.977537 186.405405,111.875 C186.405405,112.772463 185.679381,113.5 184.783784,113.5 L184.783784,113.5 L178.751351,113.5 L179.562162,116.75 L183.972973,116.75 C184.86857,116.75 185.594595,117.477537 185.594595,118.375 C185.594595,119.272463 184.86857,120 183.972973,120 L183.972973,120 L158.027027,120 C157.13143,120 156.405405,119.272463 156.405405,118.375 C156.405405,117.477537 157.13143,116.75 158.027027,116.75 L158.027027,116.75 L162.437838,116.75 L163.248649,113.5 L145.864865,113.5 C143.178074,113.5 141,111.317388 141,108.625 L141,108.625 L141,76.125 C141,73.4326118 143.178074,71.25 145.864865,71.25 L145.864865,71.25 Z M175.410811,113.5 L166.589189,113.5 L165.778378,116.75 L176.221622,116.75 L175.410811,113.5 Z M196.135135,71.25 C198.821926,71.25 201,73.4326118 201,76.125 L201,76.125 L201,108.625 C201,111.317388 198.821926,113.5 196.135135,113.5 L196.135135,113.5 L194.513514,113.5 C193.617917,113.5 192.891892,112.772463 192.891892,111.875 C192.891892,110.977537 193.617917,110.25 194.513514,110.25 L194.513514,110.25 L196.135135,110.25 C197.030732,110.25 197.756757,109.522463 197.756757,108.625 L197.756757,108.625 L197.756757,76.125 C197.756757,75.2275373 197.030732,74.5 196.135135,74.5 L196.135135,74.5 L177.486486,74.5 C176.59089,74.5 175.864865,73.7724627 175.864865,72.875 C175.864865,71.9775373 176.59089,71.25 177.486486,71.25 L177.486486,71.25 Z M189.648649,110.25 C190.544246,110.25 191.27027,110.977537 191.27027,111.875 C191.27027,112.772463 190.544246,113.5 189.648649,113.5 C188.753052,113.5 188.027027,112.772463 188.027027,111.875 C188.027027,110.977537 188.753052,110.25 189.648649,110.25 Z M171,68 C171.895597,68 172.621622,68.7275373 172.621622,69.625 L172.621622,69.625 L172.621622,79.65125 C172.621279,80.0843487 172.793482,80.4996654 173.1,80.805 L173.1,80.805 L181.881081,89.604375 C182.534079,89.2905448 183.248761,89.1267693 183.972973,89.125 C186.139655,89.1224759 188.046857,90.5561321 188.650728,92.6412978 C189.254599,94.7264636 188.409572,96.960499 186.578148,98.1206688 C184.746724,99.2808385 182.370378,99.0874777 180.749734,97.6464169 C179.129091,96.2053561 178.654814,93.8639702 179.586486,91.90375 L179.586486,91.90375 L172.621622,84.924375 L172.621622,94.284375 C174.855481,95.075809 176.195468,97.3648326 175.794804,99.7049412 C175.394139,102.04505 173.369366,103.755569 171,103.755569 C168.630634,103.755569 166.605861,102.04505 166.205196,99.7049412 C165.804532,97.3648326 167.144519,95.075809 169.378378,94.284375 L169.378378,94.284375 L169.378378,84.924375 L162.413514,91.90375 C163.434128,94.0462841 162.766105,96.6140253 160.831539,97.984534 C158.896973,99.3550428 156.258486,99.1297391 154.58322,97.4509821 C152.907953,95.7722251 152.683117,93.1282416 154.050777,91.1896453 C155.418436,89.2510489 157.980839,88.5816346 160.118919,89.604375 L160.118919,89.604375 L168.9,80.805 C169.206518,80.4996654 169.378721,80.0843487 169.378378,79.65125 L169.378378,79.65125 L169.378378,69.625 C169.378378,68.7275373 170.104403,68 171,68 Z M171,97.25 C170.104403,97.25 169.378378,97.9775373 169.378378,98.875 C169.378378,99.7724627 170.104403,100.5 171,100.5 C171.895597,100.5 172.621622,99.7724627 172.621622,98.875 C172.621622,97.9775373 171.895597,97.25 171,97.25 Z M158.027027,92.375 C157.13143,92.375 156.405405,93.1025373 156.405405,94 C156.405405,94.8974627 157.13143,95.625 158.027027,95.625 C158.922624,95.625 159.648649,94.8974627 159.648649,94 C159.648649,93.1025373 158.922624,92.375 158.027027,92.375 Z M183.972973,92.375 C183.077376,92.375 182.351351,93.1025373 182.351351,94 C182.351351,94.8974627 183.077376,95.625 183.972973,95.625 C184.86857,95.625 185.594595,94.8974627 185.594595,94 C185.594595,93.1025373 184.86857,92.375 183.972973,92.375 Z" id="Combined-Shape-2"></path>
        </g>
    </g>
</svg>